<svg id="Слой_1" xmlns="http://www.w3.org/2000/svg" viewBox="0 0 566.9 566.9"><style>.st0{fill:#d90e28}.st1{fill:#fff}</style><g id="_x31_053"><path class="st0" d="M502.9 72.4c.1.6-.5.8-.8.5.1-.6.4-.7.8-.5zM486.6 49.7h-.5c-.1-.3.1-.3.2-.5.3 0 .3.2.3.5zM482.8 58.2c-.4.3-.4-.1-.8.1-.2-.3-.2-.5-.1-.9.5 0 .8.3.9.8zM479.8 69.1c.3-.6 1.5-.1 1.4.7-.3 0-.3.2-.6.2-.3-.3-.6-.5-.8-.9zM480.7 58c.1.4-.4.4-.4 0 .2-.2.2 0 .4 0zM480.1 60.7c.6.1.1.9-.3.8-.1 0 0-.1.1-.1 0-.1-.1-.1-.2-.1 0-.5.6.1.4-.6zM480.1 56c0 .4-.2.6-.6.6-.1.1.2.3-.1.6-.3-.2-.3-.6-.5-.8-.2.1-.5-.2-.5 0-.3 0-.2-.4-.4-.6 0-.3.6.1.6-.2.2.1.1.5.3.7.8 0 .9.2 1.2-.3zM480 55.2c-.2.2-.2-.2-.6-.1 0-.2.1-.3.1-.4.3 0 .4.2.5.5zM479.6 61c-.1.1-.3.1-.3-.2-.2 0-.1.3-.4.2 0 .2.1.2.1.4-.2 0-.2.1-.3.2-.3-.3-.1-.5-.4-.8-.6.1-1.5.4-1.5-.4.3 0 .3-.3.7-.3-.1.3.1.3.1.6.5-.4.3-.9.6-1.6.2.3.4.2.7 0 .1.2.2.4.4.6-.1.2-.1.4-.3.6-.1.4.5.3.6.7zm-1.2-.7c0-.2.1 0 .3 0-.1-.3-.2-.6-.5-.7-.2.2.1.5.2.7zM478.8 51c.1.3-.2.4-.2.7-1 .2-.5-1.2-1.4-1-.1-.3.1-.6-.2-.8-.1-.3.3-.1.2-.4.8.1.7 1.5 1.4 1.3-.2.1.1.1.2.2z"/><path class="st0" d="M478.7 60.3c-.2 0-.2-.2-.3 0-.1-.1-.4-.4-.2-.7.4.1.4.4.5.7zM478.1 52.4c0 .4.3.4.3.8-.4-.3-.4-.1-.4-.6-.1 0-.3 0-.3.1-.3 0-.1-.4-.3-.4.1-.2.4.2.7.1z"/><path class="st0" d="M352 78c-.2 0 .1-.5-.2-.5.1.3-.3.2-.5.4 0-.4-.1-.8-.6-.8 0 .2-.2.2-.1.5.4.1.7.4.9.7.1-.2.3-.2.5-.3zm-104.6-7.2c-.4.5-.3 1.4-1.2 1.7 0 .2.1.3.2.4-.2.1-.6.6-.8.2 0-.2.3 0 .5-.1.1-.5-.4-.3-.5-.7.2-.2.2 0 .4.1.2 0 .1-.4.4-.4-.1-.2-.3-.3-.5-.3s-.3.2-.5.3c-.2-.1.1-.5-.2-.6-.1.8-.9.5-1.8.6-.1 0 0 .1 0 .3-.3.1-.1-.3-.4-.3-.1.1-.2.3-.4.1.3.3.9.4.8 1.1-.3.1-.4-.1-.8.1.3-.4-.2-.6-.1-1.1-.1.1-.3.1-.3.2-.1-.3-.3-1 0-1.3 0-.7-.9 0-.8-.6-.4.2-.1.3-.1.7-.2 0-.2.3-.5.2 0 .2.3.1.4.2 0 .2-.4.2-.5.1-.4.1-.3.3-.8.2-.4.1.1.7-.5.7.2-.6.5-1 .6-1.7h-.2c-.1.2 0 .4-.3.6-.1-.1-.4-.1-.6 0-.1.4.4.1.3.5-.1.1-.4 0-.5-.2-.3.1-.4.3-.1.5-.2 0-.6.1-.8.8-.6-.3-.2-1 .2-1.3-.1 0-.7.2-.8-.4-.2 0-.3.1-.4.1 0 .4.4.3.3.8-.2.2-.2 0-.5 0 0 .2.1.2.1.4-.3.1-.3-.1-.6-.1 0-.1.3-.1.2-.4-.4.3-.5.1-1.1.4 0-.3.1-.4.3-.7-.1-.3-.4 0-.4.2-.2 0 .1-.2 0-.5-.2.1-.5 0-.7.4 0-.2-.7-.5-.8-.1.1.3.5-.1.6.1-.1.3-.6.2-.9.1 0-.3.1-.7.4-.5 0-.2-.1-.2-.2-.3.1-.1.3-.1.5-.2-.2-.2 0-.1 0-.4-.1-.2-.6.5-.8 0-.2 0-.1.5.1.5-.2 0-.8.1-1 .4 0 .1.5-.1.4.4-.8-.2-.9.2-1.7.3.2-.4.7-.4.3-1.2-.4.1-.5.4-.7.8-.1 0-.1-.2-.1-.3-.4 0-.5.4-.8.6.1-.3-.2-.3-.1-.6.2 0 .3-.2.6-.1-.1-.3.1-.3.1-.6 0-.4-.5.2-.4-.4-.3.2-.6.4-.8.7 0 .1.1.1.2 0l-.1.1c-.1.3-.4-.3-.8.1-.3-.3.1-.5.1-.8-.4-.1-.3.4-.6.6-.2 0-.4-.2-.6-.3-.1.3-.3.4-.5.1 0-.2.4.2.4-.2 0-.2-.2-.2-.5-.2-.1 0-.1.3 0 .3-.3.3-.5-.3-.8-.4-.2 0-.4.5-.3.6-.2.3-.2-.3-.5-.1.3.2.3.7.7.8-.2.4-.3-.2-.6-.1s.1.3 0 .5c-.5 0-.1-.4-.3-.7-.5 0-.7.5-1.1.2.2-.3.4-.2.4-.8-.3 0-.2.2-.3.4-.5-.3-.7 0-1.2-.2.1-.4 0-.4.1-.8-.6 0-.4.9-1.1.8 0-.2-.1-.3-.2-.5-.4 0-.8.5-.7.8-.1.3-.3-.1-.5 0-.1-.3.1-.3.1-.6-.1-.3-.3-.1-.5-.1v-.4c.2 0 .2.2.5.1v-.2c-.7-.3-.9.7-1.2.9 0 .2.3.1.2.4-.4.1-.6.4-.9.7 0-.7-.4-1.1.4-1.2 0-.5-.6-.4-.7-.8-.7 0-1.1.3-1.1 1-.7.1-.7-.6-1.2-.8-.3.1.1.3 0 .6-.1-.1-.2-.1-.4-.1 0-.3.2-.2 0-.4-.2 0-.1.4-.3.5-.1 0-.2-.1-.3-.1 0-.5.4-.7-.1-.9-.3 0-.3.4-.8.3.1.5.1.9-.4.9-.1-.5-.2-.9-.6-1 0-.3.3-.3.3-.5 0-.1-.1-.1-.1-.2-.7 0 0 .8-.7.8.2.5.1.7.5 1-.3.2-.6-.1-.8-.3-.3.2 0 .9-.6.8 0-.1.1-.1.2-.1.1-.3-.1-.2-.1-.5h-.4c-.2 0-.2.2-.2.4-.3-.3-.6.1-.9.1 0-.2 0-.5-.1-.6-.4 0-.5.4-.7.6-.3-.3-.8.1-1.1.3-.2-.2-.5-.2-.8-.4-.1-.5.3-.6.1-.9-.1.1-.4.1-.3.4-.3 0-.3-.2-.4-.5.6.1.9-.2.9-.8 0-.2-.3 0-.5-.1-.2 0 .1.4-.3.3 0-.4-.1-.5 0-.9-.4 0-.4.7-.3 1-.3-.1-.4.3-.1.2 0 .1 0 .1-.1.1s-.1.1-.3.1c.2-.7-.8-.5-.5-1-.3.4-.9.5-1.1.8-.5-.6-1.6 0-1.3.7-.1-.1-.1-.2-.3-.2 0-.4.1-.5.4-.8-.4-.1-1-.3-1.3-.2 0-.2 0-.5-.1-.6-.2 0-.6.3-.4.4 0 .2-.3-.1-.4-.2-.1 0-.1.2-.1.4-.4-.4-.5.3-.9.3 0-.1.1-.1.1-.3-.2 0-.4.1-.7.1-.2.2-.3.5-.7.5.1-.3.1-.6-.1-.8-.2.2-.2.1-.6.1-.3.1.1.3-.1.4-.1 0-.3 0-.3.1-.1-.2-.2-.4-.4-.6-.3 0-.4.2-.7 0-.2 0 0 .3.2.2-.2.1-.4.1-.8 0-.3 0-.2.4-.4.5-.4.1-.2-.4-.5-.4 0-.1.2-.1.3-.1.1-.3 0-.5-.2-.6-.3.2-.4.7-.5.8-.2-.2-.1-.8-.8-.8-.3.1-.3.3-.5.3-.1 0-.1-.2-.2-.2-.1-.2.2-.1.2-.3 0-.1-.1-.2-.2-.2-.1.4-.4.1-.6.5-.4-.3-1-.5-1.2.1-.1 0-.2-.1-.2-.3-.1.3-.4 0-.8.2.2.2-.1.4-.3.5 0-.1-.1-.2-.1-.3-.1-.4.4-.2.4-.5-.2-.3-.4 0-.6-.3-.4.4-.5.7-1.1.8 0 .2.1.2.2.2-.4 0-.6.1-.8.4-.3-.1-.4-.3-.8-.4 0-.2.2-.2.2-.5-.4 0-.3.5-.8.5 0-.1.1-.2.1-.3-.2.1-.4.1-.8.1.3.4 0 .8.2 1.2-.2-.1-.3-.2-.4-.6-.1.1-.2.3-.5.3s-.4-.2-.5-.5c.1-.2.4-.3.4-.6 0-.1-.2-.1-.2-.2-.2.3-.7.4-.8.8-.2-.1-.1-.5-.3-.6 0-.2.5-.2.5 0l.3-.3c-.2-.1-.4-.2-.5-.5-.1.2-.3.4-.7.4 0-.3 0-.6-.1-.8-.2 0-.4.2-.6 0-.1 0-.1.2-.1.4s.2-.1.5 0c0 .3.3.4.3.8-.5.2-1.1.4-1.4 0-.4.1-.3.5-.9.3-.2-.4-.1-1-.6-1.1-.3.3-.5.8-.6 1.3h-.4v-.6c-.2 0-.2.1-.3.2-.3-.1.2-.6-.2-.6-.3 0-.2.5-.6.5.1.4 0 .4-.2.7-.5.1-.2-.6-.3-.9-.8-.3-1.6-.2-2 .4-.4 0 .1-.3-.3-.3-.1 0 0 .1 0 .3h-.6c.8-.4 0-2.2-.2-.7-.7-.2-.7.3-1.1.3-.2 0-.2-.2-.2-.5-.5 0-.5.1-.6.4-.2-.2-.4-.5-.7-.7-.3.5-.2.4-.8.7.3-.3-.5-.6-.4 0-.4.1-.6-.7-.9-.2-.2-.1-.3-.2-.3-.5h-.4c-.2.4-.4.8-1 .8-.3-.3 0-.6-.2-.9-.1.2-.3.2-.6.2-.3.3-.1.4 0 .8-.3.4-1.2-.5-1.2.2-.2 0-.4-.5-.2-.7-.1-.3-.5-.3-.7-.5 0 .2.1.3.2.4-.1.2-.4.1-.6.3.1.1 0 .4.2.4-.1.2-.2.1-.5.1 0-.4-.1-.3 0-.6-.2 0-.3.1-.3.3-.2-.1-.3-.4-.5-.6-.4.3-.9 0-1.3.4-.1-.1-.4-.4-.2-.6.1.1.3 0 .3.3.1 0 .1-.2.3-.2-.1-.2-.6-.1-.7-.3-.1.4-.6.5-.5 1-.2-.3-1-.8-1.1-.3l-.5-.5c-.3 0-.1.4 0 .6-.6 0-1.2.2-1.7-.3-.5.3-1 .3-1.5.3-.1.2 0 .3-.3.4-.2-.7-1-.1-1.2-.7-.3.3-.5.1-.9.2 0-.2-.3-.1-.2-.4-.6.4-.7-.3-1.1.2.1.1 0 .5.3.5-.3.2-.4.1-.8.1-.1-.1-.1-.3-.1-.5-.5.1-1.2 0-1-.7-.3 0-.2.3-.4.4-.2 0-.1-.3-.3-.3-.9-.1-2 .5-2.6.1-.7.3-1.8-.5-2.6.1.1.3.1.8.4.9-.6-.2-.3 1-.9 1-.2-.1-.3-.2-.6-.2 0-.3-.1-.4-.3-.5-.4 0-.4.4-.8.4-.2-.4-.3-.5 0-.9.3-.1.3.2.6.1-.2-.5-.7-.6-.8-1 .1.2.6 0 .6.4.4-.6-1.1-.8-1.3-.5.2.3.1.2.2.6-.2-.2-.5 0-.8 0-.1-.5-1.5-.9-1.8-.4-.4-.5-1-.1-1.4.1V68c-.4.3-1.1.2-1.3.7-.2 0 0-.3-.1-.5-.5.2-.7.1-1.3.1-.3.3-.3.4-.8.5-.1-.4.3-.3.1-.6-.3-.1-.2.2-.2.4-.1 0-.3-.4-.4-.1-.2 0 0-.5-.2-.6-.3-.1-.7.1-.4.3 0 .2-.3-.1-.3-.2-.2.1-.4.3-.6.1-.2.4-.4.4-.4.7-1 .3-1.5-.2-2.1-.8-.3 0-.2.4-.6.4v-.3c-.1.4-1.3 0-1.4.8-1.4-.6-2.7-.2-3.9-.3-.3 0-.3.2-.4.4-.2-.5-.8.6-1-.1-2.7 1.1-5.2 0-8.9.6.1-.2-.2-.1-.2-.3-.3.4-1.3.2-1.7.6 0 0 0 .6-.1.1-.7.3-2.1.2-2.7.8-.8-.4-2 .1-2.9-.2-.2 0-.4.1-.5.3-.5-.4-1-.2-1.3.2-.2-.2 0-.3.1-.5-.6-.2-1.4 0-2 .4-1-.3-2.8.1-3.8.2-2.7.6-5.4 3.2-8.5 1.5-.9.3-1.8-.2-2.6 0-1.2.8-2.8 1.6-4.5 1.9-1.4.3-2.5.8-4.2.6-.3.1-.6.6-1 .3-1.7.7-3.9 1.4-6 1.3-2.7-.1-4.5.5-6.1 2.1.1.6-.6 1-.8 1.5-.1.1 0 .4-.1.6-.3.3-.6.2-.8.8 0 .1.1.4.1.6 0 3-.4 7.3-1 10.2.2 2.5-1.9 3.6-3.5 4.6-.7-.1-1.1-.4-1.8-.6 0-.2-.3-.2-.2-.5-2.5-.5-1.9-4.5-2.1-6.6-1.1-1.5-.6-3.9-1.1-5.8-.1-.5-.5-.8-.6-1.3-.1-1-.5-2.2-1.1-3-.7-.8-1.8-1.2-2.6-1.9-1.2-.1-1.9.1-2.6-.2-.8.7-1.7.1-2.7.3-.8.1-1 1.1-1.9 1.2.1.9-.4 1.1-.4 1.9.1.2.3-.4.8-.2.3.4.1.9-.1 1.2-.3 0-.4-.1-.7-.2-.9.5-.8 2-.9 3.2-.1 1.4-.2 2.9-.1 4.2.1 2.2-.2 5.5-.5 8.1-.1.6-.1 1.4-.2 1.8-.7 3.1-.2 7.7-3 8.6-1.1.3-1.8.1-3.2-.4-.9-.8-1.7-2.2-1.9-4.1-.1-.6.1-1.3 0-1.9-.1-1-.9-2.4-.2-3.6-1.3-3.3-.7-7.5-1.1-11.1-.1-.8-.4-1.3-.5-2.1-.1-1.1-.5-2-.7-2.9-.8-1.1-.8-3.3-1.8-4.4-.2-.3-.6-.3-.7-.8-1.2-.5-1.8-1.4-2.4-2.6-.8-.1-1.4-.5-1.8-1.1-1-.3-1.8-.8-2.2-1.8-.6-.6-1.8-.5-2.2-1.3-.7.1-.6-.6-1.2-.7-.6-.6-.9-1.4-1.7-1.8-1.6-1.4-2.4-3.5-3.7-5.3-1.7-1.9-2.3-4.9-3.2-7.7 0-.2-.2-.2-.4-.2-.1-.3.1-.3.2-.5.3-1.7-.3-3.2-.4-4.7-.1-.7.2-1.5.2-2.4.1-1.7.1-3.2.4-4.7 0-.1.1-.5.2-.9.1-.6.3-.9.6-1.6.1-.4.1-.8.2-1.1.2-.6.7-1.1 1-1.7.1-.3.1-.7.3-1 .3-.6 1.4-1.2 1.6-2.1.8-.5 1.1-1.5 2-1.9.1-.9 1.1-.9.9-1.8.2 0 .2.2.4.3.3 0 .3-.2.6-.2-.1-.6.4-.5.2-1 .1.1.4.1.7.1 1.6-1.8 4.1-2.1 6.2-3.4.4 0 .4.1.7-.1.4.1.9.3 1-.2.8-.2 1.8-.2 2.5-.8 1.4.3 2.9-.8 4.7-.5.1-.1.2-.3.3-.4 1.1.2 2.4-.2 3.5-.1.6-.6 1.1-.4 2.4-.5 1.8 0 3.8-.6 5.2-.3.2-.1.4-.3.7-.4 2.1.2 5.5.3 8.1.3.7 0 1.3-.3 1.9-.5 1.7.6 3.1.2 4.7-.1 0 .1.1.2.1.3 1.2 0 2.3.3 3.5-.2 1.4.3 2.4.4 4.1.3l.3-.3c.2.4.5.1.8.2 1.5.3 3.4.4 5.1.1.2 0 .4 0 .4.3 1.5-.1 2.7-.2 4.3 0-.1.3.3.1.2.4.4-.3.7-.2 1.1-.6 0 .4.5-.1.5.4.2-.2.3-.4.7-.4.2.2 0 .1 0 .4.7-.4 1.6.4 2-.1.3 0 .3.2.4.4.3-.2.6 0 1 .1.3-.3.3-.4.4-.9.4.1.4.6.8.7.2 0 .5 0 .5-.3.2-.1.4.3.5 0 0 .4.9.3 1.1.6.3-.1-.1-.4.1-.5.3.1.3.5.8.4 0-.2-.1-.4-.4-.4.3-.3.6.4 1.1.2.1-.3-.3-.2-.2-.5.2.2.6.1.5-.3.6 0 1.4 1.1 1.8.4.7-.1.7.4 1.1.6.2-.1.4-.2.7-.3 0-.2-.3-.1-.2-.4.7 0 .6.7 1.3.7.4-.1.1-.2.4-.5.1 0 0 .3.2.3.2-.3.4-.5.5-.8.3 0 .2.4.2.7h.4c.1-.3-.3-.2-.2-.5.4.1.5.5.8.7.2-.3-.4-.5-.4-.9.1 0 .2-.1.2-.2.4.2.8.3.9.7-.2-.1-.3-.2-.6-.2-.3.2.4.5.5.6l-.2.3c.2.1.6-.2.9-.2.4 0 .7.6 1.1.3-.1-.1-.3-.2-.1-.4.3.1.4.3.8.4.2-.2-.1-.4.1-.7.3.1.1.3.5.3.2 0 0-.4.2-.5.3.1.4.1.7 0 0 .2-.2.2-.1.5.3-.2.8-.1 1.2-.4.3 0 .2.5.6.4.2-.1.2-.3.2-.6.3.7 1.7.8 2.4.5-.1-.4-.2-.8.1-.9.4.4 0 .7.2 1.4.6.1.8-.7.3-.8 0-.3.6-.1.6-.4.1.1 0 .2 0 .5.4.1.3-.7.7-.3-.3.3 0 .5.1.9 0-.7.9-.1.9-.8.3 0 .3.2.6.3.3-.1-.1-.3 0-.5.7-.1 1-.5 1.5-.7v.6c-.3.1-.2-.2-.4-.2-.2.1-.3.3-.4.5.2.2.6-.3.8.1.2-.1.3-.3.5-.4.4 0 .4.4.7.6.2-.2.5-.3.5-.6.3.3.8.4 1.1.7.3.1.1-.3.4-.3.4.1.3.4.4.6.3-.4.8-.3 1.1-.6.3.2.6.1.9.5.4-.8 1.6-.5 2.4 0 0-.1.2-.3.2-.8.4.2.6.4.8.7.2 0 0-.4.2-.5.5-.1.8.1.8-.4.3.5.6.1 1 0 .1.1.1.3.1.6.6-.3 1.1-.5 1.7-.8.2.2 0 .1 0 .4h.4c0 .1-.1.1-.2.1 0 .3.3.2.3-.1.2 0 .3.1.4.3.1 0 .1-.2.1-.3.5 0 .2.4.4.7.3-.1.6-.2.6-.7.3 0 .3.3.6.4.1-.1.2-.4.2-.7.4.3.2.7.6.8.3.1.2-.2.3-.3-.2.5 1.1.2 1.3.3.3-.2.3-.7 0-.8-.1-.3.4.1.4-.2.2.2.4.4.5.7.2 0 .2-.1.4-.1 0 .2-.2.4.1.5.2 0 0-.4.2-.5.3-.1.4.1.7.1 0 .3.1.4.3.5.4.1.3-.2.6-.2-.1-.1-.1-.3 0-.5.2.1.2.4.6.3 0 .2 0 .5.2.5.3-.1.1-.3.1-.5.4.1.4-.2.5-.4.1.1.1.2-.1.4 0 .2.1.4.3.5.8-.1.5-.5.5-.9.2.3.4.6.9.6.1-.1.2-.2.2-.5.1.1.5.5.8.2.3.5.6.6 1.3.6-.1-.1-.1-.4-.3-.4.2-.1.3-.3.6-.4.2.3.3.7.3.9.5 0 .1-.5.3-.7.7.2 1.6 0 1.9.2.2-.4.5.1.6-.7.5.2-.1.6.1.8.5-.2.4 0 .7.3.2-.3.5-.4.7-.8.2.2.3.5.8.5.1-.1.1-.4.3-.5.3.2.4.2.8.1v.4c-.3.1-.7 0-.8.4.4-.1 1.4 0 1.4-.8.2-.1.4.3.6 0 .2.1 0 .5.1.8.2 0 .2-.1.4-.1 0-.2-.1-.2-.2-.2.4-.4.7.1 1.1-.1.8-1.2 1.4.1 2.4-.1 0 .4.2.5.7.5 0-.2-.1-.2-.2-.3.5 0 1-.3 1.3 0 .2-.1.1-.4.5-.4.1.1.1.3.2.3-.1.2-.5.1-.6.3.3.2.8.1.8.6.2 0 .2-.1.4-.1-.1-.2-.4-.2-.3-.6.3 0 .5-.3.7-.5.3.2-.1.5-.2.6.3.2.2.3.1.7.2.3.7.2.8-.2 0-.2-.3 0-.3.1 0-.5 1.1-.8 1.2-.3.3 0 .4-.2.5-.4-.1.4.3.1.6.4.3-.1 0-.3.2-.6.5-.1.5 0 1 0-.1-.2.5-.3.5-.8.2.6.7.9 1.3.7 0 .3.3.2.2.6.5 0 .5-.1.9 0-.4-.6.2-1 .5-1.4.5.3-.4.5-.3 1 .1.2.5.3.7.1-.5-.4.4-.1.1-.6.2.1.3.3.6.4.1-.1.3-.1.3-.4.3.2.2.1.5 0 .1.3.4.3.5.6.2 0 .2-.5-.1-.4.2-.6.9 0 1.1.2.1-.4.6-.2 1-.2.4.2-.4 0-.3.2.2.2.7 0 .8.6.3-.2.5-.3.4-.8.3 0 .4-.2.6 0 .3-.1-.2-.1-.1-.4.3.1.2-.1.5-.1-.5.3.3.4 0 .8.3-.1.3.1 0 .1 0 .2.5 0 .5.3.1 0 .1-.2.2-.2.1-.3-.2-.2-.3-.4-.1-.4.5 0 .4-.4.2.1.4.4.3.6.2 0 .4 0 .5-.2 0 .1.2.4.1.6.3-.2.6.1.9-.1.1-.3-.4-.5-.2-.7 0 .3 1 1 1 .3.1.1.3.1.5.1v.4c.2 0 .2-.1.4-.1v-.3c.2.1.8 0 .9.5.2-.1.4-.3.7-.2-.1.3.1.2.1.5.2-.1.5-.2.7-.4-.1-.5-.6-.3-.8-.6.1-.4.4 0 .7-.2 0 .3.2.2 0 .4.4.1.4-.3.8-.2-.2.5-.3 1 .2 1.2.4-.1 0-.8-.2-.9.4.3.5-.2.8-.3-.1.4.3.2.3.6.4-.2.7-.7.7-1.1.5.5 1 .7 1.7.7-.1.4.5.1.4.5.2-.1.4-.3.8-.3 0-.2-.1-.2-.2-.2.3-.1.7-.3.8-.7.1.3.3.5.7.5-.1.2-.2.1-.5.1 0 .1 0 .2.1.3-.2-.2-.6 0-.8.1.2 0 .4.1.6.2-.3-.1-.2.2-.2.4.4.1.4-.4.5-.7.3.6 1.2.2.5-.5.1 0 .1-.1.1-.2.8 0 .9.6 1.7.6 0-.4-.4-.4-.5-.8.3 0 .5.1.5.4.2 0 .2-.3.5-.2-.5.5.4.7.7.9.1-.2 0-.4.5-.4v.4c.3-.2.1-.4.2-.8.2 0 .3.2.4-.1.3.3 0 .5.3.9.6.1.5-.4.7-.7.3 0 .5 0 .5.4.2-.2.6-.1.9-.3.1.2.3.4.5.6.4-.3 1.1.3 1.1-.4.3.2.3.2.7.1 0 .1-.1.2-.1.3.2-.3.5 0 .9-.1s.9-.8.9-.1c.1 0 .1-.2.1-.3.4 0 .7 0 .6.5l.3-.3c.4.1-.1.2 0 .6.3 0 .3-.4.5-.5 0-.3-.3 0-.3-.2.1-.4 1 .3 1.1-.3.3.1.4.4.4.8h.4c.1 0 .1-.2.1-.4s-.3.1-.4-.1c.1-.3-.1-.3-.1-.6.2 0 .2-.2.5-.1.1.1.1.3.1.5.1-.1.5.1.5-.1 0 .2.3.4.7.5.1-.3.3-.4.4-.7.5 0 .4.6.8.8.1-.5.2-.5.4-.9.5.5 1.2.3 1.1 1.1.7.1.1-.5.9-.4 0-.4-.4-.4-.3-.8.4-.2.7.1.9 0-.1.2 0 .7.2 1.1.3-.1.1-.6.2-.7.2 0 .8.3.9.7.3 0 .4-.2.6-.5 0-.1-.1-.1-.1-.2-.3 0-.2.3-.5.3.1-.1-.1-.5.1-.5-.1-.1-.2-.1-.2-.3-.2.1-.1.4-.5.3v-.4c.6 0 .9 0 1.2.4.4-.3.8-.6 1.2-.1.2-.3.7-.1.9-.3.3 0 .1.4.3.5 0 .1-.1.2-.3.2 0 .2.1.4.3.5.2-.4.2-.9.7-.9 0-.2 0-.4-.2-.4.3-.1 0-.3.2-.6.3.1.2.4.6.2 0 .3-.2.4-.4.6.1.3.4.4.5.8.2 0 .1-.3.2-.4h.7c-.1.4.4.2.5.5.6 0 .5-.6.9-.8.4.1.4.3.8.1 0 .2-.1.4 0 .7.2-.5.6-.9 1.4-.8.1.6.8.6 1 1 .1-.2.4-.5.4 0 .2 0 .2-.3.4-.3-.1-.4-.5 0-.8 0 .1-.1.1-.3 0-.3.3-.4.6-.1.8-.7.1.3.5.3.6.6.5 0 0-.3.1-.7.2.1.6 0 .5.4.1 0 .1-.2.1-.3.4.1.6.4.8.7.4-.4.3-1.6 1.3-1.9.1.3-.2.5.1.9-.2 0-.3-.2-.6-.1.2-.1.4-.3.2-.6-.4.1-.1.6-.4.9.3.1.3-.1.6-.1 0 .4-.3.4-.5.7.1.3.3.1.6.1.1-.1.1-.5.3-.6.3 0 .6.1.5.6.4-.1.2-.6.3-.8.3 0 .1.5.5.5s.4-.5.7-.7c0 .2.1.3.2.7.1.2.5 0 .5.4.3-.1-.2-.3.1-.5.4 0 .6.3 1 .2.1-.5.7-.5.6-1.1.3 0 .7-.1.9-.5.1.1.3.1.6.1.1.2.2.3.2.6-.3 0-.3-.3-.7-.1-.1.6.6.4.7.9 1 .1 1-1.8 2.4-1.3-.1.3-.4.3-.7.5 0 .3.2.3.2.6.2 0 0-.3.1-.5h.6c.1.3-.3.1-.4.3.3.2.2.3.3.6.4-.2.4-.5.5-.8.3 0 .3.1.3.4.3 0 .2-.3.4-.5.2.2.3 0 .6 0 .2.6.9.1 1.2.2.3-.1.3-.5.5-.7.2 0 0 .3.1.5.3-.1.5-.2.8-.3.2.5.3-.1.5.5.3 0 .2-.3.4-.4.2.1.6.1.7.4.1-.3.6 0 .7.3-.2 0-.4.1-.4.4-.1.3.4-.1.4.2.1-.1-.1-.4.1-.6.1.1.6.2.7 0 .1.2.3.3.7.3.2-.3.2-.4.3-.7.4-.1 1-.3 1.2.3.3-.1.6-.2.5-.7.5 0 .6.4 1.2.5.1-.1.1-.2.3-.2-.1-.2-.4-.3-.5-.5.3-.2.6.2.9 0 .3-.2-.3.3 0 .4-.1.1-.3.2-.6.2-.1.2.2.1.2.3.7 0 .4-1 1.2-.9.1.3 0 .2 0 .6.4-.1.3-.8.8-.8.1.2.3.3.3.7.4 0 1.1.4 1.3 0 .2.1.5.4.3.7.1.2.4.2.7.2 0-.5.6-.8.8-.8.1 0 .1.2.1.3.4 0 .5-.3.4.2.2-.1.2-.5.6-.4 0-.4.2-.4-.1-.6 0-.2.1-.4.4-.4-.2.2 0 .3.3.3-.4.5.1.9.2 1.2.1-.4.3-.3.4-.7.7-.2.7.8 1.2.5-.1-.2-.3-.4-.6-.5.1-.1.1-.3.1-.5.4.3.7 0 1 .2-.1.3-.2.6-.4.8 0 .1.1.1.1.2.4.1.4-.3.6-.4.3-.1.2.3.5.2-.1.2-.3.7.1.9.2 0 0-.4.2-.5.2 0 .1.3.3.3-.1-.4 0-.4.2-.7-.1-.3-.5-.2-.4-.7.4-.1.5.2.8.2.2 0 0-.4.2-.5.2.1.4.4.1.5.1.2.3.2.6.1-.1-.3 0-.2 0-.6.5-.1.5.3.8.4 0 .2-.1.3-.1.4.5 0 .6.3.8.5.3-.5 1.4.8 1.6-.2.4.2.4-.2.8 0 0 .2-.1.3-.1.4.4 0 .6-.1.6-.4.4.2.6.2.8-.2.1.3.3.4.6.5.1-.3.3-.5.8-.5 0 .3.1.4 0 .7.2.2.5.2.6.4.2-.1.3-.3.7-.2-.2-.4-.2-1 .3-1.1.3.3-.1.6-.3.8.6 0 1-.9 1.5-1.2.4.1.5.6.9.3-.1.4-.2.3-.1.8.3.1.4-.1.7-.1-.1.4 0 .4 0 .8.5 0 .3-.3.3-.7.2.2.3.1.5-.1.2 0 .2.1.2.3.1 0 .1-.2.1-.3.3.1.4.3.6.5.1-.1.4-.3.6-.1-.2-.4.1-.3.6-.3-.1.3.1.4.4.4-.1.4-.1.3 0 .7.2-.1.5-.2.6-.5 0-.1-.2-.1-.3-.1 0-.2.6-.3.5.1.2-.1.2-.3.4-.4-.1-.2-.4-.1-.4-.5.2 0 .5 0 .6-.1-.1-.1-.1-.2-.3-.3.1-.3.4.1.5.1 0 .2-.1.3-.2.5.1.2.1.5.5.5.2-.2-.2-.6-.1-.9.4.3 1 .4 1.1.9.5-.6 1.3.1 2-.4.1.6.7.6.9.6.2 0-.1-.3.1-.4.4-.1.2.4.6.3.2-.1.2-.4.2-.8.2.5.7.7 1 .9.3-.4.9.2 1.1.5.4-.1 0-.6 0-.8.2 0 .7-.3 1.2-.3.1.6 0 .7-.3 1 .1.2.4.1.6.2-.5-.3.3-.7.3-1.1.2 0 .5 0 .6.1-.1.2 0 .4-.2.5 0 .2.2-.1.4 0 .3-.2.3-.6.8-.7-.1.2.2.2.2.1.2 0 0 .4.3.4.5 0 .1-.5.3-.9.4.3.5.5 1 .4.1.3-.3.1-.3.4-.2-.1-.2-.4-.6-.3-.1 0-.1.2-.1.4.3.1.4.4.6.6.2-.4.5-.5.7-.9.3.2.2.5.3.8.2-.1.6-.1.7-.5.5.1.2.5.6.8.3-.4-.2-.6-.1-1 .4.1.8.2.9.8-.6 0-1 .6-.4.8.2 0 .2-.2.2-.5.6.4.6-.3.7-.7.5 0 .5.5.7.8.6-.2.3-.7.4-1.5.4-.1.6-.3.8-.7.2 0 .2.2.2.5-.3-.1-.4-.1-.5.2.1.3.2 0 .4.2-.1.5.4.6.1.9.3 0 .2-.3.4-.5.5.4 1.2-.1 1.7.2.1.4.1.3 0 .7-.2 0-.4 0-.5.1.1.2.2.1.5.1.3-.1.1-.3.4-.6.2 0 .4 0 .4.2.2 0-.1-.3-.2-.3.4-.1.7-.2.8 0 .2 0-.1-.3.2-.3 0-.1-.5-.5-.5-.1-.5-.2.1-.5.4-.5 0 .3.5.6.7.4.2.1.2.4.2.8.5-.3 1.6 0 1.4-.7.3.1.2.4.6.4 0 .4.1.4-.1.7.7 0 .3-1.1.7-1.3 0 .4.8.6.8.1.3.2.9 0 .9.6-.2.2-.1 0-.4 0 .2.1.2.4.5.4-.2.2-.1.8.4.7 0-.2 0-.5-.2-.5.3-.2 1.4-.1 1.4.2.7-.3 1.1-.8 1.6-1.3 0 .5.4.6.4 1 .1-.1.3-.2.3-.5s-.4-.2-.4-.6c.2-.1.4.2.4 0 .2 0 0 .5.3.5.5 0 .6-.7 1.1-.3 0 .4-.4-.1-.6.3.1.3.7.2.8.6 0-.7.9-.4 1-.8.3 0 .4.3.6.5.3-.3.6-.3 1.2-.4-.2.4 0 .7-.1 1 .2.3.4 0 .8.1-.2.1-.2.4.1.4.1-.3.1-.9-.5-.9 0-.3 0-.7.4-.8.1.4.3 1 .8.7 0 .2.2.3 0 .5.5-.2 0-.9 0-1.1.3-.1.5 0 .6.2.3-.1-.2-.3-.2-.4.3-.4.6.6.8.3.2 0-.1.2 0 .5.2.1.6.1.7.4.5 0 .8-.7 1.2-.3.1.3-.2.2-.2.4 1.2.2 2.6-.6 3.6-.1.2 0 .1-.3.2-.4 0-.2-.4-.1-.4-.4 0-.2.1-.2.1-.4.4-.1.4.6.8.3.1.3-.3.8.2 1.1.3-.3-.2-.4.3-.7.2.3.4.5.6.8.2-.1.1-.5.5-.5 0-.2-.2-.3 0-.5-.2-.2-.3.2-.7.1v-.5c.3.1.4-.1.7-.1-.2.4.4.1.6.2 0 .2-.1.3-.3.3.1.3.2.6.5.8.2-.1-.2-.7 0-.8.2-.2.5.5.8 0 .4-.1.3.2.6.3 0 .2-.3.1-.3.3.3.1.4 0 .7.3.3-.2-.1-.7.3-.9.3-.1.2.3.1.4.2-.2.4-.1.5.1.2 0 .2-.1.2-.3.7.5.3-.9.9-.8.1.3-.2.3 0 .5.5-.2.6.1 1 .1-.1.2-.2 0-.3 0 0 .2.1.2.2.3.3-.1 1.5-.1 1-.8.3-.1.3.1.6.1 0 .3 0 .5.2.6 0-.2.3-.3.3-.8.3-.1.7.1.7-.2.2.1.3.2.5.3.1.3-.2.2-.3.4.3-.2.7.5 1.1.8.3-.3.2-.6.5-1 .3 0 .1.5 0 .7.1.1.2.1.3.2.6-.4 1.5-1 2.2-.4.3 0 .3-.2.6-.2 0 .1-.1.2-.3.2.1.2.3.3.7.3.1-.4-.4-.1-.3-.5h.4c.1.1.1.3.1.6.3-.2.6-.4.7-.8.5.2.7.2 1.1.3.3 0 .1-.4.5-.4.4.3.4.3.9 0-.1-.1-.3-.2-.2-.5.5 0 .2.9.9.8.1-.1 0-.4 0-.5.1-.2.3.3.4.4.1-.1.4-.1.4-.4.4.2.7.2 1 .3.2-.1.2-.4.3-.5.3.1.1.3.4.3.3-.3.3-.6.6-1 .3.2.5.5.6.9-.2.1-.3.2-.7.2.1.4.3.3.6.4.2 0 .2-.3.3-.4.5.1.9.2 1.2.5.3-.1.5-.3.7-.5-.1-.5-.5-.7-.9-.5-.2-.3-.3-.1-.6-.3.2-.2.3-.5.8-.5 0 .2 0 .4.1.5.5-.4 1 .7 1.3.2.4.3-.2.7-.5.4.1.1.1.2 0 .4.4 0 .7.1.8-.3.1.3.6.3.4.6-.1-.1-.2-.3-.4-.1 0 .2.3.2.4.4.4-.5.6-.9 1-1v.4c.3 0 .5-.3.8-.1.3-.1-.2-.3.1-.5.3 0 .6.1.4.3.3 0 .8-.1.8.3.2 0 .4-.1.7-.1 0-.2-.1-.2-.1-.4.3.3 1 .2 1.3.5.2-.2.3-.5.6-.7.1 0 .1.3.4.2 0 .2 0 .4.1.5.7-.2 1.1.1 1.4-.3-.2-.4 0-.6.2-.8-.1-.1-.4-.2-.2-.5.1.2.3.3.4.5 0 .2 0 .4-.2.4.3.4 1.1.2 1.4.4 0-.4-.1-.4 0-.7.1 0 .2 0 .2-.1.9.8 2 .7 3 .7.2.2-.1.3-.2.5 0 .3.5.1.7.1-.4-.2-.1-.9.5-.9 0 .3 0 .5.4.5-.4 0-.4.2-.6.6.1.3.4.3.9.3 0-.2-.2-.3-.1-.6.4.1.2-.2.4-.3.4-.1-.8 1 .2 1 .1-.4.3-1 1.1-.9-.3.3-.7.7-.5 1.1.2 0 .4 0 .4-.2.2.1 0 .2 0 .3.1.3.1-.2.4-.1-.4-.4.1-1 .5-1.2.2.1.3.2.4.4 0 .2-.1.2-.2.2.1.2.3.3.5.4.2 0 .2-.2.2-.5.4-.1.4.1.8.1 0 .3-.2.6.3.6.7-.4-.2-1-.5-.9-.2 0 .1-.4-.3-.3.3-.2.2-.8.8-.8-.1.6.5.3.9.3 0 .2-.2.2 0 .3-.3.2-.5.2-.8 0-.4.5 1.3 1.2 1.1.3.3.1.4 0 .8 0 0 .1-.1.2-.1.3.4 0 .3.1.6 0 0-.2 0-.5-.2-.5.1-.3.2.3.5.1.2.3-.1.2-.1.6.2.1.3 0 .8.1-.3-.3-.3-.3-.2-.8.3 0 .2-.2.7-.2 0 .4-.2.5-.4.8.2.2.3 0 .3-.3.3 0 .2.3.6.2.1.3-.2.3 0 .5.6 0 .4-.6.2-.8.2-.2.5.2.9.1 0 .1-.1.1-.1.3.1.2.2-.3.6-.1 0 .3.4.2.5.5.1-.1.2-.4.2-.7.4 0 .6-.1.8-.4-.1.1-.1.2.1.2 0 .3-.3.2-.2.6.2.3.4.1.7 0 .1.1.1.2-.1.3.1.1.3.2.4.3.2-.4 1-.6 1.1 0 .2.1.4-.2.5 0 0-.2.3-.4.5 0 .3 0 .2-.4.4-.5.4-.1.3.3.6.4.4-.4.6-.7 1-.8-.1.2-.2.4-.4.6.1.1.2.2.4.2.2-.1.3-.3.3-.6.4-.1.6.6.3.7.3.3.5-.2.5-.4.4.6 1.1.5 1.7.4.1-.4.7-.8.9-.2.3 0 .3-.3.5-.4.5.1.4.1 1 .1.1.3 0 .3-.1.6 0 .1.2.1.2.2.2-.2.4-.3.5-.6.4.1.7.4.8.8.5-.1 1.1-.2 1.2-.8.5-.1.6.3.8.6.4-.1.6-.2.8.1.1-.1.1-.5.1-.9.3-.1.6-.2.5-.7.4 0-.2.6.4.3-.3.4-.2.7-.7.9 0 .1.1.2.2.2.2 0 .2-.1.2-.3.1.2.2.3.3.6.3 0 .5 0 .8.1.3-.1 0-.2.1-.6-.3 0-.3.2-.6.2-.1-.4.1-.5.1-.9.3-.1.1.4.3.5.3-.5.3.4.8.3-.2.6.1.7.5.9.6-.2.5-.8.4-1.4.2 0 .2-.1.2-.2.4.2 1.1.1 1.1.7-.2 0-.3.1-.4.2-.1.2.2.1.2.3.1-.4.5-.6.8-.3.2-.1.4-.3.5-.6.5.2 1.3 0 1.1-.5.3.1 0 .3.1.7 0 .1.2.1.2.2.3-.3.7-.1.4.2.7-.3 1.7.2 2.2-.4.3.2.5-.1.6.4.3-.2.6-.5.8-.4.2 0 0 .3-.1.3 0 .1.2.1.2.3.3.1.3-.3.6-.3.1.1.1.3.2.3-.1.1-.1.3-.4.3.3.4-.1.5.1.8.3-.1.5-.4.7-.7l-.3-.3c.1-.1.7.1 1.1 0 .1.1 0 .1 0 .3.4-.3.5.3 1 .2.1-.3-.5-.4-.2-.5.2 0 .3.5.4-.1.2.2.4 0 .7 0 0 .2.1.4.4.4.3-.1 0-.3.2-.5.2 0 .3.2.6.1 0 .9 1.2.2 2 .5.1-.2.2-1 .8-1 .1.6-.1.5-.1 1 .4.1.6.3 1 .4-.4-.4.1-.6.2-1 .3.1.2.6.5.7.2-.1.3-.5.7-.5 0 .2 0 .4-.1.5.1.2.7 0 .8.2.1 0 .1-.2.1-.3-.2 0-.2-.2-.5-.3.2-.2.2-.5.6-.6.1.3.3.5 0 .8.1-.1.3-.1.5-.2 0-.3-.2-.2 0-.4.2 0 .4 0 .5.1.1-.3-.2-.3-.1-.6.1.1.2.1.4.1 0 .1 0 .4.1.4-.1.2-.4.1-.6.2-.1.2.3.3-.1.3.1.2.2.3.4.4.3.1.1-.4.5-.3.3.3.8 0 1.1.4.1.1.1.2.2.5-.1 0-.2.1-.3.1.1.2.1.5.5.5.1 0 .1-.1.2-.1-.1-.3-.3-.3-.1-.7-.2-.1-.3-.2-.5-.3.2-.6.7-.9 1.3-1-.1 1.1-.3.8.5 1.4.6 0 .2-.6.6-.8 0-.2-.3-.2-.4-.3.2-.1.1-.5.5-.5-.3 1.2 1.4.8 2.3 1.3 0 .1-.1.1-.2.1-.1.3.4-.1.4.2.2-.5.7-.6 1.4-.9 0 .1-.2.1-.2.3.1.2.3-.1.6.1.2-.3.4-.6.9-.4-.2.1-.3.3-.3.7.7 0 .6-.7 1.1-.8 0 .1 0 .1-.1.1-.2.2.2.7.5.8.3 0 .2-.4 0-.5.4-.4.7.2 1.1.1-.1.3.1.5.3.8.1-.5.3-.3.7-.6-.1-.1-.3-.1-.4-.3 0-.3.3.2.3-.1.1.3.3.4.8.4.2 0-.1-.2 0-.4.5-.1 1-.1 1.2.2 0 .3-.4.1-.3.4.2.1 1-.4 1.2.3.5-.1.6 0 .9-.1.1-.5-.4-.4-.4-.8.4-.2.7.2 1.2 0 0 .2.1.3.1.4.6-.1 1.2.4 1.9 0 0 .5.6.4.6.9-.1.1-.3 0-.3.3.4.3.5-.3.7-.5 0-.2-.4-.1-.3-.4h.4c-.2-.2 0-.7.1-.9.8.1 1.1.4 1.5-.4.3.6.7 1.4 1.7 1.5v.3c.2 0 .2-.2.5-.1.2-.3-.4-.3-.1-.4 0-.2-.4 0-.4.1-.5-.4.8-.5.2-.7.1-.3.5 0 .7 0-.2.3.2.4.3.7 1-.2 1.3-.6 2-.9.1.2.2.3.2.6.2 0 .2-.1.4-.1.1.1.1.3 0 .5.1-.1.2-.1.4-.1 0 .4-.7 0-.7.4 0 .1.1.1.1.2.3.1.1-.3.4-.2.1.3-.3.1-.3.4.5-.1.6-.6 1-.8.3 0 .1.4.5.4.1.3-.3.1-.2.4.5 0 .4-.9 1.6-.7-.1.3-.2.4 0 .7.3.1.2-.2.4-.2 0-.2-.4-.3-.2-.5.3.2.6 0 .7-.3.4.1.5.6.5 1.1.3-.1.2-.7.5-.9.2 0 .3.2.5.4.2 0 0-.4-.1-.4.6-.1 1.5.5 1.9.6.3-.2.4-.3.3-.8.3.1.5.3.9.4-.1.1-.3.7.1.6.3 0-.2-.3.1-.3.3-.1.6.7 1.2.6 0-.2.1-.5-.2-.4.1-.2.5 0 .5.3.3 0 .6-.6.7 0 .3-.3-.1-.7-.1-.9.4.1.2.7.8.6-.3.3.4.2.2.8.3.1.3-.1.4-.3.3.2.6.6 1 .4 0 .4.4.5.6.8.2 0 .3-.5.1-.6.1-.1.7.4.8-.1.3.2.5.4.8.5 0 .1-.2.1-.2.3.2.1.2.3.4.4.3-.1 0-.5.2-.6.4 0 0 .1.1.4.4.2.4-.4.6-.2-.3.3-.2.4-.2.9.4-.2.7-.7 1.2-.8.2 0 .1.5 0 .6.3 0 .9.7.8 1.1.3.3.7-.1.9-.2.1-.6-.5-.5-.6-.9-.2 0-.2.2-.5.1-.1-.3-.1-.2 0-.5.4.2.9.5 1.2 0 .6.3.3 1.6 1.2 1.6-.1-.6-.2-.9 0-1.4.3 0 .2.4.5.5-.4.6-.6 1.3.5 1.7.1-.1-.2-.4-.3-.6.2-.1 1.3-.3 1.8.1.2-.1.3-.3.6-.3.3.4 0 .5.1.8.2 0 .1-.4.5-.3-.2.1-.2.5-.2.8.4.1.4-.3.7-.5.4 0 .7.5.6.8.4 0 .6-.3.8-.4.2.4-.4.4-.6.9.4.3.5-.5.8.1.1-.2-.1-.6-.1-.8.3-.2.9.4 1.2-.1 0 .1.1.1.2.1-.1.9.7.9.9 1.4 0 .2-.3.1-.4.2 0 .4.5 0 .6.2.3 0 0-.5.4-.4 0 .1-.1.2-.1.3.2-.1.7.1.6-.2.3 0 .3.3.6.4.3 0 .3-.2.4-.4.5.3.8 1.1.3 1.4-.1.4.4.2.5.5.2 0 .1-.3.2-.4.1.1.2.1.4.1 0 .3 0 .5.4.5 0-.4-.4-.4-.3-.9.3-.1.5-.3.6-.7.1.1.2.1.4.1-.2.2.1.8-.4.5 0 .4.2.5-.3.5 0 .3.5.2.2.5.4 0 .6-.2.7.2.2 0 .2-.1.4-.1v-.6c.3-.1.5.8.6.3.5.2-.2.5-.3.8.4 0 .7.4 1.2.6-.1-.3-.5-.3-.7-.5.1-.1.1-.2.3-.3.3 0 .3.2.4.5.2 0 .1-.3.2-.4.3.3.6-.4.7.2-.3-.1-.2-.1-.5 0v.4c.1.1.2.1.3.2.2 0 .1-.4.4-.3.3.1.4.4.8.4 0 .2-.1.2-.3.2-.1.3.1.3.2.5.3-.1.5-.3.3-.7.2 0 .4.3.8.1.1.1.2.4.4.5.5.1.3-.4.7-.4.1.4.5.6.9.4.1.1.1.5.1.8-.1 0-.4 0-.4.1.1.3.2-.1.5 0 .1.4.4.5.5.9.3.1.3-.1.6-.1 0 .3.2.4.5.5.2-.1.1-.2.1-.5.4 0 .3.4.6.5.2 0-.1-.3.1-.4.2 0 .1.3.3.3.3 0 .2-.4.6-.4.1.2.2.3.2.6-.4 0-.6.1-.8.2.3.5.7 0 1-.1 0 .3.1.4.3.5.1 0 .2-.1.2-.3-.1-.1-.3 0-.3-.4.1 0 .2 0 .2-.1.4.1.7.3 1.1.4-.1.6.3.4.6.8 0 .2-.3.2-.6.2-.1.6.5.5.4 1.1.3-.4.3-.3.8-.3.1-.4-.2-.5-.2-.8.3.1.4.4.7.5-.3.2-.1.9-.7.9.3.1.3.4.7.5.3-.1.3-.3.2-.6.2.2.9.2.6.6.3 0 .1-.5.5-.5.1.2-.1.6.1.6-.1.1-.3.2-.3.4-.3.1-.2-.2-.4-.2 0 .2.3.1.2.4.4-.1.8-.3.8-.8.3.1.3-.1.6-.1 0 .5-.1.7-.1.8-.1.3-.2-.3-.5-.1-.1.1-.1.2-.2.3.2.3.3 0 .6 0 0 .4-.5.2-.5.5.1.2.6 0 .7.2 0-.2-.2-.3 0-.5.3.1.5 0 .7.1.1.3-.2.2-.4.2.4.5.9.5 1.2.8-.2.1-.6.2-.8.1.2.5.5.5 1.1.5 0 .2 0 .4-.2.5-.3-.1-.3-.3-.7-.3 0 .3.2.3.2.6.4-.3.8.9 1.2.3.3.1.5.5.3.8-.3-.2-.3-.1-.7 0 0-.3-.4-.1-.3-.6-.2 0-.2.1-.4.1.2.2 0 .3 0 .6.2.3.6-.1.8.1 0 .3-.3.2-.5.4.1.1.2.1.3.2.2 0 .1-.3.2-.4.3.1.5.3.5.7.5 0 .5.5 1 .1.1.2.6.5.8.3.2.2.5.4.5.8-.5 0-.3.6-.7.8 0 .4.7.2.7.7.2 0 .1-.3.4-.2.3.2.1.9.3 1.2-.3.1-.2-.3-.5-.2-.1 0-.1.2-.1.4.1.3.7.1.8.5.5-.2 0-.8.1-1 .3 0 .4.1.8.3-.9.9.8 1.3.3 2.4-.3-.3-.5-.7-.8-.9-.1-.3.4.1.4-.2-.3-.3-.4.2-.8.1 0 .4-.1.3 0 .6.5.2 1 .4 1.1.9.2 0 .4 0 .5-.2.5.3.8.2 1 .9-.1.6-.8 0-.9.2.5.2.2.7 0 .9-.1-.2-.6 0-.8-.2-.1.3.3.4.1 1-.2 0-.4.1-.7.1v.2c.2.3.4-.1.7.1.1-.5.4-.2.8-.6.4 0-.2.7.3.5.2.1-.2.5-.4.5-.1-.2-.2-.3-.4-.4-.1 0-.1.1-.2.1.1.4.4.6.9.7-.3.6.1 1.1.1 1.5-.1 0-.2 0-.2.1-.2 0-.1-.3-.3-.3-.3.1-.6.2-.8.5.3-.1.8-.2 1.1 0 0 .4 0 .7-.5.6.1.2.2.4.4.5-.4.3-1 .7-1.4.3-.3 0-.4.2-.3.5.4-.2.6.3 1 .4-.2.5.1.6.3.9 0 .3-.4.4-.7.2.1.2.3.4.1.6-.3-.6-.7 0-1.3-.1 0 .3 0 .5.2.6 0-.7.7.1.8-.6.3 0 .2.5 0 .6.1.3.2-.1.4 0 .1.4-.4 0-.3.4-.2 0-.1-.4-.4-.4-.3.2-.6.4-1 .5 0 .4.4.4.7.5.2.3-.3.4.1.6-.1.1-.3.1-.5.2 0 .2.1.3.3.3 0 .2-.4.2-.5.4-.3 0-.3-.1-.3-.4-.4.1-1 .1-1 .6 0 .2.3.1.4.2-.4.3-.3 1.1-.7 1.4 0 .2.4-.1.3.3-.3 0-.2-.2-.4 0 0 .2.1.3.2.4-.1.1-.3 0-.6.1 0-.2-.1-.2-.2-.3-.3 0-.3.2-.3.5-.5-.1.1-.7-.5-.7-.1.2.2.8.5.9-.1.4-.6.2-.7.6-.3 0-.3-.3-.5-.4-.3.1.2.4.2.6.3.1.2-.1.5-.1.1.3.4.3.5.6-.6-.2-.6.5-1.2.6 0-.3.2-.2 0-.4-.5.3.2.9.6.9.1.3 0 .6-.2.8-.3-.1-.3 0-.8 0 0-.3-.4-.6 0-.8 0-.5-.4-.1-.8-.2 0-.2.2-.2.4-.2-.1-.1-.1-.3-.4-.3-.1.2-.2.3-.3.5 0 .5.5.3.7.4.1.3 0 .3-.1.6-.1-.3-.6-.3-.8-.5-.1 0-.1.1-.2.1.2.5.6.3.9 1-.2.3-.4 0-.6-.2-.3 0-.3.4-.5.6-.2 0-.1-.4-.3-.5-.3 0-.3.2-.6.3.2.4.2.8.2 1-.2.3-.3-.3-.5 0 0 .2.1.3.3.4-.1.3-.3-.1-.5-.1.2.7-.7.5-.4 1.1h-.6c0 .3.3.2.3.6-.6 0-.6-.8-1-.7.1-.2.3-.4.1-.6-.1 0-.1.2-.3.2 0 .9.7 1.6.4 2.3 0 .2.4 0 .4.3-.5.8-1.6.1-1.9-.8-.4.3-.1.6 0 .9-.3.4-1.1.1-1.1-.4-.3-.1-.2.2-.3.3-.4-.3-.6-.1-.8-.5-.1 0-.1.1-.2.1 0 .2.3.5.4.3.1.1-.1.6-.4.6.1.3.1.2 0 .5.3.1.4.5.8.6.2 0 .3-.2.5-.3.3 0-.1.5.2.5-.4.2-1.2.1-1.6.3-.2-.2-.2-.3-.1-.6-.5.1-.2.7.2.8 0 .3-.3.4-.5.7-.7 0-1-.8-1.7-.5.3.2.6.6.4.9 0 .1.2.1.3.1.2 0-.1-.2 0-.5.2 0 .2-.1.4-.1 0 .5.2.8.3 1.3-.2 0-.2.1-.3.2-.2-.1-.3-.2-.3-.6-.2 0-.3.1-.4.3-.2-.1-.3-.3-.4-.6.1.1.2.1.2-.1-.1-.2-.4.2-.4-.3-.1.1-.4.1-.4.5-.1-.4-.5 0-.5-.6-.2.1-.1.5-.4.6 0 .3.5.2.6 0 .1.2 0 .5.5.3-.2.3.2.5-.3.6-.2-.2 0-.1 0-.4-.4.1-.5.5-.9.6 0 .4.3 0 .4.2.1.3-.3.1-.2.4-.3.1-.2-.2-.3-.3-.2.3-.4.5-.7.2v.5c-.2-.4-.3.1-.7.1-.3-.5-.6-.1-.9.1.2-.2.4-.5.5-.8.3.1.3.4.8.3-.1-.3-.6-.3-.6-.8-.3.3-.7.3-.9.8.1.2.1-.1.3.1-.2.3-.4.3-.7.4.3.3-.3.3 0 .5-.3.2-.5.5-.9.6 0-.3-.5-.9-.7-.3-.2-.2.2-.6 0-.9-.5 0-.4.5-.7.7.1.4.3 0 .5.2-.1.1-.1.3-.4.3 0-.2 0-.4-.3-.4s-.3.3-.6.4c.1.1.5.1.7.3-.2.3-.5.5-1 .5-.1.4 0 .2.1.6-.2 0-.7.6-.8.1.1 0 .1 0 .1.1.1-.1.2-.5-.1-.8.1-.2.5 0 .6.1.2-.1.3-.3.3-.7-.6.3-.8.3-1.5.8-.1-.1-.4-.6-.1-.8-.2-.1-.2-.4-.4-.5.1.6-.2 1.6.6 1.4-.2.4-.8-.1-.9.5 0-.5-.6-.4-.9-.6l.3-.3c.1-.1-.4-.1-.4 0-.3-.1.1-.3 0-.5s-.4.2-.7.2c-.1-.1-.1-.4-.3-.4-.1.3-.4.7-.1.9-.2.2-.5.3-.6 0 .1-.3.3.1.4-.1-.2-.2-.3-.3-.7-.4-.2 0-.3.1-.4.3.1.3.6.3.7.8.5 0 .7-.2 1-.3.2.4 1.5.6.8 1 .1-.4-.4-.2-.8-.7-.3 0 0 .5-.4.4-.2-.2-.1-.2 0-.4-.3 0-.3.3-.5.3.4.6.1.8.2 1.4-.4.1-.3.1-.7 0-.1-.4.1-.9-.4-1.1-.2.2 0 .2-.1.6-.4-.6-.8.5-1.2-.1-.1.1-.2.2-.2.4.1.3.6.1.6.5-1.3 0-.1-1.9.8-1.5.1-.2.1-.6.2-.9 0-.2-.6-.5-.6-.1-.1 0-.1-.2-.1-.4-.4 0 0 .4-.2.4-.8 0-.7-1-1.6-.9 0-.2 0-.4-.1-.5-.2.1 0 1.1-.7.7.1.2.1.5.4.5.1-.1.1-.3.3-.4.1.2.4.2.7.3-.2.2-.3.4-.3.7 0 .2.3.1.4.2.1.7-.5.3-.3.8-.3 0-.3.2-.6.2.3-.5-.2-.7-.2-1.2-.2 0-.3.1-.4.1-.1.4.2.6 0 .8-.5.1-.4-.4-.8-.6-.4.5-1.3-.1-1.4.6-.1-.1-.3-.1-.3 0-.3-.1-.3-.4-.7-.4 0 .3.3.4.4.6-.2.2-.6-.1-.4.4-.2-.1-.3 0-.6-.2.1-.6-.3-.8-.6-.9.2-.2-.1-.4.1-.6-.1-.1-.3-.2-.4-.3-.2.1-.1.2-.1.5-.2.1-.3.2-.6.2 0-.6-.7-.5-.8-.9-.1.1 0 .2-.1.5 0 .1.3.4.4.2.1.1.3.4.1.6-.2-.1-.3-.3-.4-.5-.3 0-.9.1-.9-.2-.1.1-.3.1-.3.4-.2-.1-.6-.9-.1-.9-.3-.1-.5-.3-.6-.7-.2.2.2.5.1.8-.4 0-.3-.5-.7-.6-.6.1-.3.5-.5.9.3.1.6-.3.4-.4.4-.3.1.3.3.6-.3.2-.4 0-.7.4 0 .3.3.2.4 0 .3.2-.2.4-.5.4 0-.2-.1-.4-.4-.4 0-.6-.3-.8-.7-1-.1.6-.6.7-1 .8-.1.6.4.2.5.5-.3.2-.5.3-1 .3.2-.5-.3-.4-.3-.7.2 0 .2.2.5.1.3-.3-.1-.5-.2-.8-.3-.1-.3.2-.6.1-.1.3.2.2.3.3 0 .2-.4.1-.4.4.3.1.1.6.5.6 0 .2-.2.3-.1.6-.3-.1 0-.3-.2-.5-.4.1-.7.2-1 .4-.1-.1-.1-.2-.2-.3-.3.3-.7.5-.9.8-.9.1-1.4-.4-1.1-1.1-1 .8-2.1-.2-2.3-1.4-.4-.1-.4.2-.6.4-.7 0 0-.8-.6-.9-.1.5-.3.9-.8 1-.1-.1-.1-.3 0-.5-.1-.2-.7-.1-.6.3-.4-.1 0-.2 0-.5-.2-.3-.7 0-.7.3-.1-.1-.4-.1-.4-.4.2-.1.4 0 .5-.2-.3-.3-.6.2-.9.2.1-.3 0-.6.1-.9-.2 0-.3.1-.4.3-.2-.1-.2-.3-.1-.5-.2.2-.3-.1-.5.1-.1.5.5.4.4.9-.4.3-.7-.2-.9-.4-.7-.1-.4.8-.8.9-.3-.3-.6-.6-1.1-.7-.4 0-.1.9 0 .7.2.2-.3.4-.5.5-.5-.8-.9-1.7-1.3-2.5-.2 0-.2.2-.5.1.1.1.3.2.3.5-.1.1-.3.1-.5.1 0-.3-.2-.4-.3-.7-.1.1-.1.6-.2.8-.3 0-.3-.3-.5-.5-.3 0-.1.4-.3.4-.4 0-.2-.3-.2-.6-.3-.1-.3.1-.4.3 0 .3.1.3.4.3 0 .2-.2.2-.2.5-.4-.1-.5-.4-.9-.5.1-.2.3-.2.5-.3-.1-.4-.6-.2-.6.3-.3-.1-.2-.4-.6-.4-.2.1 0 .4-.2.6-.1-.1-.5.1-.5-.1-.2 0-.2.3-.2.6-.3-.3-.3.1-.4.3-.2 0-.2-.3-.5-.2.3-.5.9-.7 1.2-1.2-.2-.2-.6-.2-.8-.4 0-.2.1-.3.2-.5-.4-.1-.2-.4-.3-.7h-.4c-.3.3 0 .5-.5.2-.3.5.5.8.6 1.2-.4.2-.6.1-1 .2.6-.6-.1-1.1-.4-1.6-.4.3-.2 1.1-.8.9-.1-.4.2-.3.3-.5-.2-.1-.7.2-.9.3-.2-.2-.3-.6-.6-.7-.3 0-.1.4-.3.5.3.3.5.7.8.9-.1.3-.4-.1-.4.5 0 .2.3 0 .5.1-.2.2 0 .3 0 .6-.4 0-.7 0-.9-.2.1-.1.1 0 .4-.1-.2-.8-1.2-1.1-1.7-.6-.4 0 .1-.2-.2-.4-.3.3-.6-.3-1 0 0-.3.3-.2.5-.4-.7-.6-1.2.3-2-.1 0 .5.6.5.7.9.1-.1.1-.4.3-.5.2 0 .4.5.6.2.2 0 0 .3.1.5-.1 0-.3 0-.3.1-.2-.1 0-.2 0-.3-.9.4-1.9-.7-2.1-1.3-.3-.2-.1.4-.1.4-.2.1 0-.2-.3-.3-.1 0-1 .1-1.1.1-.7.2-.5.6-1.1.7 0-.2.1-.3.3-.3-.1-.2-.2-.4-.4-.5-.4 0-.3.5-.8.5 0-.2.1-.4.3-.6-1-.5-.6 1.2-1.6.9.3-.5-.4-.8.2-1.3.1.1.3.1.5 0-.4-.3-.9.1-1.2.1 0-.1 0-.3-.1-.3.1-.3.4-.2.5-.5-.3-.5-.8.3-1.1-.2-.1 0-.1.1-.2.1 0 .2.1.3.2.5.1.1.5-.1.5.1 0 .4-.6.1-.5.7-.3-.5-1.3.6-1.5-.3.2-.1.6-.1.8-.3 0-.3-.3-.3-.3-.5-.5.1-.7.4-.8.8-.5-.5-1.3-.4-1.9-.9-.1.1.1 1.1-.4.9-.4.1.1-.4-.4-.4.1-.2.3-.2.4-.4l-.3-.6c-.3 0-.4.3-.6.4-.2 0-.2-.3-.5-.3-.1 0-.2.1-.2.2.1.3.4.1.6.1-.1.5-1.5.6-1.5-.1.2-.2.4 0 .7 0-.2-.2-.5-.4-.9-.6-.2.1-.2.4-.3.6-.4-.1-.4.1-.8.1-.1-.3-.1-.4.1-.6-.1-.3-.5-.2-.7-.5 0 .1 0 .3-.5.2.1.6.6.8.6 1.5-.1.1-.4 0-.4.2-.3-.1.3-.2.1-.5-.5 0-.3.3-.3.7-.3-.2-.6-.4-.9-.7.1-.2.5-.1.5-.5-.5-.1-.9-.6-1.6-.3v-.5c.2 0 .4-.1.6-.2 0-.6-1.1-.4-.9.3-.3.1-.5.3-.8.4 0-.3.3-.2.3-.6-.7-.6-1.2.2-1.7.2-.1.5.4.3.4.7-.5.1-.3-.4-.7-.4-.1-.3.1-.3.1-.6-.1-.2-.6-.1-.7 0 0 .3.2.3.3.6-.3-.4-.5 0-.8.2-.3-.1-.6-.3-.8-.7-.1 0-.1.2-.1.3-.2 0-.5 0-.6-.1.5-.8-.1-1.5-.8-.8.1.3.4 0 .6 0 0 .2.2.2.2.5-.4 0-.7.3-.9.6-.2-.4-.1-1.2-.7-1.5-.2-.1-.4.3-.2.4-.1.1-.6 0-.8.1.2.4.8.6 1.1.9 0 .3 0 1.1-.5.7.1-.1.3-.2.3-.4 0-.1-.1-.1-.1-.2-.3-.1-.2.3-.5.2-.2-.3-.7-.7-.6-1-.1.1-.3.2-.4.3.5.2-.4 0-.7.3-.5-.1-.4-.4-.5-.7-.4.2-.7.1-1.1.1.2.2-.1.4.4.7.2 0 .3-.1.3-.3.4.2-.1.3 0 .8-.6-.1-.8-.5-1-1-.6 0-.9 0-.8.8-.3 0-.3-.4-.5-.7-.3-.1-.2.1-.5.1 0 .2.3.2.2.5-.8-.2-.1-1.3-.8-1.6-.1.1-.2.3-.4.3.1.2.1.4.1.8-.1 0-.1-.1-.3-.1.2.5-.2.3-.2.8-.3-.1-.6.2-1.2.1 0-.4.1-.3 0-.6.3.1.7-.1.8.4.3 0 .1-.4.3-.6-1.4-.6-1.5.7-2.9.8-.3-.7 1-.6.8-1.6-.4.4-.7.6-.9 1.3-.5.1-.3-.4-.7-.4.1-.3.2.1.5 0 .3-.3-.1-.8-.3-.9-.5.3-.9.2-1.4 0 0 .3.1.2.4.2-.2.2-.1.4-.2.5-.3.1-.3-.3-.3-.6-.5 0-.7.4-1.1.5 0-.1-.1-.1-.2-.1.4-.8-1.4-.7-1.1.1-.3 0-.5-.1-.6-.3.1-.4.5-.3.3-.8.2 0 .2.3.4.4.3.1.1-.3.3-.4-.2-.1-.3-.4-.5-.5-.1.2-.3.4-.6.2-.2.1-.2.4-.2.8-.3-.2-.4-.1-.4.4-.5-.5-.5.5-.3.4-.5.3-.3-.1-.5-.8-.3 0-.8.2-.7-.3-.4.8-1.6.6-2.3 1-.3-.1-.5-.2-.5-.7.1-.1.2-.1.4-.1 0-.2-.2-.2-.2-.5-.1.1-.2.3-.4.1-.1-.3.3-.1.3-.4-.3-.3-.4.4-.9.2-.2-.3.2-.3 0-.6-.3 0-.5.5-.4.7.1.1.5.1.7.3-.1.4 0 .6-.2.8-.3-.1-.2-.3-.6-.1-.2-.6-.8-.6-1.3-.4.1.3.5.3.5.8-.3.2-.7-.2-1-.3-.2-.3.1-.4-.2-.6-.1.1-.2.3-.2.6-.2 0-.2-.1-.4-.1 0-.3.3-.3.3-.5-.1-.3-.5-.3-.8-.4-.1.3-.5.5-.3.8-.4 0-.6-.3-.6-.8h-.4c-.2.3-.4.6-.7.8.1.3.4.4.5.7.1-.1.3-.1.5-.1v.5c-.7-.4-1.2-.5-1.9-.9 0-.3.4-.2.7-.4-.1-.3-.7-.6-.1-.8-.3-.1-.7.4-.8.7-.2 0-.2-.2-.5-.2 0 .4.4.4.6.6-.4.1-.4.5-.3.8-.2.1-.9.2-1 .1 0-.4.3-.3.4-.6.1-.4-.5-.2-.4-.7-.5.2-.5-.3-.7-.7-.1 0-.1.1-.3.1.3.3-.2.9.2.9-.1.3-.4.5-.8.5 0-.2-.1-.2-.2-.2-.1-.3.1-.3.1-.6-.4-.1-.3.2-.6.2 0-.5-.3-.2-.5-.1-.1-.5-.7-.7-.5-1.2-.4.2-.3 1.2-1 .9-.1.3-.1.2 0 .5.4-.1.7-.2.8-.7.1.3.6.7.5.9-.2-.1-.3-.3-.4-.5-.3 0-.2.3-.5.3.4.4.4.9 1 1.1-.4.7-1.7.6-1.6-.5-.1-.1-.3-.2-.4-.4.1-.3 0-.9.4-.9 0-.3-.2-.3-.3-.6-.3 0-.3.3-.4.5h-.5c0-.1.1-.2.1-.3-.3-.1-.2.1-.4.2-.4 0-.2-.5-.5-.5-.2 0-.3.1-.4.3.1.2 0 .3.3.4-.4.3 0 .4-.2.8-.7-.3-.5-1-1-1.6-.4.2 0 .6-.1 1-.3 0-.4-.3-.4-.7-.4.1-.2.4-.2.8-.3 0-.5-.2-.6.2-.2-.2-.5-.4-.2-.7-.3-.2-.7-.1-.7.4 0 .1.2.1.4.1 0 .5 0 1-.5 1-.2-.2.3-.6.1-.9-.3-.1-.1.3-.5.2 0-.1.1-.1.2-.1-.1-.2-.3-.5-.1-.8 0-.1-.2-.1-.3-.1-.2 0 0 .3-.1.5-.4-.2-.8.1-.9.4.1.3.3.3.6.2.1.1.1.4.3.4-.2.2-.8-.1-1.1-.3.4-.5 0-.8-.2-1.2h-.7c-.3 0 .1.6-.3.5.4-.6-.9-1.4-1.1-.8-.2-.1-.3-.2-.3-.6-.3-.1-.3.1-.5.2 0 .3 0 .5.1.8-.3-.3-.4.1-.5.3-.3-.1-.4.1-.8 0 .2-.3.3-.7.3-.9.2.2.4 0 .7 0 0-.2-.1-.3-.1-.4-.7-.1-.7.5-.9.8-.3-.1-.4-.2-.3.2-.3-.1-.5-.2-.7-.4-.1 0 0 .1 0 .3-.4 0-.5-.1-.8.1-.1-.3-.1-.7-.5-.8-.1.3.3.5.1.9-.1-.1-.2-.1-.4-.1 0-.1.1-.1.2-.1-.1-.3-.2-.5-.5-.6.5-.3.1-.3-.2-.6-.3.2.3.7-.1.8 0 .1.1 0 .3 0-.2.5.1.4.1.8-.4 0-.6.2-.6.6-.2.1-.3-.1-.5.2 0-.3 0-.7-.1-1 .3 0 .4.3.7.3 0-.4-.4-.6-.5-.9-.4.4-.8.8-1.2 1.1-.3-.4.1-.5.4-.5-.1-.5-1.2 0-1.2-.6-.7.1-.9.1-1.2.5-.5-.1-.4-.5-.4-.9-.3.2-.3.7-.5 1-.3 0-.4.2-.8.2.3-.2-.1-.5-.3-.8-.3.1.2.2.1.5-.2.1-.2.2-.5.1.2-.4 0-.6-.3-.8-.3.2-.6.8-.4 1.2-.2.3-.4-.1-.7-.1 0-.2.2-.2.1-.5-.3-.4-1.2-.2-1.3-.9h.6c0-.3-.3-.3-.4-.5-.2.1-.2.4-.6.3.1.5.2.9.6 1 0 .3 0 .5-.3.5.4-.5-.6-.4-.3-.9-.3.2-.5-.1-.8.1-.1.4.4.2.3.7-.4 0-.4.1-.7-.1 0-.3.1-.5.3-.6-.1-.2-.1-.5-.5-.4-.2 0-.1.4-.3.5-.2 0-.4-.1-.7-.1.2-.2-.1-.3-.2-.5-.4.1.1.2 0 .6-.5-.1-.7-.4-1.1-.6 0-.2.3-.2.2-.5-.5.3-1 .2-.9 1-.2-.1-.3-.4-.5-.6-.3.1-.4.3-.7.4 0 .2.3-.1.4.1 0 .3-.4.2-.3.6-.3.1-.2-.1-.5-.1.3-.5-.2-.5-.4-.5.1-.3.3-.1.6-.3 0-.2-.1-.3-.2-.4.1.3-1.2.2-.9-.5-.1 0-.1.1-.3.1.1.2 0 .6.4.6-.2.2.1.8-.4.8 0-.3-.2-.4 0-.8 0-.2-.2.1-.4 0-.1-.5 0-.4 0-.9-.3 0-.3.3-.5.4 0 .3.2.4.4.5-.1.3-.1.6-.3.8-.4-.2-.7-.1-1.1-.1.1-.2.2-.3.4-.5-.2-.5-1-.4-.9-1.1-.8.2-.5 0-1.2-.1 0 .6.5.6 1 .7 0 .3-.1.5-.4.5.1.3.6.3.9.4-.6.2-.3.4-.9.7 0 .2.3.4-.1.4 0-.4.2-.7-.2-.8 0-.1.1 0 .3 0 0-.4-.4-.2-.5-.2-.3-.1.1-.3 0-.6 0-.1-.5.1-.7-.1-.4.4.1.6.1 1.1-.3.1-.3 0-.6-.1.3-.1.1-.2.1-.6-.3-.1-.1.3-.4.2-.3-.4.1-1-.8-.7-.1.3-.4.4-.7.6 0-.2 0-.4-.1-.5-.5.1-.6.1-.8.3-.4-.1 0-.3-.2-.5-.4.1-.3.6 0 .8 0 .5-.5.6-.8.3 0-.1.1-.2.2-.4-.4-.3-.5-.7-.8-1.1h-.5c0 .4.3.4.3.8-.1 0-.3 0-.3.1-.1-.2 0-.2-.4-.1 0-.4.2-.3.5-.2-.2-.2-.1-.3-.2-.5h-.5v-.4c-.1 0-.4 0-.4.1l-.3-.6c-.3.2.2.4.2.8-.2 0-.2.1-.3.2 0 .1.1.2.1.3.3-.3.4.3.2.5.2.2.8.4.5.8-.4.1-.2-.3-.7-.2 0-.5-.2-.9-.7-.9 0-.3.2-.4.4-.5-.1-.4-.8-.4-.8.1-.2 0-.4-.1-.5-.3-.3.1-.5.5-.8.1-.1 0-.1.1-.2.1.1.2 0 .4.2.5 0 .2-.3.1-.3.3-.1-.5-.5-.8-.7-1.4-.5.3-1.6 0-2-.2-.3.3.3.5.5.8-.1.1-.1.4-.3.5-.2-.4-.7-.5-.7-1-.7.2-.5-.6-1.1-.5-.2.2-.2.5-.7.4-.1.3.1.2.1.5-.2 0-.3 0-.3-.2-.4.1-.1.4 0 .6-.3-.1-.9-.5-.5-.8-.1 0-.2.1-.3.1 0 .5.5 1.2-.2 1.4-.2-.4-.4-1.4.1-1.6-.3-.2-.6-.8-.4-1.3-.1-.2-.7-.1-.8 0 .1.1 0 .4.2.4-.2.4-.1-.4-.4-.3-.2 0-.3.1-.4.1-.1.3.4.1.3.5-.1 0-.1.1-.1.2-.4 0-.3-.6-.7-.7-.6.4.3.6.2 1.1-.2 0-.2-.1-.1-.1 0-.2-.3.1-.3.2-.3-.1-.3-.5-.7-.3 0-.5 0-.7-.6-.8-.1-.3.1-.4.1-.7-.3.4-.9.5-.9 1.1-.6-.1-.7-.9-1.3-1-.1.1-.1.2-.2.3-.2 0 0-.4-.3-.4-.5.1.2.7 0 .8-.2.2-.3 0-.3-.3-.1 0 0 .3-.2.3 0 .1.2.1.3.1.1.3-.2.3-.1.6-.2-.3-.3-.1-.8-.1.1.2 0 .6.3.7-.1.2-.2.3-.6.3-.1-.4.1-.5.1-.9-.1-.1-.2-.1-.3-.2-.4.3 0 1-.1 1.3-.3-.3-.3-.3-.7-.4v-.1h.1c.1 0 .1.1.1 0h-.1-.1c-.8.2-1.3-1.1-1.9-1.3.1.1-.7.3-.8.6-.6 0-.6-.5-.9-.4.2-.2-.1-.2 0-.6-.3.1-.4.4-.6.8-.2-.1-.6.1-.6-.1 0-.3.6-.1.5-.6-.4-.1-.4.2-.5.4-.3-.3-.7-.4-1.1-.2-.2-.4-.2-.7-.1-.9-.3.1-.6.3-.8.5-.1-.1 0-.1-.1-.4-.2 0-.4.1-.6.2 0 .3.2.5.1.9-.4-.1-.2-.7-.9-.5 0-.5-.2-.7-.6-1-.1.6.4.6-.1 1.2-.2.1-.4-.2-.4 0-.1-.2 0-.3-.3-.3 0-.2.4.1.3-.3-.1-.3-.2 0-.6-.1 0-.4.3-.5.3-.8 0-.1-.2-.1-.3-.1-.2.2-.2.5-.2.9-.3.1-.4.2-.7.3-.1-.1-.3-.2-.4-.3 0 .1.1.9-.5.8.1-.2.3-.3.4-.6 0-.1-.1 0-.3 0-.2-.5.5-.2.4-.7-.2-.2-.8-.3-.8.1 0 .3.3.3.2.8-.2 0-.2-.1-.4-.1-.1-.3 0-.3.1-.5-.1-.3-.2.3-.5.1 0-.1 0-.3-.1-.3.1-.3.3.1.5-.3-.3-.3-.9-.3-1.3-.5.2-.2 0-.1 0-.4-.3 0-.3.2-.3.5-.1-.1-.5-.1-.5.1.2.1.6 0 .8.2 0 .2-.3.2-.6.2.1.3.1.5.5.5.3-.1-.1-.2 0-.5.5.3.4.8.7 1.4-.2-.1-.4-.1-.3-.5-.5.2-.4-.1-.8-.2-.2.2-.2.4-.3.5-.4 0 .1-.4 0-.7-.2-.1-.5-.1-.5-.5.2 0 .2.1.3.2.1-.1.2-.2.2-.4-.1-.2-.4-.2-.5-.5-.3.2-.3.7-.4 1-.2 0-.1-.4-.3-.4 0-.1.2-.1.2-.2-.1-.1-.3-.2-.4-.3-.1.2 0 .6.2.7 0 .2-.5.7.1.7v.5c-.2-.1-.3-.2-.3-.5-.4 0-.8-.2-1.1-.5.1.2.1.6-.2 1-.2 0 .1-.4-.3-.4-.1-.3.1-.2.1-.5 0-.1-.1-.1-.1-.2-.5.1-.6 0-.9.3v-.6c.2-.1.5-.1.7-.3-.1-.2-.2-.5-.6-.5-.1.1 0 .4 0 .7-.2 0-.1-.4-.3-.5-.1 0-.1.2-.1.3-.1-.1-.1-.3-.3-.4-.3.2 0 .3-.1.8-.3 0-.3.1-.6.3-.1-.1-.1-.2-.1-.4-.3.1-.2.1-.5 0-.1.3-.6.2-.6.6 0 .3.5-.1.4.3-.2-.2-.2.1-.6 0 .3-.3-.3-.6 0-.9-.1-.1-.6-.2-.8.1-.2-.2-.2-.6-.6-.4.4-.4-.5-.8-.7-.7-.3-.4-.6-.7-1.2-.6 0 .4.2.7.6.7-.2.7-.7 0-1.3.3.1-.1.1-.2.3-.3-.2-.3-.3-.2-.6-.3 0-.3.2-.3.4-.2v-.3c-.1-.2-.6.2-.6-.3-.5.2.1.4.1.8-.5 0-.5-.7-1-.5 0 .3.4.2.1.5-.3 0-.1-.3-.4-.6-.1.1 0 .6-.1.8-.3 0 0-.1-.1-.2-.2-.4-1-.3-1.4-.6.1.3.8.9.2 1.2.3-.8-.6-.9-1.1-.9-.2.1 0 .6-.4.6 0-.4 0-.6-.3-.7-.2.1-.5.1-.6.4-.3-.1-.5-.2-.5-.7-.2 0-.5 0-.6-.1-.2 0-.1.4-.3.5.3 0 .2-.3.6-.2-.6.5.9 1 0 1.5-.2-.3-.9-.2-1-.6.5.1.9-.3.6-.6-.2.5-.3 0-.8.2.1-.3 0-.7.4-.9-.2-.3-.5-.5-.8-.7-.3.3.3.5.4.8-.1.3-.4.3-.3.8-.6.2-.7-.2-1.4.1-.4-.8.3-1.1.9-1-.1-.1-.2-.2-.5-.2 0-.3 0-.6-.1-.8-.3.1-.4.4-.3.8-.2 0-.2-.2-.5-.1V73c-.3 0-.6.1-.6.4.3 0 .4.4.6.6-.3.1-.8.1-.7.8.2 0 .2-.2.5-.1.2.3.3.8.4 1-.4.4-.8.4-.9.9-.4-.2-.5-.7-.8-1 .2-.6 1.1-1.6.2-2.1-.2 0-.1.3-.4.2l.3-.6c0-.1-.1-.2-.3-.2.1.4-.5 1.1-.1 1.4-.2.2-.5.2-.6-.1-.3.1-.3.4-.4.7-.2-.1-.1-.4-.5-.3.2-.4-.2-.3-.1-.8.3.3.2 0 .7 0-.1-.1-.1-.3-.2-.5-.1.1-.3.2-.3-.1-.2 0-.2.1-.3.2-.2-.1.1-.2-.3-.1.2-.3-.3-.5-.4-.8-.2.3.4.8.2 1.1-.3-.2-.7.2-.8-.3-.2.1-.5.2-.5.6-.4 0-.4-.6-.9-.5.4-.1.2-.8.7-.8-.9-1.6-1.4-1.5-1.4-1.8zm228.9-16.6c.5 0 .4-.4.9-.2 0-.4-1.1-.2-.9.2zm.2 4.4c.1-.1.3-.2.3-.6h-.3c0 .2-.3.5 0 .6zm-.4 3.3c.2-.1.3.3.3-.1-.4.1-.2-.3-.5-.5-.2.1.2.6-.1.9.2.2.3-.1.5.1.1-.4-.3-.1-.2-.4zm-1.5-10c.2 0 .4 0 .4-.3-.1 0-.1-.1-.3-.1-.1.1-.2.2-.1.4zm-.2-2c.2-.1 0-.4-.1-.6-.1.1-.2.6.1.6zm-1 17.6v-.7c-.3.1-.4-.1-.7-.1 0 .2.1.4.1.7.3 0 .5 0 .6.1zm-1.1-.9c.3.1.5.1.6 0-.1 0-.2-.1-.2-.3-.3 0-.3.2-.4.3zm-.2.7c0-.1 0-.2.1-.3-.1-.1-.4-.1-.6 0 0 .3.4.2.5.3zm-.6 1.1c.3 0 .6 0 .6-.4-.3 0-.6.1-.6.4zm-.8.9c.3.1.5-.6.3-.4-.1.2-.5.1-.3.4zm.3-23.6c0-.3-.1-.4-.4-.4 0 .3.3.3.4.4zm-1.9 25.8c0-.3.1-.7-.2-.8 0 .3-.5.1-.6.3.4 0 .4.5.8.5zm-.3-29.1c0-.2 0-.4-.3-.4 0 .1-.1.2-.1.4h.4zm-.3 29.8c-.2-.1-.2 0-.4-.2-.2.2 0 .4 0 .7.3 0 .3-.2.2-.4.1-.1.2 0 .2-.1zm-.2 1.1c-.4-.1-.6.4-.9.1 0 .7.9.4.9-.1zm-.9-1.8c.1.2.7.3.8 0-.2 0-.6-.1-.8 0zm-.4 3c.1-.1.5.1.5-.1-.1 0-.1-.2-.1-.4h-.4v.5zm.3-.6v-.4h-.3c-.1.3.2.3.3.4zm-.3-.6c0-.3-.1-.4-.4-.4 0 .3.2.4.4.4zm-.2-31.6c.2-.4.1-.5.2-.8-.3 0-.2-.1-.6-.2.2.3.1.3.1.9.2 0 .2.1.3.1zm-.9 35.2c.3 0 .6.2.7-.2-.3 0-.4-.4-.7-.1v.3zm-1-37.1c.5.1.6-.2.9-.2-.2-.6-1-.3-1.5-.7 0 .3.1.4.3.5 0-.1.2-.2.2-.1-.1.2.1.3.1.5zm.8 35.3c.5 0 0-.8-.1-.5.2 0 0 .4.1.5zm-.1.3c.1-.4-.2-.8-.3-.8-.1.3 0 .4-.1.5-.2 0-.1-.3-.4-.2 0 .1-.2.2-.2.3.5-.2.3.3.6.4 0-.2.2-.2.4-.2zm-4.7 3.4c0-.2.5-.6.1-.7-.1.2-.6.5-.1.7zm-.4.5c0-.2.1-.5-.2-.4 0 .1-.1.2-.1.4h.3zm-.4-41.5c.1.2.1.5.4.5-.1-.3-.1-.5-.4-.5zm-.2-1c.1-.5-.6-.4-.7-.1.5-.1.4 0 .7.1zm-.5.5c.1-.5-.4-.4-.6-.6 0-.2.3-.1.3-.3-.4-.3-.7-.1-.9.2.6 0 .6.6 1.2.7zm-.7 44.1c.3 0 .7-.2.5-.4-.1.3 0-.3-.3-.1-.1.2-.3.2-.2.5zm0 .5c.1-.3-.1-.8-.4-.5.2.1.2.4.4.5zm-.3 0c-.4 0-.4-.3-.8-.4-.2.4.6 1 .8.4zm-2.3.5c-.2-.1-.4-.2-.7-.2 0 .2.1.2.1.4-.1-.1-.9.3-.7.3.3-.3.5.1.7.2-.2-.9.4-.4.6-.7zm-1.6-.8c0 .2.3.5.5.3-.2 0-.1-.4-.5-.3zm-1.9 2.4c.1-.4.1-.5-.2-.7.1.8-.4.1-.4.5.1.2.3.2.6.2zm-2.6.8c.2.2.6 0 .5-.4-.2.1-.5.1-.5.4zm-1.4-53.3c.1-.3-.3-.1-.3-.3v-.3c-.3.1-.4.1-.5.2.3.3.3.5.8.4zm-1.2 52.4c0 .5 1 .5.8-.1-.4 0-.5.4-.4-.1-.3-.1-.1.3-.4.2zm.4 2.2c-.4-.1-.3.2-.3.5.3 0 .3-.2.3-.5zm-.7-1.9c-.3.1-.2.1-.4-.1 0 .2-.2.2-.5.2v.3c.4-.3.8 0 .9-.4zm-3.7 1v-.8c-.4.3-.3-.2-.6-.3 0 .2.2 1 .6 1.1zm-.8-.8c-.4 0-.7 0-.6.5.3 0 .2-.2.4 0 .1-.1.1-.3.2-.5zm-.4 1.4c.1-.3.5-.3.4-.8-.3.2-.7-.2-.8 0 .2 0 .1.5-.1.5-.2-.1-.5-.2-.4-.6-.2.4-1 .2-1 .5.4-.2 1.2.5 1.4.6-.4-.3.3-.4.5-.2zm-1.7-2.3h-.5c0 .4.5.4.5 0zm-1.4 1.2v-.4c-.3 0-.3.5 0 .4zm-.3-.6c.2 0 .4 0 .4-.3-.3 0-.5 0-.4.3zm-.6-55.7c.3-.1.8 0 .7-.5-.2-.1-.7 0-.5-.3-.8.1.1.5-.2.8zM436.4 85c.2 0 .4 0 .4-.3-.2-.1-.4.1-.4.3zm-4.3-58.8v-.4c-.5.2-.2-.1-.6-.2-.1.2-.5.1-.4.5.5-.1.6-.2 1 .1zm-.7 58.5c-.2 0 0-.1 0-.3-.1 0-.1-.1-.3-.1 0 .3.2.7.3.4zm-.3-.9c.2 0 .4 0 .4-.2-.1 0-.2-.1-.4-.1v.3zm-.1.7c-.1 0-.2-.1-.4-.1-.1.3-.2.6-.4.8-.4 0-.7 0-.7-.4-.3.1-.7.2-.8.5.6-.1.6.9 1.4.5l.3.6c.4-.1.7-.2.7-.7-.8 0-.1-.8-.1-1.2zm-1.7-58.4c.1 0 .2.1.4.1 0-.2-.1-.3-.2-.4 0 .1-.2.1-.2.3zm-.6 58.7c-.1-.1-.5.1-.5-.1.2-.2.1-.9-.3-.8-.1.3.1.2.1.5-.4-.2-.3.1-.5.3-.4-.1-.3-.6-.7-.7-.1.9.4.8.1 1.4.5.1.4-.4.6-.6.1.2.2.5.6.3 0 .1 0 .2.1.3-.1.3-.5-.1-.6.3.2 0 .3.2.8.2.3-.4 0-.6.3-1.1zm-2.4-.2V84c-.3.1-.3.1-.3-.3-.6-.1-.5.5-.7.8.5.3.6-.2 1 .1zm-1.2-59.1v-.2c-.1 0-.1 0-.1-.1h-.2c0 .1 0 .1-.1.1v.2c.1 0 .1 0 .1.1 0 0 .1 0 .3-.1-.1 0-.1 0 0 0zm-.9 58.9v-.3c-.2 0-.4 0-.4.2.2 0 .2.1.4.1zm-.6-.3c.1-.4-.6-.4-.8-.2.3 0 .5.4.8.2zm-1.2-.2c.3 0 .5-.1.5-.5-.2 0-.3-.2-.6-.1 0 .3.1.4.1.6zm-2.2.2c.2 0 .4-.1.4-.4-.4-.2-.8-.3-.9.2.3 0 .5-.4.5.2zm-2.9-1.7c.2-.1.4.2.4 0-.1 0-.1-.2-.1-.4-.3 0-.3.1-.3.4zm-.5-57.4c-.1.3.6.6.6.2-.1-.1-.4-.1-.6-.2zm-.2 58c.1-.3.4-.3.4-.7h-.4c-.2.3-.3.7 0 .7zm-.1-58.4c-.3-.2-.7.2-.8.6.3-.1.7-.2.8-.6zm-.6 58.6c-.1-.6.4 0 .3-.4-.2-.2-.4-.3-.8-.2 0 .4.1.7.5.6zm-.9-.5c.2 0 .5 0 .5-.3-.4-.1-.5.1-.5.3zm-2.9.3c.3 0 .6-.1.5-.5-.3.1-.4.3-.5.5zm-.1-58.2v-.4h-.3c0 .3.1.5.3.4zm-2.2 56.5c.1-.4-.2-.8-.5-.7 0 .5.2.6.5.7zm-5.7-56.8c.2 0 .4 0 .4-.3-.3.2-.4-.4-.5-.1.3.2-.1.3.1.4zM404 82c-.3.1-.1-.2-.1-.3-.4-.1-.6-.6-1-.4 0 .4.3.3.5.5 0 .2-.3.1-.3.3.1 0 .1.2.2.3.4 0 .4-.3.7-.4zm-1.1-57c-.1-.5.1-.7.2-.9-.2.4-1-.1-1.1.7.4.1.2-.3.7-.2-.1.2-.1.5.2.4zm-1.1 56.4c-.4 0-.3-.9-.8-.6.1.3.5.3.4.8h.2c.1 0 .2-.1.2-.2zm-.4.3c-.2-.5-1-.6-.9.3.5 0 .7.1.9-.3zm-1.1-.5c-.4 0-.6.1-.6.4.3-.1.2.1.5.1-.1-.3 0-.2.1-.5zm-1.3-.3c0-.3-.1-.4-.4-.4 0 .3.1.4.4.4zm-3.4.3c0-.3-.1-.3-.4-.3 0 .3.1.4.4.3zm-4.1-56.7c-.2 0 .1-.2 0-.4h-.4c0 .3.3.7.4.4zm0 56c-.3 0-.4.1-.5.3.3-.2.5.1.5-.3zm-.6-.3c.1 0 .4-.5 0-.5-.1.1-.3.5 0 .5zm-2.5-.6c-.3.2-.5 0-.9 0 0 .2.1.2.1.4.5 0 .7-.1.8-.4zm-1-54.6c.2-.2.2-.5.1-.9h-.3c0 .4 0 .7.2.9zm-.4 55.4c0-.1.1-.2.1-.4h-.4c0 .3 0 .4.3.4zm-2.8-.8c0 .1.1.1 0 0s.2-.1 0-.3c-.2 0-.3.1-.4.3.2.1.3.1.4 0zm-2.5.4c.1.1.5.2.6 0-.2-.1-.5-.3-.6 0zm.2-1.2c-.2 0-.4 0-.5.1 0 .1 0 .2.1.3.2 0 .3-.1.4-.2-.1-.1-.1-.1 0-.2zm-.8-55.1c0-.2-.1-.3-.2-.4.1.3-.5 0-.3.5.3 0 .4 0 .5-.1zm-1.7-.3c.2.2.7.1.6-.3-.3 0-.5.1-.6.3zm-1 55.7c.3-.3-.3-.7-.5-.3.1 0 .2.1.3 0 0 .1.1.2.2.3zm-1.4.7c.6-.2.7-.3 1.1-.3-.3-.3-.9-.5-1.3-.4.1.4.1.5.2.7zm0-55.8c.1-.2.2-.4.1-.5-.2.1-.5.4-.1.5zm-1.7 55.5c0-.2.1-.2.3-.2-.1-.2-.1-.5-.5-.5-.1.2-.1.4-.3.5.2.1.2.3.5.2zm-3.6-.9c-.3-.1-.8.5-.9.9.1.1.3.1.6.1.2-.3.1-.5.3-1zm-5.8-55.3c.4 0 .6-.7.6-.8-.2.2-.7.2-.8.8.1-.1.2-.1.2 0zm.2 55.6c-.3 0-.1-.4-.6-.3 0 .3.5.4.6.3zm-4-1.3c0-.3-.2-.2-.4-.3.1.3.3.5.4.3zM359 22.9c0-.2-.1-.2-.2-.3 0 .2-.4.1-.4.4.2.2.4 0 .6-.1zm-2.1.3c.1-.3-.5-.4-.5-.1.3 0 .3.2.5.1zm-4.3 55.4c.3 0 .5-.1.6-.4-.3 0-.6.1-.6.4zm-1-55.9c0-.2-.1-.4-.4-.4 0 .2.1.3.4.4zm-1.3 56.1v-.4c-.1 0-.2-.1-.4-.1-.2.2.1.2 0 .5h.4zm-.2-1.3c.1-.3-.1-.4-.5-.4.1.3.2.4.5.4zm-.9.6c-.3 0-.4.1-.4.4.3 0 .4-.1.4-.4zm-9.2.4c0-.2.1-.4.1-.7-.3 0-.5 0-.6.2.3.1.3.5.5.5zm-.3-.9c-.3.1-.3-.2-.6-.1-.1.5-.8.2-.8.9.4.1.6-.2.8 0 .1-.7.6-.4.6-.8zm-6.2-54.9c0-.3-.2-.2-.4-.3-.1.3.2.3.4.3zm-.7.1c-.1-.1.1-.5-.1-.5-.1.2-.4.1-.4.5h.5zm-1.7 54.4v-.4h-.3c-.1.2 0 .4.3.4zm-1.7.3c.2.2.6.1.7-.2-.4-.1-.6-.2-1.3-.2-.1.3.1.2.2.4-.2.2-.3 0-.6.1 0 .9 1.1.1 1-.1zm-1.8.6c.1-.4-.2-.5-.3-.8-.1.2 0 .8.3.8zm-.4-55.2c.3 0 .2-.2.3-.4-.1 0-.1-.1-.3-.1v.5zM326 76.7c-.1-.1-.3-.1-.5-.1.1.4-.1.4.2.6 0-.3.3-.3.3-.5zm0 .9c-.1 0-.2-.1-.4-.1 0 .1 0 .2-.1.3.2.1.4 0 .5-.2zm-.3-55.2c0-.2-.1-.2-.1-.4-.5 0-.5.4-1.1.3-.1.3-.3.3-.3.7.3 0 .4.2.6 0 0-.2-.1-.2-.2-.3.4-.2.4-.5 1.1-.3zm-6.8 55.1c-.1-.4.1-.5-.3-.6 0 .2-.2.7.3.6zm-1.6-.1c.3-.3.5 0 .8-.1-.1-.3-.3-.4-.8-.4v.5zm-3.9-54.6c.3 0 .3.2.7.1 0-.4-.1-.7-.6-.7.1.4-.2.4-.1.6zm.3 54.6c0-.3-.1-.6-.5-.5.1.4.3.1.5.5zm.1.2c-.2 0-.1-.3-.4-.2v.4c.2-.1.3-.1.4-.2zm-1.5-54.5c-.4.4.4.7.3 0h-.3zm-1-.1c.5-.2.3.2.8.3-.1-.5-.5-.6-.9-.8 0 .3.3.2.1.5zm-.4 54.4c.2-.2-.3-.4-.3-.7 0 .2-.3.1-.2.4.3 0 .3.3.5.3zm-.4.2c0-.2-.1-.3-.3-.4-.2.2 0 .1 0 .4h.3zm-.2-53.9c0-.3-.2-.3-.5-.3.1.2-.3.4 0 .5-.1-.3.3-.2.5-.2zm-.6 53.8c.1-.1 0-.4-.1-.5 0 .3-.4.1-.5.3.3 0 .2.3.6.2zm-5.9-54.4c-.2 0-.3 0-.4-.1 0 .2-.3.2-.3.4.3 0 .4-.2.7-.3zM302.2 77c.4.1.3-.5-.1-.4 0 .2.2.2.1.4zm-.9-1.2h-.4c-.1.1-.1.3-.1.6.3-.1.4-.4.5-.6zm-1.3.4c.1 0 .1.2.3.2 0-.3-.3-.4-.5-.6-.1.1-.1.3-.1.6.2 0 .2-.1.3-.2zm-5.9-53c-.1 0-.1-.1-.1-.2-.2 0-.4.1-.4.4.3 0 .4 0 .5-.2zm-.7.6c.2 0 .4 0 .4-.2-.1 0-.2-.1-.4-.1v.3zm-1.5-.7c-.3.2.1.6.3.3-.2 0 0-.3-.3-.3zm-4.2 52.6c-.2-.2-.2.1-.4-.1.1.4-.5.5-.8.8.5-.2.4.2.9.3.4-.5.1-.7.3-1zm-3.6-.2c.4 0 .4-.4.4-.6-.1.3-.3-.1-.5 0-.1.3.1.4.1.6zm.3-52c0-.2-.1-.3-.3-.4-.1.2-.3.3 0 .5 0-.1.1-.1.3-.1zm-3.7 51.1c.4.2.4-.6.1-.5 0 .3-.2.3-.1.5zm-1.8-52.4c.3 0 .3-.2.3-.5-.3 0-.5.3-.3.5zm-3.2 51.4c0-.2 0-.4-.2-.4-.1.2-.4.1-.3.5.2.2.2-.2.5-.1zM273.2 23c-.1 0-.1-.3-.4-.2v.6c.3 0 .4-.1.4-.4zm-2 51.7c.1-.1.1-.3.2-.5-.4 0-.4-.4-.8-.4 0 .2-.1.2-.3.2 0 .3-.1.7.2.8.2-.1.4-.2.5-.4 0 .2.1.3.2.3zm-1.8-2.2h-.3c-.1.1-.1.5-.1.8.4-.2.2-.5.4-.8zm-1.2 1.1c0-.2 0-.4-.1-.5h-.3v.5h.4zm-1 .4c0-.2 0-.5-.2-.5-.1.2-.2.4 0 .7 0-.2 0-.3.2-.2zm-3-1.5v-.4c-.1 0-.3 0-.4.1.2.4-.7-.2-.6.5.4.1.5-.2 1-.2zm-6.5-.8c.1-.3-.1-.4-.1-.7-.1 0-.3 0-.4.1.2.4.4.2.5.6zm-1.3-50.6c0-.3-.2-.2-.4-.3 0 .2 0 .4.2.4 0 0 .1-.1.2-.1zm-.3.7c-.1-.2.3-.4 0-.5-.2.2-.3.4 0 .5zm-3.4.7c.3 0 .3-.1.3-.4h-.3v.4zm-1.9 49.9c.2 0 .4 0 .4-.3-.1 0-.1-.1-.3-.1 0 .1-.1.2-.1.4zm-13.5-51c.1-.6-.6-.4-.6 0 .4.1.3 0 .6 0zm-.2 49.2c-.1 0-.1-.1-.3-.1.1.3-.2.4 0 .6.3-.1.3-.3.3-.5zm-1 1.3c.4.1.4-.6.1-.6 0 .2-.2.3-.1.6zm-.8-.7c.1-.3-.4-.4-.4-.1.3.1.3.3.4.1zm-2.9 0c0-.2.4-.9 0-.9 0 .7-.8 0-.8.7.2.1.6.1.8.2zm-4-1.2c0-.2 0-.4-.2-.5-.1.3-.2-.1-.4 0 .1.3-.2.3-.1.6.5 0 .5 0 .7-.1zm-.6-48.5c.3 0 .6.1.6-.2-.1-.2-.5-.3-.7 0 .1.1.1.1.1.2zm-.5-.5c-.3.4-.9.1-.9.8.4-.2.7-.4.9-.8zm-1.8 49.2c-.4-.1-.3.2-.5.3-.1-.1-.1-.4-.4-.4 0 .2-.3.1-.2.4.6.2.9.2 1.1-.3zm-2.8-.3c0-.3 0-.5-.3-.5 0 .3 0 .5.3.5zm-6.3.2c.1.1.6.2.5-.1 0-.2-.5-.1-.5.1zm-.7-.4c.3 0 .3-.1.3-.4-.3 0-.3.2-.3.4zm-2.7-.1c0-.3.3-.5-.1-.6-.2.2-.2.6.1.6zm-.8 1.1c0-.3.1-.9-.2-.9-.1 0-.6.3-.8.5-.1-.1-.3-.1-.5-.2-.2.4-.3.1-.6.2 0 .5.4.6.7.8.1-.3 0-.5.4-.6v.4c.2 0 .9-.6.7-.2h.3zM206 69c-.2.3.5.4.4.1-.1-.2-.3-.1-.4-.1zm-14.9-45.8c.3-.1.5-.1.5-.5-.4 0-.4.3-.5.5zm-6.8 46c.1-.8-.9-.3-1 0 .4.2.6.1 1 0zm-1.2-.4c-.1 0-.2-.2-.3-.2.1.3-.1.4-.2.6.3 0 .5-.2.5-.4zm-5.2.2c.1-.1.1-.3.1-.6-.5 0-.3.4-.1.6zm-4.3-.7c.3 0 .3-.1.3-.4-.3 0-.4.1-.3.4zm-6.6-45c-.1-.3.1-.2.1-.5-.4-.1-.5.6-.1.5zm-2.1.1c0-.2.3-.1.2-.4-.1-.1-.5-.1-.5.1.2 0 0 .3.3.3zm-14.8-.7c.3-.4-.2-.4-.5-.2 0-.2 0-.4-.3-.4-.1.1-.2.3-.3.6.3.2.2.1.7.2 0-.5.3-.5.4-.2zm-3.7 45.7c0-.4.8.2.8-.4-.4.1-.4-.2-.8-.2.1.3-.3.5 0 .6zm-6.7-44.9c0-.1.4-.4.1-.5 0 .2-.5.4-.1.5zm-2.7-1.1h.5c0-.3-.2-.4-.5-.4v.4zm-15.6.4c.3.1.5-.5.1-.5-.1.1-.1.2-.1.5zm-59 66.6c.1-.3.5-.2.5-.6-.1-.2-.3-.3-.6-.4.1.3-.1.8.1 1zm-22.6 11.5c-.2-.1-.4-.3-.7-.4.2.6-.4.9-.1 1.3.6 0 .6-.5.8-.9z"/><path class="st0" d="M477.2 54c-.5-.2-.5.2-.9.2-.2-.4.9-.6.9-.2zM476.7 58c0 .3-.1.4-.3.6-.3-.1 0-.4 0-.6h.3zM476.7 64.4c0 .3-.4.1-.3.4-.3-.1-.1-.3-.1-.5.2 0 .3.1.4.1zM476.7 49.3c.1.3-.1.2-.1.5-.5-.1-1.1-.4-.9-.8.1-.1.3-.1.5-.1 0 .4.2.3.5.4zM476.5 71.4c0 .3 0 .5-.3.5-.1-.1-.1-.3 0-.5h.3zM476.4 61.8c0 .4-.1 0-.3.1-.1.3.3.1.2.4-.2-.2-.3.1-.5-.1.3-.2-.1-.7.1-.9.3.2.1.6.5.5zM476.1 46.4c.1 0 0 .6-.1.7-.3 0-.1-.2-.2-.5.1-.1.3-.1.3-.2zM475.6 66.8c.1 0 .1.1.3.1-.1.1-.1.3-.2.3h-.2c0-.2.1-.3.1-.4zM474.7 65.5c.4.1.1.8.7.8-.4.4-.6-.1-1.1.1.1-.3.1-.7.4-.9zM475 51.6c0 .3-.1.3-.4.3 0-.2.1-.3.1-.4.1 0 .1.1.3.1zM474.5 67.5c0 .2 0 .4.2.5-.1.1-.4.1-.3.5-.5.2-.2-.5-.6-.5.1-.3.3-.4.7-.5zM474.3 49.3c.1.1.3.4.1.6-.3 0-.2-.5-.1-.6zM473.3 44.9c-.2.5-.1.9.6.8-.1.4-.1.2.2.1-.1.4-.4.8-.9.8.1-.3-.3-.2-.2-.5 0-.2 0-.4.3-.4-.2-.2-.4-.4-.5-.8.1-.2.2-.1.5 0zM473.4 66.9v.7c-.1-.1-.3-.1-.6-.1.1-.3-.1-.4-.1-.7.3 0 .4.1.7.1zM473.1 69c.3.1.1.3.1.5-.3 0-.3-.3-.1-.5zM472.7 70.1c.3 0 0 .5.4.4-.1.2-.2.1-.5.1.1-.3.2-.2.1-.5zM472.9 66.6c-.1.1-.3.1-.6 0 .1-.1.1-.3.4-.3 0 .2.1.3.2.3zM472.8 40.8c-.2 0-.5 0-.6-.1 0-.3.4-.2.4-.6.1.2.1.5.2.7zM472.2 67c0 .1-.1.2-.1.3-.2-.1-.5 0-.5-.3.2-.2.5-.2.6 0zM472.1 68c.1.4-.3.4-.6.4 0-.3.3-.4.6-.4zM471.5 41.8c.3.1.5.4.4.7-.3-.1-.4-.4-.8-.5 0-.1.1-.1.1 0 .3.1.2-.2.3-.2zM471 69c.2-.3 0 .5-.3.4-.2-.4.2-.3.3-.4zM470.6 45.3c.3 0 .4.1.4.4-.1-.1-.4-.1-.4-.4zM468.7 74.9c-.3-.2.5-.5.4.1-.1 0-.4-.3-.4-.1zM468.9 70.7c.3 0 .2.5.2.8-.4 0-.3-.5-.8-.5.1-.2.7.1.6-.3zM468.5 42c.3 0 .3.1.3.4h-.4c0-.2.1-.2.1-.4zM468.1 72c.2.2.2.1.4.2 0 .1-.1.1-.2.1.1.1.1.4-.2.4 0-.3-.1-.5 0-.7zM467.4 73.4c.4.3.5-.2.9-.1 0 .5-.9.8-.9.1zM468.1 71.5c-.1.3-.7.2-.8 0 .3-.1.7 0 .8 0zM467.5 74.4c0 .2-.3 0-.5.1V74h.4c0 .2-.1.4.1.4zM467.3 73.5v.4c-.1-.1-.4-.1-.3-.4h.3zM466.9 75.2c-.1.3.3.1.2.4-.2 0-.2-.2-.5-.1v-.2c.1-.1.2-.1.3-.1zM466.6 72.9c.3 0 .4.1.4.4-.2 0-.4-.1-.4-.4zM467 41c-.1.3 0 .4-.2.8-.1 0-.1-.1-.3-.1 0-.5.1-.5-.1-.9.5 0 .3.2.6.2zM466.5 76.7c-.1.4-.3.2-.7.2v-.3c.3-.3.5.1.7.1zM465.9 39.6c-.4 0-.4.3-.9.2-.1-.2-.3-.3-.1-.5 0-.1-.2 0-.2.1-.2-.1-.3-.2-.3-.5.5.4 1.3 0 1.5.7zM465.6 74.6c.1-.4.6.5.1.5-.1-.1.1-.5-.1-.5zM465.3 74.6c0-.1.4.4.3.8-.2 0-.4 0-.4.2-.3 0-.1-.6-.6-.4 0-.1.2-.1.2-.3.3-.1.2.2.4.2.1-.1.1-.2.1-.5zM465.5 79.5c.3 0 .3.7-.1.6-.1-.3 0-.3.1-.6zM465.1 37.4c0 .5-.6.4-.6 0 .2-.1.5-.1.6 0zM464.7 78.2c.1.1.3.1.3.4-.2.2-.1 0-.4 0-.1-.2.1-.2.1-.4zM464.7 77.6c.2 0 0 .3.1.5-.3.1-.2-.2-.4-.2-.1-.3.2-.2.3-.3zM464.3 80.2c-.1.2 0 .6-.3.6v-.6c-.2 0-.2-.1-.2-.2.2 0 .3.2.5.2zM463.9 36.3c.2 0 .2.2.2.4h-.3c0-.3.1-.3.1-.4zM463.8 77.6c0 .2-.1.3-.2.4-.3-.1-.3-.4-.4-.7.2.2.4.3.6.3zM463.1 79.6c.1-.1.2-.2.5-.2 0 .2-.1.4-.4.4.1-.1 0-.1-.1-.2zM463.2 29.1v.4c-.1.1-.6 0-.6-.4.2-.1.5-.1.6 0zM463.3 80.6c-.1.3-.2 0-.5.2v-.3c.3-.1.4 0 .5.1zM462.2 36.5c.3 0 .2.3.6.3-.3 0-.2.4-.6.4.2-.5-.2-.5 0-.7zM462.8 83.1c-.1.1 0 .5-.3.5-.3-.1-.7-.6-.7-.8.2-.1.7.2 1 .3zM462.3 81c0-.2-.5 0-.6-.2 0-.1 0-.3-.1-.3 0-.3.4-.2.6-.4-.1.2-.1.8.4.9-.3.5-.5.8-.6 1.3-.4-.1-.1-1.2.3-1.3zM461.3 35.9c-.3 0-.2-.5.2-.4 0 .1-.1.2-.2.4zM461 78.1c.4 0-.1.5-.1.7-.5-.2 0-.5.1-.7zM461.2 81.7c-.5-.1-.5 0-.9.1.1.1.1.3 0 .5-.4 0-.6-.2-.7-.5.4.3.5-.1.8-.5.3.1.7.1.8.4zM460.6 106.5v.3c-.1.1-.4.1-.6 0 0-.4.4-.5.6-.3zM460.3 78.9c.3-.1.2.2.2.4h-.3c0-.2.1-.3.1-.4zM460.5 38.2c-.3 0-.3-.2-.4-.5.3.1.3.3.4.5zM459.8 84c.3.1.1.4.1.6-.3-.2-.2-.4-.1-.6zM459.3 36.7c0-.3.8-.4.7.1-.4-.1-.3-.2-.7-.1zM459.6 82.3c.3-.1.1.3.2.5-.1.1-.3.1-.5.1 0 .3.4.3.4.7-.4.4-.4-.3-.7-.4 0-.2.3-.2.2-.5.4.1.5 0 .4-.4zM459.6 35c.1.1.1.3.1.5-.2 0-.3.2-.5 0 0-.1.1-.1.2-.1-.1-.1-.2-.1-.2-.3.1 0 .2-.1.4-.1zM458.8 36.7c.2.2.7.1.6.6-.5-.1-.6-.7-1.2-.7.3-.3.6-.5.9-.2 0 .3-.3.2-.3.3zM459.2 81c.2.1-.2.4-.5.4-.1-.3.1-.4.2-.5.2-.1.2.5.3.1zM458.3 81.4c.2-.3.5.1.4.5-.2-.1-.2-.4-.4-.5zM458.3 132.7c.2.1.3.3.2.5-.3 0-.3-.3-.2-.5zM458.5 34.6c-.1.3-.3.1-.6.1.2-.3.4-.2.6-.1zM457.7 81.5c.3 0 .3.4.8.4-.3.6-1.1 0-.8-.4zM457.4 83.3c.1-.2.3-.4.7-.4-.2.2-.3.5-.7.4zM457 84.1c.5.4-.3.7.1 1.1-.3-.3-.6-.8-.9-1.1.1-.2.5.1.5.4.1-.1.1-.3.3-.4zM456.7 105.9c-.1.2-.2.3-.5.3-.1-.1-.1-.4 0-.6.3 0 .4.2.5.3zM455.5 84.4c0-.4.6-.5.6 0-.2.2-.3 0-.6 0zM455.4 82.2c.3 0 .4.1.7.2-.1.3-.7-.1-.6.7-.2-.1-.4-.5-.7-.2-.2 0 .5-.3.7-.3 0-.2-.1-.2-.1-.4zM454.8 84.6c.3-.1.7.1.7.6-.4 0-.5-.3-.7-.6zM455 81.9c-.1.3-.5 0-.5-.3.4-.1.3.3.5.3zM454.3 93c.3 0 .4.2.4.5-.2.2-.2-.1-.5 0-.1-.2 0-.3.1-.5zM454.4 84.1c.1.6-.4.5-.6.3.2-.2.2-.4.6-.3zM453.2 85.6c-.1.3.2.3.1.6-.2-.1-.3-.3-.7-.2.2-.3.3-.4.6-.4zM452.4 83.3c.3.1.3.3.2.7-.3 0-.5 0-.6-.2 0-.4.5.3.4-.5zM452.4 32.2c.2.1.2.3.1.5-.2 0-.4-.1-.4-.4.1 0 .3 0 .3-.1zM451 86.2v.6c-.3 0-.4.4-.8.4-.2-.2.1-.2 0-.5.1 0 .2.1.3.1-.2-.3.1-.5-.1-.8.3.1 0 .4.6.2zM449.8 88.2c.5-.4 1.5 0 1 .8-.5.2-.7-.4-1-.8zM450.5 84.4c.1.4-.3.6-.5.4 0-.3.3-.3.5-.4zM449.9 98c.3 0 .5.1.5.5-.1.1-.3.1-.3.2-.3-.2-.3-.5-.2-.7zM448.7 86.4c.3.1.2.4.2.7-.5.1-.4-.5-.2-.7zM449.1 84.7c0 .4-.5.4-.5 0 .3.1.2.1.5 0zM448.3 31.3c0 .2.4-.1.3.3-.5 0-.4-.1-.8-.4.1 0 .2-.1.5-.2v.3zM448.2 83.8c.1.6-.9.6-.8.1.4.1.2-.3.5-.2-.2.5-.1.1.3.1zM447.6 86.6c0-.3-.1-.6.3-.5-.1.3-.1.5-.3.5zM447.5 29.6c-.2.3-.3-.3-.3-.6.3.2.1.4.3.6zM446.7 84.1c.2.2.1.2.4.1-.1.5-.5.1-.9.4v-.3c.3 0 .5 0 .5-.2zM445.4 101.3c.2.1.3.2.2.5-.4 0-.4-.4-.2-.5zM444.2 87.7c-.3.2-.8 0-.7-.5.3-.2.7.1.7.5zM443.4 84.4v.8c-.4-.1-.6-.9-.6-1.1.3.1.2.5.6.3zM442.4 86.3c.1.1.3.1.6.1-.2.2.1.4-.1.6-.2 0-.3-.2-.6-.1 0-.3.2-.3.1-.6zM442.7 87.1c0 .3.1.7-.1.9-.6 0-.6-.7-1.1-.4 0-.4.6-.1.5-.7.3 0 .4.2.7.2zM442.1 84.9c-.1-.4.2-.5.6-.5-.1.1-.1.3-.2.5-.2-.1-.2 0-.4 0zM442.5 85c.1.5-.3.5-.4.8-.2-.2-.9-.1-.6.2-.2 0-1-.7-1.4-.6 0-.3.9-.1 1-.5-.1.4.2.5.4.6.2 0 .3-.4.1-.5.3-.2.7.2.9 0zM442.1 90.3c.3 0 .2.3.3.6-.1 0-.1-.1-.3-.1v-.5zM441.5 91.5h.3c-.1.1-.1.3-.2.5-.2 0 0-.3-.1-.5z"/><path class="st0" d="M441.5 86.8c.4 0 .2.2.2.5-.3 0-.3-.3-.2-.5zM440.7 88.2c.4-.1.4.1.8.1-.4.2.1.7-.3.9-.5.1-.4-.5-.5-1zM440.7 93.5c.2 0 .2.3.2.6-.3 0-.5-.1-.5-.4 0-.1.2 0 .3-.2zM440.4 96.9c.4 0 .4.4.3.7-.1-.1-.2-.1-.2 0-.3 0-.3-.6-.1-.7zM440 83.5h.5c0 .4-.5.4-.5 0zM439.1 84.4v.4c-.3 0-.3-.5 0-.4zM439.1 83.8c0 .3-.1.3-.4.3 0-.3.2-.3.4-.3zM439 86.1c0 .3-.1.3-.4.3 0-.2.2-.4.4-.3zM438.9 27.9c.1.5-.4.3-.7.5.3-.3-.6-.7.2-.8-.3.3.3.2.5.3zM436.5 86.1c1.2.1.9 1.3.8 1.9-.1-.1-.2-.1-.2 0-.1-.1-.3-1 0-.9 0-.3-.4-.6-.7-.4-.2-.2.1-.5.1-.6zM436.8 84.7c0 .3-.1.3-.4.3 0-.2.2-.4.4-.3zM435.6 85.4c.3-.3.3.4.8.3 0 .2-.3.1-.3.3-.2-.1-.2-.5-.5-.6zM436.4 87.6c-.1 0-.4 0-.4-.1 0 .2.2.6.2 1.1-.2 0-.2.3-.5.2 0-.4-.3-.5-.5-.8 0-.4.3-.4.3-.9.4.2.8.1.9.5zM433.3 25.6c.3-.1.5-.7.8-.4 0 .4-.5.3-.6.7-.1 0 0-.3-.2-.3zM433.4 87.9c.3.1.4.2.4.6-.4 0-.5-.3-.4-.6zM432.1 25.8v.4c-.4-.2-.4-.1-.9-.1-.1-.4.3-.3.4-.5.2.1 0 .3.5.2zM432.3 96.4c-.3.4-.8.4-1.1.4-.3-.5-.4-1.4.1-1.8.6.1 1 .6 1 1.4zM431.4 84.4c0 .2-.2.2 0 .3-.1.3-.3-.2-.3-.4.2 0 .2.1.3.1zM431.5 83.6c0 .2-.2.2-.4.2v-.3c.2 0 .3.1.4.1zM430.6 84.4c.2 0 .3.1.4.1-.1.4-.7 1.1.1 1.2 0 .4-.3.6-.7.7l-.3-.6c-.8.4-.8-.6-1.4-.5.2-.3.5-.4.8-.5 0 .3.3.4.7.4.2-.1.3-.5.4-.8zM429.7 26.2c-.2 0-.3-.1-.4-.1 0-.1.2-.1.2-.3.1 0 .2.2.2.4zM428.2 84.7c0 .2.3 0 .5.1-.2.5 0 .7-.3 1.1-.4 0-.5-.1-.8-.2.1-.4.4.1.6-.3 0-.1-.1-.2-.1-.3-.4.2-.4 0-.6-.3-.2.2-.1.7-.6.6.3-.6-.2-.5-.1-1.4.4.1.3.6.7.7.1-.2.1-.5.5-.3 0-.2-.2-.2-.1-.5.4-.1.5.7.3.8zM426.9 87.1c.1.1.3.1.3.4-.4-.2-.3.2-.8.1-.1-.1 0-.1 0-.3-.1-.1-.2-.1-.3-.2 0-.2.5 0 .8 0-.2 0-.3 0-.4.1 0 .1.1.1.1.2.2 0 .2-.2.3-.3zM427 122.8c-.1.2-.3.2-.4.4-.8 0-1.2-.9-.8-1.5.7 0 1.1.4 1.2 1.1zM426.3 84.1v.6c-.4-.3-.5.1-.9-.1.2-.3.1-.8.7-.8-.1.4-.1.4.2.3zM425.1 25.3v.2c-.1 0-.1 0-.1.1h-.2c0-.1 0-.1-.1-.1v-.2c.1 0 .1 0 .1-.1 0 0 .1 0 .3.1-.1 0-.1 0 0 0zM424.4 85.4c.3-.1.2.3.5.2-.3.3-.4.8-.9.9.2-.2-.1-.3-.2-.5.1-.3.6-.2.6-.6zM424.2 84.1v.3c-.2 0-.3-.1-.4-.1.1-.2.2-.3.4-.2zM422.8 83.9c.1-.2.9-.2.8.2-.3.2-.5-.2-.8-.2zM422.9 83.4c0 .3-.1.5-.5.5 0-.2-.2-.3-.1-.6.3-.1.4.1.6.1zM422.2 101.9c.4-.1.6.4.4.7-.4.1-.6-.4-.4-.7zM422.1 24.1c.1-.2.3-.5.5-.3-.1.2-.2.3-.5.3zM422.1 84.6c0 .2.2.2-.1.2.1-.1.1-.1.1-.2zM422.1 84.5c0 .1 0 .1 0 0 0 .1 0 .1 0 0zM421.3 86.6c1-.1 1.6 1 .2 1.1-.2-.1-.1-.6-.4-.6 0-.2.3-.1.2-.5zM420.5 94.4c.2.2.3 1-.1 1.1-.7 0-.8-1.2.1-1.1zM420.6 83.7c0 .2-.1.4-.4.4 0-.6-.2-.2-.6-.2.2-.5.6-.4 1-.2zM418.5 22.9c.3.2 0 .3 0 .6-.4-.1-.2-.4 0-.6zM417.7 82.4c0 .2-.2-.1-.4 0 0-.2 0-.4.3-.4 0 .1 0 .4.1.4zM417.5 23.6c-.3 0-.2.3-.6.3-.1-.2-.2-.3-.4-.4.2-.2.5.2.6-.3.3 0 .4.2.4.4zM417.4 25.2c0 .4-.6.1-.6-.2.2.1.5.1.6.2zM416.9 82.4c0 .4-.3.4-.4.7-.3 0-.1-.4 0-.7h.4zM415.7 25.2c0-.4.5-.7.8-.6-.1.4-.5.5-.8.6zM416.2 82.8c.1.4-.4-.2-.3.4-.4 0-.5-.2-.5-.6.4 0 .5 0 .8.2zM415 94.2c-.3-1.9 2.3-.5.9.8-.4-.1-.8-.4-.9-.8zM415.4 82.4c0 .3-.2.3-.5.3.1-.2.2-.4.5-.3zM412.9 23.5c.2 0 .3.1.4.1-.1.1-.2.3-.5.3.1-.1.1-.2.1-.4zM412.6 82.6c.1.4-.1.5-.5.5.1-.3.2-.5.5-.5zM412 24.5v.4c-.3 0-.3-.1-.3-.4h.3zM411.6 97.1c.2 0 .2.4.1.5-.2 0-.2-.4-.1-.5zM411.4 83.7c.3-.1.2.5.1.6-.2-.2-.2-.5-.1-.6zM410.2 83.5c-.1.6.6.4.6.9-.3-.1-.3.2-.6.1-.1-.1-.1-.3-.2-.5-.6-.2-.7.4-.9.2.2-.3.8-.3.8-.8-.4-.1-.3.2-.6.2 0-.3-.2-.3-.3-.6.2-.2.9 0 .9-.5.3 0 .4.2.5.4-.1.4.1.4-.2.6zM410.8 85.1c-.1.4-.7.2-.7-.2.4 0 .6 0 .7.2zM409.3 80.7c.3-.2.6.2.5.7-.3-.2-.5-.3-.5-.7zM409.6 23.7c0 .3-.2.3-.4.5-.3-.1-.6-.8 0-.8 0 .2-.1.2-.2.2.1.2.3-.1.6.1zM406.9 92.6c.6.3 1 .9.9 1.8-.3.2-.7.4-1.1.2-.5-.5-.6-1.8.2-2zM406.5 108.7v.5c-.3 0-.3-.2-.3-.5h.3zM406.1 22.7c.1.1 0 .5-.1.7-.5-.1-.3-.8.1-.7zM404.7 21.9c.4 0 .2.7-.2.6.2-.2.3-.3.2-.6zM404.1 85.1c.2 0 .4 0 .4.3-.3 0-.4 0-.4-.3zM404.5 24.3c0 .3-.1.3-.4.3-.2-.1.2-.3-.1-.4.1-.3.2.2.5.1zM403.9 81.7c-.1.1-.2.3.1.3-.3.1-.3.4-.8.4-.1-.1-.1-.3-.2-.3 0-.2.3-.1.3-.3-.1-.2-.5-.1-.5-.5.5-.2.7.4 1.1.4zM403.8 88.9c-.1.1-.1.4-.4.4 0-.3-.2-.4 0-.7.2.1.2.3.4.3zM403.1 24.1c-.1.3-.3.5-.2.9-.3 0-.3-.2-.3-.5-.4-.1-.3.3-.7.2.2-.8.9-.2 1.2-.6zM402.9 83.2c-.1 0-.1.1-.1.2-.5-.2-.9.1-1.5-.3.1-.1.1-.2-.1-.2.8-.3 1.4-.4 1.7.3zM401.9 84.1c.5-.2.8-.2 1.1.2-.1.5-.4.9-1 .9 0-.5-.2-.7-.1-1.1zM401.8 23.6c-.4.1-.3-.3-.6-.1 0 .2.4-.1.3.3-.3 0-.4-.2-.4-.6.4.1.7.1.7.4zM401.1 80.9c.5-.3.3.6.8.6 0 .1-.1.2-.2.2h-.2c0-.5-.4-.5-.4-.8zM401 101.3c.4-.3.8.3.5.6-.4-.1-.5-.3-.5-.6zM401.3 84.1c.2.1.2.5.3.8-.2-.1-.3-.3-.4-.6.1 0 0-.2.1-.2zM400.5 82c-.1-.9.7-.8.9-.3-.2.4-.4.3-.9.3zM400.7 23.4v.3c-.2 0-.3-.1-.4-.1 0-.2.2-.2.4-.2zM399.7 81.6c0-.3.2-.4.6-.4-.1.2-.2.2-.1.5-.2 0-.2-.2-.5-.1zM399.8 83.1c-.2.3-.3.1-.7.1.1-.3.6-.3.7-.1zM399.4 22.6c0 .2 0 .3.2.3-.1.2-.1.5-.2.7-.2 0-.2-.2-.3 0-.1 0 0-.3-.2-.3.4-.1.4-.3.2-.7h.3zM398.6 80.5c.3 0 .4.1.4.4-.3 0-.4-.1-.4-.4zM396.4 24.4c-.2.3 0 .3.1.7-.1 0-.1.1-.2.1-.3 0-.4-.3-.5-.5.1 0 .1-.1.3-.1 0-.2-.1-.4-.2-.5.3 0 .4.2.5.3zM395.8 22.6c.4.1.1.7-.2.8-.2-.2.2-.6.2-.8zM395.2 81c.2 0 .4 0 .4.3-.3 0-.4-.1-.4-.3zM394.5 85.3c.1.5 0 .5-.2.8-.2-.1-.4-.2-.4-.6.2-.1.3-.2.6-.2zM393.5 81.9c.4-.1.3-.1.7 0-.2.5-.6.7-.4 1.1-.3.1-.2-.1-.5-.1 0-.5.6-.5.2-1zM393.6 22.4c0 .2-.6.1-.4-.2.3-.1.3.1.4.2zM392.7 82.4c.1.1.3.1.3.2-.1.3-.4.6-.7.3.1-.2.3-.3.4-.5zM392.3 22.7c-.1-.3.2-.4.4-.3-.1.1-.2.3-.4.3zM392.4 108.6c-1.8.2.1-2.3 0 0zM391.5 24.2c.1.2-.2.4 0 .4-.1.2-.5-.1-.4-.4h.4zM391.1 80.8c.1-.2.2-.3.5-.3-.1.4-.3.1-.5.3zM390.9 79.7c.4 0 .1.5 0 .5-.3 0-.1-.4 0-.5zM387.6 79.6c.3 0 .5.2.9 0-.1.3-.3.4-.8.4 0-.2-.2-.2-.1-.4zM387.5 24.2c.1.3.1.6-.1.9-.1-.2-.2-.5-.2-.9h.3zM387.1 80c0 .2-.1.3-.1.4-.3 0-.3-.1-.3-.4h.4zM385.3 81.8c.3-.4 1.1-.7 1.7-.5-.4.2-.8.4-1.1.7-.1-.4-.3-.2-.6-.2zM385.2 82.4c.1-.4.3 0 .7-.1-.1.3-.4 0-.7.1zM384 80.4c.2.1.6 0 .6.4-.1.1-.3.1-.6.1 0-.3-.2-.3 0-.5zM384.3 79.6c0 .1-.1.1 0 0-.2.1-.3.1-.5 0 .1-.1.1-.3.4-.3.3.2-.1.3.1.3zM383.8 81.2c.2 0 .4 0 .5.1 0 .2-.5.4-.3.5 0 .1-.3 0-.3.2-.2 0-.1-.3-.3-.3.1-.2.5-.1.4-.5zM382.3 80c0 .2-.5.1-.6 0 .1-.3.4-.1.6 0zM381.4 78.9c.1-.1.3-.1.5-.1-.1.1-.1.2 0 .2-.1.1-.2.2-.4.2 0-.1-.1-.2-.1-.3zM381.8 81.3c.1.4.1.4-.1.7-.4.1-.2-.4-.5-.4-.4.1-.4.4-.8.5 0-.2-.3-.1-.2-.4.5.1.7-.2.8-.6.3.1.6.1.8.2zM380.9 23.3c.1.1.2.2.2.4-.1.1-.3.1-.5.1-.1-.4.4-.1.3-.5zM380 23.1c.1.4-.4.4-.6.3.1-.2.3-.3.6-.3zM377.9 78.8c.1-.4.8 0 .5.3-.1 0-.2-.1-.2-.3-.1.1-.1 0-.3 0zM378.1 79.5c-.4 0-.6.1-1.1.3-.1-.2-.1-.3-.2-.7.4-.1 1.1.1 1.3.4zM377.1 23.5c.1.1.1.3-.1.5-.4-.1-.1-.4.1-.5zM376.5 81.9c.1.3-.2.2-.2.4-.2-.1-.3-.3-.3-.5.2 0 .4 0 .5.1zM375.5 21.9c.2.1.4.2.2.4-.3 0-.4-.3-.2-.4zM375.6 79.3c-.2 0-.3 0-.3.2-.3.1-.3-.1-.5-.2.2-.1.2-.3.3-.5.3 0 .4.3.5.5zM373.9 22.1c0 .3.3.2.3.5-.3.2-.5-.2-.9-.2 0-.1.1-.1.1-.3h.5zM373.6 80.6c.1.1.1.4.3.5-.2.1-.6 0-.9.3-.2-.2-.4-.4-.5-.8h1.1zM372.1 81c.2 0 .3.2.6.1-.3.1-.4.3-.8.3 0-.2.1-.3.2-.4zM370.7 79.5c.2-.4.6-1 .9-.9-.2.5-.1.7-.4 1-.1 0-.4 0-.5-.1zM370.4 81.6c.1.3-.3.2-.2.5-.1-.1-.2-.1-.4-.1 0-.1 0-.2-.1-.2 0-.3.4-.1.3-.4.2 0 .2.2.4.2zM370.1 81.1c-.1.3-.5-.3-.5.2-.2 0-.2-.2-.3 0-.2 0-.1-.3-.3-.3.1 0 .9 0 1.1.1zM369.6 84.5c.2 0 .4 0 .4.3-.1.1-.2.1-.4.1v-.4zM366.5 22.5c0 .1-.2.8-.6.8 0-.1-.1-.1-.2-.1.1-.6.6-.5.8-.7zM366.1 79.7c.3 0 .1.4.3.4-.5.1-.2.4-.5.7-.3 0-.4-.2-.4-.5.5.1.5-.3.6-.6zM365.5 78.6c.4-.1.2.3.6.3-.1.1-.6 0-.6-.3zM365 81.2c.3-.3.8 0 .8.4-.4.2-.6-.2-.8-.4zM365 79.2c0 .5-.5.4-.7.7 0-.6.2-.8.7-.7zM363.5 79.3c.2.1-.1.4 0 .8-.2 0-.2.2-.5.1-.2-.4.2-.4.2-.8.1-.1.2-.1.3-.1zM362.6 81c0 .4 0 .7.1.9-.5 0-.5 0-.9-.2.2-.4.3-.7.8-.7zM361.8 77.4c.2 0 .4 0 .4.3-.2.1-.4-.1-.4-.3zM361.3 79.3c.6.2.7.6.5 1.2-.1-.5-.3-.7-.5-1.2zM362 82.2c-.2.2-.4 0-.7 0-.1-.3.1-.5.2-.7.2.2.4.4.5.7zM360.6 81.7c.3.6.2 1.1.1 1.8-.4.1-.6-.1-1-.1 0-.7 0-1-.1-1.5.3-.3 1 .2 1-.2zM358.8 22.7c.1 0 .2.1.2.3-.2.1-.4.3-.6.1.1-.3.4-.2.4-.4zM358.9 80.3v.4c-.3.1-.8-.1-.9-.5.1-.1.4 0 .4-.2.4-.1.1.5.5.3zM358 21.5c.2-.3.2.2.4.2-.1.3-.5 0-.6-.1 0-.2.5.2.2-.1zM357.2 80.1c.3-.1.2.1.5.1-.1.3-.2.6-.7.7 0-.1 0-.2-.1-.2 0-.1.1-.1.1 0 .2-.1.1-.4.2-.6zM357.2 85.3c.3 0 .3.4.2.6-.3 0-.3-.5-.2-.6zM356.5 23.1c0-.3.6-.3.5.1-.3.1-.3-.1-.5-.1zM356 85.4c.3 0 .3.4.2.5-.3 0-.4-.4-.2-.5zM356.1 20.1c.3.1 0 .5-.3.5 0-.3.3-.3.3-.5zM353.2 78.2c-.1.2-.2.4-.6.4 0-.3.3-.4.6-.4zM352.2 80.9c-.1-.3 0-.6.5-.6 0 .3-.3.4-.5.6zM351.8 77.6c.3 0 0 .5.2.5-.2 0-.4.1-.4.3-.3-.3-.5-.5-.9-.7-.1-.3.1-.2.1-.5.5 0 .6.3.6.8.1-.2.5-.1.4-.4zM351.2 22.3c.2 0 .4.1.4.4-.3-.1-.4-.2-.4-.4zM350.3 78.4v.4h-.4c.1-.3-.2-.3 0-.5.2 0 .3.1.4.1zM349.7 77.1c.3 0 .5 0 .5.4-.4 0-.5-.1-.5-.4zM348.8 90.2c-.4-1.2 1.6-1.2 1.1.1-.1.2-.2.2-.4.4-.4-.1-.6-.3-.7-.5zM349.2 81c.4 0 0 .5.2.5-.2.2-.4-.4-.2-.5zM348.8 78.5c0-.3.1-.4.4-.4 0 .3-.1.4-.4.4zM348.6 85.9c-.7-1.6 1.7-.3 0 0zM348.2 79.7c-.1.2-.4.2-.3.6-.3 0 0-.7-.5-.6.2-.3.4 0 .8 0zM346.2 81.9c.1.4-.2.3-.2.6-.2-.2-.2 0-.5 0 0-.3 0-.5.1-.7.3-.1.3.2.6.1zM343.2 81.2c.1.5-.2.6-.3.9-.4 0-.2-.4-.7-.3-.2-.7.3-.7.5-1.1.2.1 0 .7.5.5zM342.2 79.5c.4 0 .3.3.2.6-.3 0-.2-.3-.2-.6zM340.6 128.5c-.2.2-.2 0-.5 0-.1-.3.1-.2.1-.5.3 0 .3.2.4.5zM340.1 77.8c.1.3-.1.4-.1.7-.3 0-.2-.4-.5-.5.1-.1.4-.2.6-.2z"/><path class="st0" d="M339.2 77.5c.3-.1.3.2.6.1-.1.4-.6.1-.6.8-.2-.2-.4.1-.8 0-.1-.7.7-.5.8-.9zM338.1 20.8c.1-.3.1.2.4.1 0 .1-.1.1-.1.3h-.3c0-.2.3-.4 0-.4zM337.7 101.6c.3.2.4.3.3.7-.5.2-.5-.5-.3-.7zM337.7 21.4c.4 0 .6.1.6.4-.2-.2-.8.1-.6-.4zM337.3 79c-.3 0-.5.5-.8.3-.2.1.3.4-.2.4.1-.4-.2-.8-.4-.6-.2 0 .1-.3.1-.4.5 0 1 .1 1.3.3zM335.8 20.3c.3 0 .5 0 .5.3-.2.2-.5 0-.5-.3zM334.1 79.1c-.1.5.3.6 0 .8-.2-.1-.3-.4-.4-.7.2 0 .1-.2.4-.1zM333.7 79.2c-.2.6-.4-.1-.9 0 0-.4.5-.3.6-.4.1.1 0 .4.3.4zM333.1 22.4c.2 0 .4 0 .4.3-.2 0-.5 0-.4-.3zM333 80.1c0 .3-.6.4-.6 0h.6zM332.7 22.4c.2 0 0 .3.1.5h-.5c-.1-.4.3-.3.4-.5zM332.9 79.3c-.1.2-.3.7-.7.4.1-.3.4-.4.7-.4zM331.8 79.3c.2 0 .3.1.3.3-.2 0-.2.2-.5.1.1-.1.2-.2.2-.4zM331.8 21.3c-.1.2-.2.3-.2.6-.3-.4-.3-.3-.6-.7.3.2.5-.1.8.1zM331 20.8c.1-.3.2 0 .6-.1-.1.1-.1.3-.4.3-.1-.1-.1-.2-.2-.2zM331.1 76.8v.4c-.3 0-.3-.1-.3-.4h.3zM330.1 77.3c0 .3-.4.4-.7.2.1.2-1 1.1-1 .1.3-.1.3.1.6-.1 0-.1-.3-.1-.2-.4.7-.1.9.1 1.3.2zM328.2 78.5c.1 0 .1.1 0 0 0 .2.1.2.2.2 0 .2-.4 0-.4.3-.3-.2.1-.4.2-.5zM327.3 77.4c.1.2.4.3.3.8-.3-.1-.4-.7-.3-.8zM327.5 22.6c0 .2 0 .4-.3.4v-.5c.1-.1.1.1.3.1zM327.1 79.1c0 .3-.2.4-.3.6-.2-.1-.5-.2-.6-.5.1 0 .1.1.2.1s.1-.2.1-.4c.3-.1.4.1.6.2zM325.6 76.6c.2 0 .4 0 .5.1 0 .2-.3.2-.3.5-.3-.2-.1-.2-.2-.6zM325.6 77.6c.2 0 .3.1.4.1-.1.1-.2.2-.5.2 0-.1.1-.2.1-.3zM325.6 22c0 .2.1.2.1.4-.7-.1-.6.1-1.1.3.1.1.2.1.2.3-.2.2-.3 0-.6 0 0-.3.2-.4.3-.7.5.1.6-.3 1.1-.3zM323.2 20c.4-.1.4.4 0 .4-.1-.2 0-.1 0-.4zM322.3 79.2c-.1.1-.1.2 0 .2-.2.3-.4-.2-.6-.4.2-.2.3.1.6.2zM321.3 81.7c0 .3-.6-.1-.4.6-.2 0-.1-.3-.4-.2 0-.3.2-.3.2-.6.1.2.6 0 .6.2zM320.5 79.1c-.2.3-.6-.2-.3-.4.2-.1.1.3.3.4zM320.1 79.5c.1.4.1.3 0 .7-.2 0-.2-.1-.2-.2-.2 0-.2.1-.4.1.1-.3.1-.2 0-.5.3.1.3-.1.6-.1zM319.2 79.2c.3-.1-.1.4.2.4 0 .1-.2.2-.2.1-.1 0-.1.1-.1.2-.1-.1-.1-.4-.5-.3.2-.3 0-.3-.1-.7.1 0 .1 0 .1.1.2 0 .6.3.6.2zM318.6 76.9c.4.1.2.2.3.6-.5.1-.3-.4-.3-.6zM317.9 79c0 .2 0 .4.3.4-.2.3 0 .4-.3.6 0 .1.2.1.3.1 0 .4-.3.1-.3.4-.3-.3 0-.6-.3-.9-.3.1-.3 0-.5-.1.1-.5.4-.6.8-.5zM318 77.3c-.3.1-.4-.2-.8.1v-.5c.5 0 .7.1.8.4zM314.2 78.8c.2.4.6-.1.8.1-.1.3-.6.3-.9.5 0-.3.2-.3.1-.6zM314 22.9c-.3.1-.4-.1-.7-.1-.1-.3.2-.3.1-.6.5 0 .6.4.6.7zM313.1 79.3c.3.2.5-.4.9 0-.3.1-.2.7-.7.7.3-.4 0-.6-.2-.7zM313.2 76.9c.4-.1.5.1.5.5-.2-.4-.4-.1-.5-.5zM313.4 77.4c.3-.1.2.2.4.2-.1.1-.2.2-.4.2v-.4zM312.6 23.1c.1.7-.7.4-.3 0h.3zM312.2 22.1c-.2-.1-.1-.7.3-.6l-.3.6zM312.1 23.3c-.4-.1-.2-.5-.8-.3.2-.3-.1-.2-.1-.6.3.3.8.4.9.9zM310.8 79.3c.3.1.4.4.3.7-.2-.1-.3-.3-.3-.7zM310.6 76.7c0 .3.5.4.3.7-.3 0-.2-.3-.5-.3 0-.3.2-.2.2-.4zM310.3 21.8c.1 0 .1.1.3.1-.1.3-.2.5-.5.6.1-.2.2-.4.2-.7zM310.2 77.3c.1.1.3.1.3.4h-.3c0-.3-.2-.2 0-.4zM309.3 107.7c.9 0 1.4 1.2 1 1.8-.8-.1-1.3-.9-1-1.8zM309.8 23.4c.3 0 .5 0 .5.3-.2 0-.6-.1-.5.2-.3-.1.1-.3 0-.5zM309.6 77c.1.1.2.4.1.5-.4.1-.3-.2-.6-.2.1-.2.6 0 .5-.3zM306.1 21.1c.3 0 .2.6-.1.6 0-.3 0-.5.1-.6zM303.4 23c.1.1.2.1.4.1-.2.1-.3.3-.7.3 0-.2.2-.2.3-.4zM302.5 21.8c.1.3-.1.3-.2.5 0-.1-.5-.3-.6-.2-.1-.2.5-.1.8-.3zM302.1 76.6c.4-.1.5.4.1.4.1-.2-.1-.2-.1-.4zM300.9 75.8h.4c-.1.3-.2.5-.5.6 0-.3 0-.5.1-.6zM300.9 21.6c.2 0 0 .4.4.3 0 .4-.8-.2-.7.5h-.4c0-.3.6-.4.3-.7.1-.3.5.2.4-.1zM301 78.2c0 .5.1.8-.1 1.2-.2.1-.4-.3-.5 0-.3-.3-.6-.6-.7-1.1.4.1.6.1.6-.4.5-.1.3.4.7.3zM300.4 77.2c.4-.3.8.2.8.6-.5-.1 0-.7-.8-.6zM300.3 76.4c-.2.1-.1-.2-.3-.2-.1.1-.1.2-.3.2 0-.2 0-.5.1-.6.2.2.4.3.5.6zM298 77.7c.3-.1.2.1.5.1-.1.2-.2.5-.5.6.1-.5.3-.3 0-.7zM297.8 76.6c.4.1.1.6-.3.6 0-.1 0-.3-.1-.3.1-.4.3.1.4-.3zM295.4 78.2c0 .5.7.3.8.8 0 .4-.6.3-.9.6-.8-.5-1.5-1.1-1.8-2 0-.1.1-.1.1 0 .4 0 .1-.3.1-.5 1 0 1-1 1.6-1.4.2.3.2.4.3.8-.3 0-.4-.2-.6 0 .1.8.8 1.2.4 1.7zM294 23c0 .1 0 .2.1.2-.1.1-.2.2-.5.2.1-.2.2-.4.4-.4zM293.7 23.6c0 .2-.2.2-.4.2v-.3c.3 0 .3.1.4.1zM292.8 76.3c-.1.1-.6.1-.8 0 .1-.1.4-.1.4-.5.3.1.3.3.4.5zM292.2 23.4c-.1.3-.6-.1-.3-.3.3 0 .1.3.3.3zM291.7 77.2c-.1.4-.4 0-.7 0-.2.1-.1.4-.3.6-.7-.1-.1-.8-.5-1 0-.3.3-.2.2-.6.9-.1.6.8 1.3 1zM289.5 22.6c.1-.2.5-.4.8-.2-.1.2-.3.3-.5.5-.1-.2-.6 0-.6-.4.1-.1.2.1.3.1zM287.6 77h.1c0 .1-.1.1-.1 0zM287.3 75.6c.2.2.2-.1.4.1-.2.4.1.5-.3.9-.4-.1-.3-.5-.9-.3.3-.3.9-.4.8-.7zM287.5 77zM287.2 80.8c.2 0 .2.4.1.5-.2-.1-.2-.4-.1-.5zM285.3 76.6c.4 0 .3.4.4.7-.2 0-.3.2-.5 0 .1-.4.3-.4.1-.7zM284.5 74.9c0 .1 0 .5-.4.6 0-.2-.2-.3-.1-.6.2 0 .4.3.5 0zM284.1 23.1c.1.1.3.1.3.4-.1 0-.3 0-.3.1-.3-.1-.1-.3 0-.5zM280.8 74.1c.3-.1.3.7-.1.5-.1-.2.1-.2.1-.5zM279.2 21.7c0 .3 0 .5-.3.5-.2-.2 0-.5.3-.5zM276.2 78c.3 0 .3.4.2.6-.4-.1-.3-.2-.2-.6zM275.5 73.2c.2 0 .2.2.2.4-.3 0-.3.3-.5.1-.1-.4.2-.3.3-.5zM273.4 76.2c0 .3-.1.4-.2.6-.1 0-.1-.2-.3-.2.1-.3.2-.4.5-.4zM272.9 22.8c.3-.1.2.1.4.2 0 .2-.1.4-.4.4v-.6zM271.4 74.2c-.1.1-.1.3-.2.5-.1-.1-.2-.1-.3-.3-.1.2-.3.3-.5.4-.3 0-.2-.5-.2-.8.2 0 .3 0 .3-.2.6 0 .6.4.9.4zM269.1 72.5h.3c-.2.4 0 .7-.4.8 0-.4-.1-.7.1-.8zM268.4 78.9c.4.1.8.7.4 1-.6 0-.9-.6-.4-1zM268.1 73.1c.1.1.1.3.1.5h-.4v-.5h.3zM267 73.5c.2 0 .2.2.2.5-.2 0-.2.1-.2.2-.2-.3-.2-.5 0-.7zM266.8 20.2c.3.3 0 .7.4 1-.4 0-.5-.1-.8-.1-.2-.2.3-.6.4-.9zM265.2 74.6h-.4c.1-.3-.1-.2-.1-.5.3 0 .2-.3.4-.4.4.2-.2.6.1.9zM264.2 72.2v.4c-.4-.1-.5.2-.9.2-.2-.7.8-.1.6-.5-.1-.2.1-.1.3-.1zM264 75.1l-.3.9c-1.1.5-1.3-1.2-.6-1.6.5.1.5.6.9.7zM259.8 20.7c.1.1.3.1.3.4-.1 0-.1 0-.1-.1-.3.2-.3.7-.8.7.3-.4-.3-.2-.3-.3-.1-.1.4-.1.3-.4.2.2.6.1.6-.3z"/><path class="st0" d="M259.2 21s0-.1-.1-.1c.1 0 .1 0 .1.1zM259.1 20.5c.3 0 .4.2.5.5-.2-.2-.6-.2-.5-.5zM257.6 71c0 .2.1.4.1.7-.2-.4-.3-.2-.5-.6.1-.1.3-.1.4-.1zM256.8 100.7c.1.6-.5.6-.5 0 .1-.1.4-.1.5 0zM256 20.9c.2 0 .4 0 .4.3-.1 0-.2 0-.2.1-.1-.1-.2-.2-.2-.4zM256.1 21.3c.3.1-.1.3 0 .5-.3-.1-.2-.3 0-.5zM253 22.1c0 .2 0 .4-.3.4v-.4h.3zM251.5 73.7c.2.1.3.5-.1.5-.1-.3.1-.3.1-.5zM251.2 72.1c0 .3-.1.3-.4.3 0-.2.1-.3.1-.4.2 0 .2.1.3.1zM250 21.2c.2-.2.3-.3.6-.2-.2.4-.3.3-.6.2zM249.7 20.9c.3.2-.1.6-.4.5 0-.4.3-.3.4-.5zM248.4 82.7c.3-.1.3.3.3.6-.3.1-.2-.1-.5-.1-.1-.3.1-.3.2-.5zM245 72.3c.4.1 0 .3.1.7-.2 0-.6 0-.6-.3.4.1.4-.3.5-.4zM242.4 20.2c.1.6-.7.4-.6-.1.4.1.4 0 .6.1zM242.3 72.4zM241.7 71.9c0 .4.4.5.2.8-.7 0-.6-.2-.9-.3.1-.1.4-.1.3-.5.2.2.1-.1.4 0zM240.9 19.9c.2.2-.4.4-.6.3 0-.1.2-.1.2-.3.1 0 .4.3.4 0zM238.2 97.7c.7-.1 1 .5.8.9-.7.1-.8-.4-.8-.9zM238.6 72.5c.2 0 .2.1.4.1 0 .1-.1.2-.1.3-.3-.2-.2-.1-.6 0 0-.3.2-.3.3-.4zM236.8 21.4c0-.4.7-.6.6 0-.4 0-.3.1-.6 0zM237.3 96.9c-.1.1-.2.1-.4.1-.1-.3 0-.2 0-.6.4 0 .4.3.4.5zM236.9 70.5c.1 0 .2.1.3.1 0 .2 0 .5-.3.5-.2-.2 0-.3 0-.6zM236.2 71.3c.3 0 .3.7-.1.6-.1-.3.1-.4.1-.6zM235 71.1c0-.3.4-.2.4.1-.2.2-.2 0-.4-.1zM235.1 110.1c.2.1.3.2.3.5-.3-.1-.3-.3-.3-.5zM232.4 70.3c.4.1 0 .7 0 .9-.2-.1-.6-.1-.8-.3 0-.6.8.1.8-.6zM229.9 101.1c.1.1.1.3.1.5-.3 0-.4-.2-.4-.5h.3zM228.5 20.2c.4-.4.6.1.7.6-.3-.1-.3-.5-.8-.4-.1-.1-.1-.6 0-.8.1 0 .1 0 .1.1h.2c-.1.1-.2.3-.2.5zM228.3 69.5c.1.1.2.2.2.5-.2.1-.3.1-.7.1-.1-.3.2-.3.1-.6.2-.1.3.3.4 0zM228.4 21.3c0 .2-.3.2-.6.2 0-.1 0-.2-.1-.2.1-.2.5-.2.7 0zM226.4 21.8c0-.8.7-.5.9-.8-.2.4-.5.6-.9.8zM226.5 70.7c.6-.3.2.8.3 1-.5.1-.5-.8-.3-1 .1.1 0 .1 0 0zM225 70.5c.2-.1.1-.4.5-.3-.2.5-.6.5-1 .3-.1-.3.2-.2.2-.4.2 0 .2.3.3.4zM225 72.3c-.2 0-.2.1-.4.1 0-.4-.1-.3 0-.6.4 0 .4.2.4.5zM224.1 80.4c-.6-.5.6-1.3.7-.4-.2.2-.3.5-.7.4zM224.1 71.5c0 .5.1.6 0 .9h-.4c.1-.6 0-.9-.3-1.1.4-.2.3.3.7.2zM222.4 69.4c.3 0 .3.2.3.5-.3 0-.3-.2-.3-.5zM222.3 71c.2 0 .1.3.4.2-.1.5 0 .4 0 .9-.4-.2-.3-.8-.4-1.1zM220.3 70.7c0 .5.1.6 0 1.1-.1-.1-.3-.1-.3 0-.1-.1.3-1.1-.2-.9-.1-.3.2-.2.2-.4.1.1.1.3.3.2zM218.3 73.2c-.3.1-.4-.1-.6-.2.2-.3.6-.1.6.2zM218.1 70.2c.3.1.4.4.5.8-.2 0-.3.2-.6.1.1-.4-.2-.3-.2-.6.2.2.3 0 .3-.3zM216.7 72c-.4-.1-.1-.6.3-.6l-.3.6zM216.9 70c.1.3-.4.2-.5.1 0-.2.5-.3.5-.1zM216.6 20.4c0 .4-.2.1-.5.3 0-.3.3-.3.5-.3zM216 69.3c0 .2 0 .4-.3.4 0-.2 0-.4.3-.4zM215 82.4c.6 0 .8.9.2 1.2-1 0-.7-1.2-.2-1.2zM214.9 20.1c.2 0 .4 0 .5.1-.1.1-.3.1-.5.2v-.3zM213.1 21c0 .3-.4-.3-.3.2-.3 0-.3-.3-.5-.3.1-.5.4.2.6-.1.2 0 .1.2.2.2zM212.9 69c.3.1.1.3.1.6-.3 0-.3-.4-.1-.6zM212 69.7c.3 0 .1.6.2.9h-.4c.2-.4-.4.2-.7.2v-.4c-.4.1-.3.3-.4.6-.2-.3-.6-.4-.7-.8.3-.1.4.2.6-.2.2.1.4 0 .5.2.3-.2.8-.4.9-.5zM211.9 76.3c.1.2.2.6 0 .8-.3.1-.4-.1-.6-.2 0-.4.2-.6.6-.6zM211.3 79.8c-.2-1.3 1.3-.6.7.1-.4.1-.5 0-.7-.1zM211.2 72.5c-.1.7.2.3-.1 1-.3-.1-.5-.4-.5-.9.2 0 .1-.3.4-.2 0 .1.1.1.2.1zM208.3 20.5c.3 0 .7.5.3.7-.1-.2-.2-.5-.3-.7zM207.7 75.2c0 .4-.2.6-.6.6-.1-.3-.1-.6-.1-.9.4-.1.4.2.7.3zM205.7 95.8c1.1-.2 1.7 1 1.4 2.2-1 .4-1.3-.3-1.7-.8 0-.6.1-1 .3-1.4zM206.3 70.2c-.6.5.9.1.8.8-.3 0-.5 0-.6.2-.1-.3-.6-.5-.8-.2-.2 0 0-.4-.1-.6.3 0 .5-.2.7-.2zM206.3 69c.1.3-.6.3-.4-.1.2.1.4 0 .4.1zM204.5 89.7c.4.3.6.3.6.8-.2-.1-.5-.3-.6-.8zM201.6 72.1c-.2.1-.7-.1-.8-.4.1 0 .2 0 .2-.1.3.1.3.4.6.5zM200 71c.4.1.1.6-.3.5.2-.1.2-.3.3-.5zM199.7 74.2c-.1.1-.1.2-.2.3-1.3 0 .2-1.7.2-.3zM198.8 72.4c.3.1.6.4.4.8-.3 0-.2-.3-.6-.2.1-.3-.1-.4.2-.6zM192.9 69.7c.2-.2 1-.1.9.6-.8-.1-.4-.4-.9-.6zM191.7 71.3c1.3-.7 2 .9 1.3 1.8-.5-.1-.6 0-1.1 0-.4-.5-.5-1.1-.2-1.8zM192.3 69.7c.2-.3.5.2.3.4-.3 0-.1-.4-.3-.4zM192.2 70.5c-.1.3-.2 0-.6.1 0-.2.1-.3.1-.4.3-.1.3.2.5.3zM191.6 22.8c.1.4-.2.4-.5.5.1-.3.1-.6.5-.5zM190.7 69.8c.2.1.7.7.1.8.1-.7-.4-.3-.4-.8.1.1.3.2.3 0zM190.1 21.5c.1.7-.5.6-.9.7 0-.3.3-.2.2-.6.3.2.3.1.5-.2 0 .1.1.1.2.1zM189.7 70.7c.2.2.1 0 .4 0-.3.3-.2.6-.5.9-.3-.2-.1-.6.1-.9zM188.5 70.2c.4 0 .3.4.2.7-.5 0-.3-.5-.2-.7zM188 21.8c-.2.2-.4.1-.5-.1-.2 0-.1.4.1.3-.1.3-.3-.1-.5-.1.1-.2.9-.7.9-.1zM187.5 71.9c-.5.1-.8-.2-1.2-.4 0-.4.6-.3.7-.6.4.1.4.6.5 1zM186.6 75.1c.1.4-.1.8-.3 1.1-2.1.5-.3-2.9.3-1.1zM185.9 21.3c.2 0 .2.4.1.5-.3-.1-.1-.2-.1-.5zM185.3 70.1c-.2.1 0 .6-.4.5-.1-.4.1-.5.4-.5zM184.9 71.6c-.2.2-.6 0-.5-.4.3 0 .5.1.5.4zM183.3 69.2c.1-.3 1.2-.8 1 0-.4.1-.6.2-1 0zM183.8 74.2c.4 0 .4.4.2.6-.4.1-.2-.4-.2-.6zM183.4 79.4c0 .3-.1.4-.2.7-.3.1-.5-.1-.7-.2.1-.4.5-.9.9-.5zM182.8 68.6c.1 0 .1.2.3.2 0 .3-.2.4-.5.4.1-.2.3-.3.2-.6zM179.2 22.4c.2-.1.7-.3.8-.1-.1.3 0 .7-.5.7 0-.2-.1-.5.2-.4 0-.2-.2-.2-.5-.2zM178 68.4c0 .2 0 .5-.1.6-.2-.2-.4-.6.1-.6zM176.8 69.7c0 .1-.2.1-.2.3-.1-.1-.3-.1-.3-.4.1 0 .2 0 .2-.1.1.1.1.2.3.2zM175.1 69.2c.3.7-.9.1-1.1-.1.4-.5.8.7 1.1.1zM173.8 67.9c0 .2 0 .4-.3.4 0-.3.1-.4.3-.4zM171.3 69.2c1-.4 2 .1 1.8 1.7-.9 1-2.5-.2-1.8-1.7zM170 75.2c.4.6.1 1.4-.5 1.6-1.2-.2-.8-2.4.5-1.6zM169.2 21.5c.2.1.3.5-.1.5-.2-.2.1-.3.1-.5zM168.3 84.8c.2 0 .4.1.4.4-.4.1-.5-.1-.4-.4zM167.1 22.8c0 .2-.2.2-.1.5-.4.1-.3-.6.1-.5zM164.7 18.5c.2-.3.8-.4.8.2-.4.2-.7.1-.8-.2zM165.1 23c.1.3-.2.2-.2.4-.2 0-.1-.3-.3-.3 0-.2.3-.2.5-.1zM156.4 69.2c.2-.3.7.2.4.4-.4.1-.2-.3-.4-.4zM156.3 69c-.3.1-.3-.1-.3-.4.2-.1.2.2.3.4zM154.5 70.9c0 .3.1.6-.1.8-.4.2-.5-.1-.8-.3 0-.4.4-.7.9-.5zM152.3 78.1c-.1-1.2 1.4-.8.9.2-.4.1-.6-.1-.9-.2zM152.8 68.8c.1 1-.4 1.1-1.3.9-.3-.4.6-1.4 1.3-.9zM149.7 22.5c.3-.2.7-.2.5.2-.1-.3-.5-.2-.4.2-.4-.1-.4 0-.7-.2 0-.2.1-.4.3-.6.2 0 .3.1.3.4zM147.2 68c0 .6-.8 0-.8.4-.4-.1 0-.3 0-.6.3 0 .4.3.8.2zM142.8 68.6c0 .2-.1.2-.1.4-.3 0-.3-.1-.3-.4h.4zM140.6 21.3c-.2 0-.2-.1-.2-.2-.2 0-.2.1-.4.1 0-.1.1-.1.1-.3.3 0 .5.2.5.4zM139.6 76.7c.3-.3.6.1.4.4-.2 0-.4-.2-.4-.4zM139.8 23c.3.1-.1.4-.1.5-.4-.1.1-.3.1-.5zM137.5 22.4h-.5V22c.3 0 .4.1.5.4zM134.2 70.1v.5c-.4 0-.5-.3-.4-.6.1 0 .2.1.4.1zM130.6 22.1c-.4 0-.9 0-.8-.5.5-.1.8-.1.8.5zM128.3 21.1c0 .3-.8.4-.6.6-.4.3-.2-.5 0-.7.2.1.4-.2.6.1zM126.5 20.5c.3.2-.1.3-.2.4-.1 0 0-.3-.2-.3.1-.3.3.3.4-.1zM125.6 70.1c0 .3.1.6-.2.6-.3 0-.4-.3-.4-.7.3-.1.3.2.6.1zM121.5 22.3c.4-.1.2.6-.1.5 0-.3 0-.4.1-.5zM118.7 72.8c.2 0 .4 0 .5.1 0 .3-.2.4-.6.4-.1-.2.1-.2.1-.5zM112.4 76.4c0 .3-.1.4-.4.4v-.4h.4zM112.1 20.9v.3c-.3-.1-.3.2-.5 0 .1-.1.2-.1.2-.3h.3zM111 21.1v.2c-.3-.2-.4-.1-.6-.2v-.2c.4-.2.3.4.6.2 0-.2 0-.1 0 0zM110.4 84.2c.4 0 .5.4.4.7-.4 0-.5-.4-.4-.7zM107.2 87.4h.4c-.1.1-.1.3-.2.5-.2-.1-.2-.3-.2-.5zM103.4 74.7c0-.3.6-.3.5.1-.2 0-.3 0-.5-.1zM103.7 77.9c0 1.7-2.5-.3-.8-.7.4 0 .8.4.8.7zM99.1 73.7c.2-1.2 1.7-.7 1.5.4-.1.5-.5.7-1.2.8-.1-.6-.4-.9-.3-1.2zM96.6 83.8c-.3.1-.5-.2-.3-.4.2 0 .2.2.3.4zM94 77.9c.6 0 1 .7.6 1.1h-.5c-.3-.1-.2-.7-.1-1.1zM89.4 83.6c.1.1.1.5 0 .7-.2 0-.4 0-.5-.1 0-.3.2-.3.2-.6h.3zM85.2 78.5c.3 0 .4.1.4.5-.2 0-.2.1-.4.1 0-.2-.3-.1-.2-.4.2 0 .2-.1.2-.2zM75.2 78.9c.2-3 2.4 1.1 0 0zM72.4 98.5c.4-.1.6.4.4.7-.5 0-.6-.4-.4-.7zM71 101.3c-.3 0-.4-.1-.4-.4.3 0 .4.1.4.4zM69.5 80.8c-.7-1.8 1.6-1.3.8.1-.3 0-.5-.1-.8-.1zM64.9 96.9c-.3-2.3 2.1-1.3 1.2.3-.5.2-1 0-1.2-.3zM62.9 88.8c0 .4-.4.3-.5.6-.2-.1 0-.7-.1-.9.3 0 .5.1.6.3zM52.3 95.1c-.2-2.1 2.1-.6.8.4-.4 0-.5-.3-.8-.4zM52.1 84.3c.3 0 .5.4.3.6-.5.1-.5-.5-.3-.6zM50.8 84.4c.2 0 .4.1.4.4-.2 0-.1.3-.4.2-.1-.1-.1-.4 0-.6zM50 83.6c.3 0 .3.1.3.4-.3 0-.5-.2-.3-.4zM47.4 79.8c0 .4 0 .7-.3.8-.8.1-.3-1.3.3-.8zM44.8 92.8c.2 0 .4.4.2.6-.4 0-.2-.4-.2-.6zM39.1 100.5c.3 0 .4.3.7.4-.1.4-.2.9-.8.9-.3-.4.3-.7.1-1.3zM13.6 34.8c-.2-.9.8-.8.8-.1-.2.1-.5 0-.8.1zM12.1 40.1c0 .2-.2.2-.4.2V40c.2 0 .3.1.4.1z"/></g><g id="_x31_054"><path class="st0" d="M476.4 377.2c.1 4.3-.8 8.6-1 12.6-.2.2-.1.6-.3.8.2 1.7-.2 3.3-.4 5.2.7 2.2 1.1 6.4-.1 8.4-.5 3.7-2.9 5.5-4.3 8.3 0 .7-.2 1.1-.4 1.5-.1 3.1 1.7 5.1 2.4 7.6.1.4 0 .7.1 1.1.3.9.8 1.6 1 2.6.2 1.3.3 2.7.6 4 .2.9.8 2.3.2 3.4 1 3.3 1.3 7.4.9 11.2.3 2.2 0 6.3-.1 9.5-.1 3-.6 5.6-.9 8.9-.5 6.2.3 10.9-.5 16.3.2 2.1.3 4.8.4 7.2.1 1.7 0 3.3 0 4.8 0 .6.4 1.2 0 1.7.4 1.3.9 2.7.4 4.3 1 1.6.5 4.1.6 6.3.1 2.6.1 5.3-.9 7.4-.7 1.4-2.1 2-3.3 2.9-1.9.5-4.7.6-6.1-1-.8-.9-1.9-2.9-2-3.8-.1-.7.2-1.5.1-2.1-.1-.4-.4-.8-.4-1.3-.1-1.1.1-2.4 0-3.7-.1-1.1-.6-2.3-.6-3.3 0-.4.2-.8.2-1.2.1-1.6-.9-2.5-.4-3.9-1.6-2.4-.8-5.7-1.5-8.3.4-3-.8-6.4-.6-9.5.1-1.9.2-3.8.1-5.7-.1-1.1.3-1.9.1-3-.3-2.1.6-4.7.4-7.3-.1-.9-.3-2.4-.3-3.5 0-2.6.4-5.2.5-7.5.1-.9.5-1.8.5-2.8.2-1.8-.2-3.8.1-5.5.2-1.2.3-2.8-.4-3.9.8-3.2-.2-6.6.6-9.8-.4-2.3-1.4-4.7-3-6.1-.2-1-.8-1.6-1.5-2.4-.7-.7-1.2-1.4-2.1-1.6-2.1-.4-3.9 1.1-6 1.6-.6.7-1.5 1.2-2.7 1.4-1.3 1-3.1 1.5-4.5 2.4-.4.2-.3 1-1.1.8-.6 1.8-2.2 2.5-3.8 3.3l-.3.9c-1.9.9-2.8 2.8-4.4 4 0 .9-.8 1-.6 2-1.2 1.7-1 4.1-2.1 5.8-.4 3.9-2.5 6-4.7 8.1-1 0-1.5.9-2.5 1.1-2.5.6-5.2-.8-7.2.2-.2 1.5.1 2.9 0 4.3-.2 1.9.6 3.9.6 5.8.1 1.7.2 3.4.1 5.2-.1 1.1-.4 2.3-.4 3.4s.3 2.1.2 3.1c-.2 2.4-.4 5-.8 7.3-.3 2.3 0 4.6-.2 6.9-.4 4.6.1 8.5-.9 12.7 0 2.2.1 4.8 0 7.2-.1 1.4 0 2.9-.4 4.1 0 .3.2.5.2.9-.3 2.5 0 5.2-.2 7.9-.1.8-.4 1.6-.4 2.4 0 .3.2.7.2 1.1 0 .7-.4 1.5-.4 2.3 0 1.3.5 2.9.5 4.6 0 .6-.2 1.2-.2 1.8 0 1.8.8 4.2.8 6.6 0 .4-.1.7-.1 1.1.1.7.5 1.4.5 2.1 0 .5-.2 1.1-.2 1.7 0 .9.6 1.7.8 2.6.3 1.6-.2 4-.2 5.5 0 2.2.5 3.8-.4 5.7-.1.3-.5.4-.6.6-.5.9-.8 2-1.6 2.7-1.8 1.6-4.6 2-7.3.5-1-1.3-2.4-1.7-2.8-3.4-.1-.3.1-.6 0-.9-.2-.8-.8-1.7-.9-2.7 0-.8.4-1.6.4-2.5 0-.3-.2-.6-.2-1 0-1.1.3-2.1.2-3.2-.1-.5-.1-1.1-.2-1.6s-.5-.8-.6-1.3c-.5-1.4-.2-3-.4-4.5s-1.3-3-.5-4.7c-.5-1.2-.8-3.3-.8-5.2 0-.5.2-1 .2-1.4 0-.6-.5-1.1-.5-1.7 0-.8.4-1.8.3-2.7-.2-2.4-1-5.2-.6-7.9.1-.6.2-1.4.2-2.4.1-.4-.4-.3-.3-.6 0-2.6-.2-5.2-.2-7.7 0-1.2.3-2.2.1-3.3-.5-3.6.9-7 .2-10.6.7-2.5.1-5 .2-7.5.1-1.5.5-2.9.5-4.5.1-3.2.6-6 .3-8.7-.2-1.7.3-3.4.2-5-.1-3.3-.4-6.2-.6-9.9-.1-1.3-.7-2.4-.2-3.7-1-3.2-1-7.7-.9-11.6-1.4-2.4-1.1-5.8-2.9-7.7-.2-1.3-1.2-1.9-1.4-3.2-.4-.3-.7-.6-1.1-.9-.2-.6-.6-.9-.8-1.5-1-.7-1.3-2.1-2.3-2.9-.2-1.7-1.6-2.6-2.4-3.9-.2-.4-.2-.9-.4-1.3-.3-.6-.8-1-1.2-1.6-.4-.7-.6-1.5-1-2.3-.6-1.3-1.4-2.8-2-4.2-2.2-.9-3.5 1.4-4.5 2.7.3.8-.2 1.7-.5 2.3-.4 2.2.1 4.6-.5 6.4 1.4 5.9-2.1 12.6-8.4 9.8-1.8-1.1-2.2-3.4-3.1-5.4-.2-2-.2-4-.5-5.8-.2-1-.9-1.8-1.1-2.7-.4-1.5.2-3.6-1-5.2.6-3-1-4.7-1.7-7-1.9-2.7-2.6-6.1-4.7-8.7-.8-.8-2.1-1.3-2.9-2.1-1.2 0-1.9-.5-2.9-.8-.3-.1-.3.3-.5.3-1.1-.1-2-.8-3.1-1-1.3-.2-2.5.1-3.8-.1-1.2-.2-2.3-1-3.4-.9-.4 0-.8.4-1.2.4-.7 0-1.5-.4-2-.8-.3.1-.5.4-.8.5-1.4.2-3.3-.4-4.5-.1-.5-.1-.6-.6-1.3-.4-.1-.6-.9-.5-1.1-1.1-.8-.1-1.6-.4-2-.9-2.3-.2-4.7-.6-7.4-.5-1.1 0-2.1-.2-3-.4-1-.2-1.7-.7-2.6-1.1-1.1-.4-2.3-.4-3.1-1.1-.7.1-1.5.8-2.1.2-1 1.1-3-.1-4.2.6-1.6 0-2.8-1.1-4-.5-1.2-.9-2.4.1-3.8.1-.4 0-.8-.3-1.3-.3-.3 0-.7.1-1.1.1-.5 0-1-.4-1.5-.4-.2 0-.5.1-.8.1-1-.2-2.6-.9-3.7-1-.6-.1-1.4.4-2-.1-2.2.3-5 .2-6.7-1.1-4.2.2-6.6.7-10.3-.1-1-.9-3.1-.9-4.6-1.2-1.8.8-3.5.6-5.7.9-.9-.7-3.1-.1-3.8-1.1-4.6.3-9.9-.5-15 0-.6-.4-1.1-.2-1.9-.2-.8 0-1.5-.4-2.3-.4-.4 0-.7.2-1.2.2-.4 0-.9-.2-1.3-.2-1.2 0-2.3.3-3.4.2-2-.2-3.8-.9-5.9-.5-2.9-.6-5.5.8-8.3-.2-1.8.5-3.1 0-5.4.1-1.5.3-4.9.6-6.7.1-.3-.1-.7-.5-1-.5-.4-.1-1.6.4-2-.2-2.4.6-5.3.6-7.9.1-.5.3-.8.3-1.5.2-1.4.8-3 .2-4.7.3-.8.1-1.4.6-1.9 0-2.3.6-4.9.8-6.9.6-2.1-.1-4.4 1-6.9 1.1-.4.1-.6.4-1 .5-1.3-.1-3-.5-4 .3-.2.2-.1.5-.3.8-.4.5-1.5 1-1.6 1.8-2.2 1.8-5.1 1-7-.6-.3-.2-.4-.7-.6-.9-.4-.3-1-.4-1.1-1.1-1-.1-2.1-.6-2.9-.4-.6.2-.7.9-1.4.9-.4 1.6-.9 2.8-2.4 3.5-1 .5-.8.3-2 0-.4-.1-1 0-1.4-.1-.2-.1-.4-.5-.8-.6-.3-.1-.7-.1-.8-.1-.4-.3-.4-.8-1-1-.4-.1-1.5-.1-2-.1-1.3 0-2.3.2-3 .9h-.8c-1.1.6-2.5 1.6-4 1.6s-2.3-.9-4.1-1.1c-.5 0-.9-.4-1.4-.4-1-.2-2.5 0-3.4.2-.4.1-.7.4-1 .5-.5.2-1.1.1-1.5.3-.9.4-1.6 1.1-2.9 1.5-.9-.3-1.4.3-2.1.4-1.2 1.7-2.9 3-3.1 5.7-.2.2-.3.5-.4.6-.8 3.9 1.2 11.1-1.1 14-1.1 1.4-4.1 2.3-6.2 1.2-.1 0 0-.3-.2-.4-.3-.2-.9-.4-1.2-.8-1.2-1.4-.9-2.6-1.1-4.7 0-.6-.3-1.1-.4-1.7-.1-.6.1-1.1-.1-1.7-.3-1.2-.6-1.9-.6-3 0-1 .2-3.2 0-4.1-.3-1.4-1.5-2.7-1.6-4.3-1.7-.4-3-1.3-3.9-2.5-1.4-.2-3-1.2-4.9-1.4-1.8-.1-4 .1-6.1-.2-.5-.1-.7-.3-1.1-.2-.5.1-.6.6-1.1.6-1.4.3-2.7.8-3.7 1.5-.1.3-.1.7-.1 1.1-1.6 3.2-1.3 6.4-1.9 10.4-.2.9 0 2.3-.1 3.5-.1 1.1-.5 3.1-.6 4.6l.3.9c-.9 3.1.8 8.3-1.2 10.6-.8.9-1.8 2-2.9 2.1-2.1.4-3.4-.5-4.6-1.4 0-.3-.2-.4-.2-.8-1.8-1.3-1.4-4.3-2-6.7-.3-1-.8-2.2-.4-3.4-.9-1.1-.8-4.9-.3-6.1-.1-.7-.7-1.3-.9-2-.4-2 .3-4.5-.1-6.3-.1-.4-.4-.6-.5-1-.2-.5-.1-1-.2-1.5-.3-1.5-1.2-2.7-1.6-3.9-1.7-1-2.2-3.2-4.4-3.8-.2-.7-1-.8-1.1-1.6-.5.1-.5-.3-1-.2-.4-1-1.6-1.3-2.4-1.9-1 .2-1.6-.7-2.3-1.1-.7-.4-1.5-.5-1.8-1.4-.8 0-.9-.7-1.7-.8-.1-.5-.7-.4-.6-1.1-2.3-1.8-4.1-4-5.8-6.4-.2-.3-.4-.5-.8-.5-.7-2.4-2.9-3.9-3-6.4-.9-1.4-1.6-3.5-1.5-5.9-.9-.4-.4-1.7-1.4-2.1h.5c.1-.8-.4-1-.5-1.6.3-1.1.5-2-.1-2.9-.4 0-.2.5-.6.2-.2-.8.7-.8 1.1-1.3-.4-1.5.4-2 .8-3.2 0-.5-.6-.3-.5-.8.2-.4.8-.3.8-.9-.3-.4-.4 0-.8.1.4-.2-.3-.5 0-.5 0-.4.3.2.8-.1 0-.7.1-2.2 1.2-2.6-.1-.2-.4-.1-.3-.5.1 0 .1.2.1.3.8 0 .1-.6.3-.9.1-.4.4.4.6-.2 0-.4-.8-.1-.6-.8.3-.3.7 0 1 .1.2-.6 0-1.6.6-1.7.5-.1.4.5 1.2.1-.1-.4.1-.5-.2-.6.9-.8 2.7-.7 2.6-2.1.2 0 .1.4.2.4s.1-.3.1-.4c.4.6 1.1 0 1.5-.3.9 0 2.2.1 2.8-.5 1 .4 2-.5 2.9.1.7-.3 2 0 2.5-.6 1.7-.1 3.4-.1 4.8-.6.8.5 2.1-.2 2.9-.6.4.2.8.5 1.3.6.9-.4 1.8-.4 2.9-.6.7-.1 1.5-.6 2.3-.6 1.4 0 3.5.3 5-.3 3.1.2 6.3 0 9.7-.1 2.2 0 4.3.3 6.3.4 3.6.3 7.9.1 11.5.3 1.1.1 2.1.5 3.3.5.8.1 1.6-.3 2.4-.1l.3.3c.2 0 .5-.2.8-.2.7 0 1.7 0 2.4.1.3 0 .5.3.9.3.9.2 2-.2 2.9-.1 1.3.1 2.7.5 4.1-.1 1.3 1 3.6-.1 5.2.6.2-.2.8-.1.9-.4.4.6 1.2.1 2 .2 1.2.1 1.9.3 2.9.2 1.4-.2 3 1.1 4.2.2 1.2.2 2.5.6 3.9.2 1.8.7 3.2-.2 4.7.5 2.5-.4 4.2-.1 7-.2.7.5 1.7.3 2.4-.1.3 0 .3.2.3.4 1.9-.5 3.2-.3 5.3 0 .3-.1 0-.7.2-.9.4.1.6-.1.9.1.2.5-.4.3-.3.6.5.2.7-.2 1.3-.2.6.4 1.2.3 1.8 0 1.4.8 2.6 0 4 .1.3 0 .2.3.4.3.1 0 .5-.1.8-.1.6 0 1.5.1 2.4.1.2-.1.4-.1.3-.4 1.6.6 3.6.9 4.9.5 1.1.8 2 .1 3.5.8.7-.3 1.1.2 1.6-.3.4 1 1.5-.3 2 .4.7-.5 1.9-.3 2.5.1.4-.1.9 0 1.1-.3.1.1.2.3.4.3 1-.5 2.7.6 3.4 0 .5.5 1.6.8 2.1.1.5.2 1.1.4 1.6.1.4.1.6.4 1 .4.7 0 1.7-.5 2.1 0 .3.1.3-.2.4-.3.2.1.4.3.5.4.8-.6 1.3.3 1.9-.2.4 0 .5.3.8.4 1.1-.4 2.4-.4 3.2-.1.3 0 .4-.2.5-.4.2.2.9.5 1.1.1.4.5 1 0 1.4.1.1 0 .2.3.3.3.3.1.8-.2 1.3-.1.3 0 .8.4 1.3.3.7-.1 1.2-.3 2-.2.8.1 2 .1 2.9.1.2 0 .4-.2.5-.2.3 0 .1.2.3.3.6.2 1.4-.3 1.9.1.4-.2.8-.3.8-.8.4 0 .2.5.5.5.7.1.4-.8 1.1-.8.4.1 0 .6.2.9 1-.3 1.3.2 2.7-.1.1-.5.1-1.3.5-1.2.3.2-.4.8-.1 1 .6.5.4-.6.9-.6 0 .3.2-.1.4 0s.2.4.2.8c.5-.6 1.9.3 2-.4.2.1.4.1.5.3.6 0 1-.4 1.5-.4.3 0 1 .4 1.3.3.4-.1.7-.5 1.2-.5.7-.1 1.7.5 2.4-.1.4.6 1 .2 2 .2 1.4 0 2.2.8 2.9-.2 3.5 1.1 6.5.1 9.8.9.3-.3.9 0 1.2-.4 1 .5 1.6.1 2.4.5.4-.2-.1-.5.3-.6.9.3 2 1.1 3 .4.6.8 2.1.1 3.2.1s2.1.6 3.3-.1c1.7.6 4.2.6 6.2.4 1.1.6 2.5.4 3.7.1 2.5 1.1 5.4-.6 7.7.8 3.4-.5 6.2-.1 9.2 0 .2-.2.5-.1.6-.3 1.6.4 2.8.1 4.3.1.1-.5 0-1.2.9-1.2.4.4.2.9-.1 1.3 1.7.1 4.1.4 6.4.1.6.3.9.3 1.5.5.7-.3 1.9-.3 3.2-.2.2 0 .4.2.5.2.4 0 .5-.2.9-.2.3 0 .5.3.9.3 2 .3 4.3-.2 5.9.4.4-.4 1-.3 1.6-.1.3 0 .4-.2.5-.3.4-.2.1.4.3.3 2.5-.1 5-.2 7.7.1 2.6-.7 4.6.3 7.1-.2 1.8.6 3.8 0 5.6-.4 1.8.4 3.7-.4 5.3-1.1 1.7.7 3.8.4 5.6.6.6.1 1.1.5 1.7.4.9-.1 1.7-.7 2.6-.8 1.9-.1 3.9.6 5.6-.5 1.9.7 3-.9 4.5-1.7.4-.2.7-.1 1.1-.3.8-.4 1.7-1.4 2.9-1.6.8-.5 2-1.6 3.3-1 0 1.5-1.4 1.6-2.7 2.3-1.2.6-2.2 1.1-3.4 1.8 1.1 1.1 3.3-.2 4.5.6 1.2-.6 2.6-.2 4-.3 1.2-.1 2.4-.8 3.7-.2.6-.3 1.4-.4 1.8-.9 1.6 1.2 4.3.4 6.9.3 1.4-.1 2.6.4 3.7-.5 1.6.1 4.3.2 6.2.2 1.1 0 2-.2 3-.3.7-.1 1.3.2 1.9.2.7 0 1.5-.2 2.1-.2.2 0 .4.2.5.2.9-.1 1.9-.7 2.8-.4.2 0 .2-.2.2-.4.4-.1.2.4.5.3.6-.1 1.1-.2 1.6-.4.7-.4 1.1-.7 2-1.1.4-.2.9-.1 1.1-.2.6-.3 1-1 1.8-1 .2-.4-.3-.2-.2-.5.7.5 1.2-.5 2-.4.2-.1.1-.5.1-.8.5.8 1.3-.2 1.4-.8 1.3 0 2.6-.4 3.5-1.3.2.2.7.4.6-.2.3.3.6.4 1 .4.5 0 .7-.5 1.2-.6.2-.1.5.1.8.1.8-.1 1.9-.4 2.9-.5 1.4-.2 3.1-.7 4.1-1.2.8.2 2.3.6 2.9 0 .4 0 .4.5.8.6 1.6 0 3.4.3 5 .6 1.2.2 2.3.8 3.4 1.1 1 .3 2.1.2 3.1.5.3.1.5.4.8.4 1.5.3 3 .1 4.4.4 1.2.3 2.1 1.1 3.2 1 .3.3.8.3 1.1.6 3.7.5 5.9 2.4 9 3.4.5 0 .3-.7.9-.6 0 .2.5 0 .5.2.1.3 0 .5-.2.6.6 1 1.8 1.4 3 1.8 1.7 1.6 4.5 2.1 5.8 4.2 2.6 1.4 4.4 3.7 5.3 6.9.8 1.3.9 2.8 1.1 4.3.1.6.4 1.1.5 1.7.1.5 0 1.1.1 1.6.3 2.2 1.2 4.3 1.4 6.6.3 2.6.5 6 .5 9.1 0 1.7-.3 3.3-.3 5 0 1.1.2 1.7.2 2.2zm-7.5 119.9c1.4-.3 1.7-2.5-.1-2.5-.5.7-.4 1.8.1 2.5zm-1.3 5.2c.6.4 1.7 1.5 2 .1-.4-.6-.7-1.4-1.4-1.7.2-.4.2-.7 0-1.2-.4.1-1.1-.1-1.2.5.9.5 1.3 1.5.6 2.3zm.2-25.7c0-.5-.3-.6-.5-.9.5-.1.8-.4.9-.9-.2-.4-.6-.7-1.1-.9-.6.7.2 1.4.1 2-.5-.2-.6.9-.6 1.5.3.2.4 0 .8 0 .1-.5.4-.5.1-1 .2.2.1.3.3.2zm-60.9 51.6c1.1-.2 1.4-1.5.4-1.9-.7.4-.8 1.1-.4 1.9zm-298.8-125c.3-.2.9-.1.8-.8-.5-.1-.7.1-1.1.1-.1.5.2.5.2.8-.1 0-.1.2-.2.2s-.2-.2-.4-.1c.1.3 0 .9.3 1 0-.2.4 0 .5-.1-.1-.4.3-.3.2-.6-.1-.3-.4-.2-.3-.5zm-34.8 9.2c-.3.1.1-.5-.2-.4 0 .3-.4 0-.4 0-.2.3-.1.4-.2.6.4.1.5-.1.8-.2-.1.1-.1.2 0 0zM563.4 308.7c-.6 1.1-2.3 1-3.5 1.4-.5.2-1.3.6-2.1.6 1.7-.8 3.6-1.8 5.6-2zM522.7 311.7c.3 0 .4.2.4.4-1.5.9-3.3 1.5-4.9 2.3 0-.5.6-.5 1-.6 1.1-.5 2.2-1.7 3.5-2.1zM514.5 327.6c.5-.4 1.5-.8 2.3-.5-.2.6-1.5.7-2.3.5zM513.1 328.1c.1-.5.6-.4.9-.3-.1.3-.5.2-.9.3zM499.9 346.6c1.3 0 2.2-.2 3.8 0-.7.4-3 .3-3.8 0zM500.9 297.2c.1.6-.3.7-.8.5-.1-.5.4-.8.8-.5zM497.7 357.2c.1.3-.2.3-.2.5-.4 0-.6-.1-.9-.2-.1-.6.9-.9 1.1-.3zM481.8 315c.1.4.2.5.1 1-.2.2-.6.3-1.1.2-.7-.6-.1-1.8 1-1.2zM478.3 329c.4-.3 1 .2.6.6-.3 0-.5-.2-.6-.6zM476.9 314.3c.1.3.1.2 0 .5-.4.1-.5-.2-.4-.5h.4zM473.8 337.2c0-.4.8-.5.6.1-.1.2-.5.2-.6-.1zM469.4 334.3c.5-.9 2.1-2.3 3.1-1.3-.1 1.3-2.1 1.2-3.1 1.3zM471.3 330.6c-.1.1-.1.2-.1.3-.3 0-.4 0-.5-.1-.1-.5.3-.5.6-.2z"/><path class="st0" d="M468.8 494.6c1.8 0 1.5 2.2.1 2.5-.5-.7-.6-1.8-.1-2.5zM469.6 502.5c-.3 1.4-1.4.3-2-.1.7-.8.3-1.8-.5-2.3.1-.6.8-.5 1.2-.5.2.5.2.7 0 1.2.6.3.9 1 1.3 1.7zM469 310.2c.1.7-.3.9-1 .9-.4-.7.2-1.1 1-.9zM468.5 302.7c.6-.1.5.8-.1.5-.1-.3 0-.4.1-.5zM467.3 475.7c.2.3.5.4.5.9-.2.2-.1 0-.4 0 .3.5 0 .4-.1 1-.4 0-.4.2-.8 0 .1-.6.1-1.7.6-1.5.1-.6-.7-1.4-.1-2 .4.2.9.4 1.1.9-.1.3-.3.6-.8.7zM464.9 336.8c.1-.5.8-.8 1.3-.5-.1.5-.8.8-1.3.5zM465 321.1c.2.8-.8.9-1.3.6 0-.1 0-.2-.1-.2-.1-.8 1.2-1 1.4-.4zM464.9 315.1c-.2.4-.3.8-.6 1-.8 0-1.4-.2-1.4-1.1.4-.6 1.7-.5 2 .1zM463.1 318.4c-1-.9.7-1.9 1.3-1-.1.7-.7.9-1.3 1zM463.8 333c0 .3-.2.3-.4.3 0-.2.1-.3.1-.4.2-.1.2 0 .3.1zM462.9 318.4c.3.1.3.6.2.9-.4.1-.6-.1-.8-.2 0-.4.3-.5.6-.7zM461.9 316.1c.1.4-.1.5-.2.8-.4.1-.7 0-.9-.2-.2-.8.8-1 1.1-.6zM461.5 321.7c.1.4-.1.6-.2.8-.3.1-.4-.2-.6-.2-.2-.7.4-.9.8-.6zM457.5 316.8c-.1.5-.4.8-.6 1.1-.7.1-1-.3-1.1-.9.3-.6 1.2-.8 1.7-.2zM453.7 318.1c.2 0 .2.1.4.1-.2.2-.2.5-.6.4 0-.2.2-.3.2-.5zM454.1 329.3c.1 0 .2.2.3.2-.2.3-.3.7-.4 1-.1 0-.1-.3 0-.3 0-.1-.2-.1-.2-.2-.1-.5.2-.4.3-.7zM450.6 312c.4-.1.6.1.5.5-.3.1-.2.1-.5 0v-.5zM449.1 327.7c0 .3-.2.4-.3.6-.3 0-.7-.1-.8-.3 0-.6.9-.6 1.1-.3zM447.8 329.4c.1-.1.4-.1.5 0-.1.2-.1.5-.4.4.1-.2-.1-.2-.1-.4zM447.6 294.4c.1.4-.1.6-.2.8-.5.1-.6-.2-.8-.4.1-.6.7-.7 1-.4zM444.1 326.6c.1 0 .2.1.2.3-.2.1-.3.3-.6.2-.1-.3.3-.3.4-.5zM440.1 310.8c0 .4-.1.5-.4.5 0-.2-.3-.1-.2-.4.2-.1.4-.3.6-.1zM436.7 323.5c.1.1.1.4.1.6-.3-.1-.3.2-.5.1-.2-.2 0-.5.1-.8 0 .1.2.1.3.1zM435.5 326.1c0 .3.2.3.1.6-.2.2-.7.2-.9 0 .1-.4.2-.7.8-.6zM433.8 316.3c-.1-.8.9-.9 1.2-.3 0 .5-.3.7-.8.8-.1-.3-.4-.2-.4-.5zM430.1 324.2v.4c-.3 0-.5 0-.4-.3.1 0 .2-.1.4-.1zM426.5 322.2c.2.9-1.2.9-1.1 0 .3-.3.7-.2 1.1 0zM424.7 324.5c.5 0 .7.3.6.8-.5 0-.6.2-.9-.1.1-.4.3-.5.3-.7zM425 306.4c-.2 1.2-1.2-.5 0 0zM423.6 323.2c.8-.4 1.3.1.9.9-.8.1-1.1-.5-.9-.9zM419.8 319.2c0 .6-1.1.7-1.4.3 0-.3 0-.6.2-.8.4-.2 1 .2 1.2.5zM419.2 323.3c.1.4-.2.6-.5.5 0-.2-.1-.2-.1-.4 0-.1.3-.1.6-.1zM416 320.2c.3 0 .5 0 .4.3-.1.1-.2.1-.4.1v-.4zM411.1 325.6c.3.1.3.4.3.8-.4.1-.4.2-.9.2-.2-.5.2-.8.6-1zM407.3 526.3c1 .4.7 1.8-.4 1.9-.4-.8-.3-1.5.4-1.9zM396.5 327.7c1.1.2 1.2 2.1.8 2.8-.8 1.2-3.1.8-3.3-.5-.2-1.3.8-2 2-2.1.2-.1.3-.3.5-.2zM394.7 326.2c-.4-2 2.8-.8 1.1.4-.5 0-.8-.2-1.1-.4zM375.9 332.3c.3 0 .5.1.4.5h-.4c-.2-.1-.2-.4 0-.5zM374.3 326c.1.6-.2.8-.6.8 0-.1-.1-.2-.2-.2-.2-.7.3-.8.8-.6zM371.5 491.9c.3.3 0 1-.2 1.2-.3-.3.1-.7.2-1.2zM353.7 324.9c.3 0 .5 0 .4.3-.1 0-.4 0-.4-.3zM352.3 333.4c0-.6 1-.5.9.1-.3.2-.7 0-.9-.1zM345.5 322.2c-.3-1.4 2.6-2 2.4 0-.6.8-2.2.9-2.4 0zM338.4 321c.3-1.4 2.6-.1 1.6 1.4-.9.1-1.7-.8-1.6-1.4zM337.5 324.4c.2.1.4.3.3.6-.3.2-.4.3-.8.1v-.5c.3 0 .4-.1.5-.2zM320.2 322.2c0 .6-.6.6-1 .5 0-.1 0-.2-.1-.2 0-.5.9-.7 1.1-.3zM309.4 322.3c-.1-.4.5-.5.8-.3-.1.4-.5.5-.8.3zM304.4 329.5c0-.7.8-1.2 1.2-.5 0 .5-.4.7-.9.8 0-.2-.1-.2-.3-.3zM303.8 330.2c.1-.1.5-.1.6 0 0 .3-.2.5-.5.4-.1-.1-.1-.3-.1-.4zM302.5 330.8c-.1-.6.6-.6.5-.1-.1.1-.3.1-.5.1zM297.1 313.2c.6.6-.3 1.2-1 .9-.1-.8.4-.9 1-.9zM297.1 326.3c0 .3 0 .6-.1.8-.9.4-.9-1.4.1-.8zM294.1 334.1c.2 0 .2.1.4.1 0 .1-.2.3-.2.1-.1 0-.1.1-.1.2-.2 0-.2-.2-.1-.4zM294.1 332.8c.1.4-.3.3-.6.3v-.3c.1-.1.5-.1.6 0zM293.8 301c.1.3-.1.4-.3.5-.3 0-.5-.2-.4-.5.1-.1.6-.1.7 0zM287.2 331.9c.3 0 .3.2.3.4-.2 0-.5-.2-.3-.4zM285.6 331.6c0 .3 0 .6-.3.5-.2-.2.1-.2 0-.5h.3zM280 327.6c.1.4-.2.5-.5.4-.1-.4.3-.3.5-.4zM279.7 308c.1.4-.3.2-.3.4-.3 0-.3-.4-.1-.5.2 0 .2.2.4.1zM275.5 324v.4h-.4c0-.3.1-.4.4-.4zM273.5 326.6c0 .2.1.2.1.4-.1.1-.5.1-.6 0v-.3c.1-.1.2-.1.5-.1zM262 324v.4c-.3 0-.5 0-.4-.3.1 0 .2-.1.4-.1zM259.6 315.1c0 .1 0 .2.1.2-.1.4-.3.6-.8.6-.3-.3.1-.9.7-.8zM257.3 325.4c0 .3-.2.4-.4.3 0-.2.2-.5.4-.3zM244 315.3c0 .4-.5.6-.8.3-.1-.4.5-.5.8-.3zM228.4 329.6c.4.3.5 1.2.3 1.6-.2.4-.7.4-1.3.6-1.5.7-3.9 1.7-4.8.1-.1-1.8 4.2-3.6 5.8-2.3zM225.7 321.6c-.1-.9.9-.9 1.3-.4-.1.6-.9.9-1.3.4zM225.3 321.9v.4c-.2.2-.6.1-.8-.1 0-.3.5-.6.8-.3zM222.1 325.9v.2c-.1 0-.2 0-.2.1-.1 0-.1-.1-.2-.1.1-.1.1-.2.1-.3h.2l.1.1zM218.7 325.3c.5-.1.4.7-.1.5 0-.2 0-.4.1-.5zM196.4 321.2c-.1.4-.8.4-.8-.1.2-.2.6 0 .8.1zM194.4 310.6c.3-.2.8-.1.8.3-.2.1-.3.3-.6.2 0-.3-.2-.2-.2-.5zM194.6 323v.6h-.5c0-.4.1-.7.5-.6zM175.5 327.1c-.7-.8.5-1.5.8-.5-.1.4-.3.6-.8.5zM175.3 310.2c.1.5-.1.8-.6.8 0-.1-.1-.2-.2-.2-.1-.8.4-.9.8-.6zM163.5 313.6c1.2-1.8 2.4 1.8.1 1-.1-.2-.2-1-.1-1zM163.4 308.2v.5c-.3 0-.3.2-.6.1-.2-.1-.2-.6 0-.8.2.1.5.1.6.2zM151.1 312.4c0 .4-.1.7-.2 1-.5 0-.4.1-.9 0-.7-.8.6-1.8 1.1-1zM146.8 324.7c0 .1 0 .2.1.2-.5 1.5-1.7-.8-.1-.2zM144.6 323.8c.1.7-1.3 1.1-1.4 0 .3-.6 1.3-.7 1.4 0zM140.9 328.9c.1.1.1.3.1.5-.2.2-.5.1-.8 0 0-.4.4-.5.7-.5zM139.1 321c.3 0 .6 0 .5.3-.2.3-.6.2-.5-.3zM130.3 307.9c.1.4-.1.6-.3.6-.3 0-.5-.2-.5-.5.2-.3.5-.3.8-.1zM127.4 329.8c.2.2.6 0 .5.4-.1.1-.4.1-.6.1 0-.2 0-.3.1-.5zM125.8 330.9c-.2.7-1.2-.1-1.4-.4.4-.3.9.1 1.4.4zM117 330.3c.5.5-.7.9-.6.2.3.1.2-.3.6-.2zM114.7 326.9c.3 0 .4 0 .5.1 0 .3-.2.5-.5.4-.2-.1.1-.1 0-.5zM112.8 329.4c.4-.1.7 0 .8.3 0 .4-.5.5-.9.3 0-.2 0-.5.1-.6zM108.8 402.4c.1.6-.4.6-.8.8-.1.3.3.2.3.4.1.3-.3.2-.2.6-.2.1-.6-.1-.5.1-.3-.1-.2-.6-.3-1 .2 0 .3.1.4.1.1 0 .1-.2.2-.2 0-.3-.3-.3-.2-.8.4.1.7 0 1.1 0zM98.2 296.3c.2 0 .2.1.3.1-.1.3-.3.5-.5.6-.4-.2.3-.3.2-.7zM90.1 329c.4 0 .6.2.5.6-.2 0-.3 0-.3.1-.2-.1-.4-.5-.2-.7zM77.9 329c.2.2.6-.1.5.4-.3 0-.5-.1-.5-.4zM76.7 326.7v.9c-.8.9-2.1.2-1.9-.8.1-.9 1.3-.8 1.9-.1zM76.1 325.4c.2-.1.3.5.1.5-.4.2-.2-.4-.1-.5zM75.3 328.9c.3.4.2.8-.4.8-.2-.4 0-.8.4-.8zM73.9 322.1c.4-.6 1.3-.5 1.3.4-.3.1-.6.3-1.1.2-.1-.2-.2-.3-.2-.6zM73.5 328.3c.1 0 .1.2.2.2 0 .2-.2.2-.4.2-.1-.2.2-.2.2-.4zM73 412c.3-.1-.1.5.2.4 0 .1-.1.1-.1 0-.2.1-.4.3-.8.2.1-.2 0-.4.2-.6.2 0 .5.3.5 0zM72.2 320.3h-.4v-.4c.2 0 .4.1.4.4zM69.9 320.6c0 .5-.2.7-.5.8-.5-.4 0-1.3.5-.8zM66.6 329.7c.3-.2.6-.1.5.4-.2 0-.5-.1-.5-.4zM65.6 323.2c0 .3-.3.4-.5.4-.2-.3-.3-.4-.1-.8.4 0 .5.2.6.4zM64.9 328.1c.3.1.3 0 .5.1 0 .2-.3.2-.5.2v-.3zM63.9 330.2c0 .4-.2.6-.5.5-.2-.3-.2-.2-.1-.6.2-.1.5-.1.6.1zM62.4 328.4c-.1.2-.1.4-.4.3 0-.2 0-.3-.1-.3 0-.2.5 0 .5 0zM59.8 326.7h.5c.1.3-.6.6-.5 0zM59.7 323h.5c0 .3-.2.4-.4.4 0-.1-.1-.3-.1-.4zM59.8 329.4c-.2.3-.7-.2-.9-.3.1-.6.4-1.1.3-1.3.2-.3.6.2.6.3 0 .3-.2 1 0 1.3zM55.6 330.5c0 .5-.2.7-.5.5 0 .3 0 .5-.1.6h-.6c0-.3-.2-.3-.1-.6.5-.1.7-.3 1.3-.5zM55.2 316.7c.3.1.4.7.1.9-.3 0-.5-.2-.5-.5.1-.2.3-.2.4-.4zM55.3 320.6v.3c-.2 0-.5.1-.4-.2.1-.1.2-.1.4-.1zM54.8 327c.3 0 .5 0 .4.3-.2.3-.5.1-.4-.3zM53.7 331.2c.1.3-.2.3-.1.5-.3 0-.4-.4-.6-.1-.2.3.2-.4.2-.5.3-.1.3.2.5.1zM35.5 367.8c.4 0 .3.4.2.6-.6.1-.5-.5-.2-.6zM34.4 345c-.4 0-.4.3-.5.5-1.1-.1-1.1-1.4.2-1.4.1.3.2.5.3.9zM34.1 356.5c.1.2.3.3.2.6-.3.3-.5.1-.8-.1.1-.3.2-.5.6-.5zM33 347.8c-.4-.3-.4-1.2.3-1.1-.2.5-.6.4-.3 1.1zM31.5 350.5c0-.5.7-1.1 1.1-.6-.3.3-.6.8-1.1.6zM31.4 347.6c0 .3-.2.3-.2.5-.3 0-.5 0-.6-.1 0-.4.5-.7.8-.4zM29.8 338.9c-.1-1.4 1.6-1.2 1.4-.2-.1.5-.9.7-1.4.2zM30.1 349.5c.8 0 0 .8 0 0zM27.7 351.2c.2.2.2 1-.3.9 0-.1.2-.2.2-.3-.2-.3-.1.4-.5.2 0-.5.2-.7.6-.8zM26.8 362.2c0 .3 0 .4-.1.5-.2-.1-.3-.2-.3-.4 0-.1.2-.1.4-.1z"/></g><path class="st1" d="M55.9 182.2c2.2.2 4.5.9 6.9 1.9H68c.2.8.6 1.4 1.2 1.9-.4 4-.4 8.9 0 14.6l-.7 2.6v1.9L68 207l.6 2.6v6.3l.7 2.6v12l-.7 1.9c0 1.2.2 2.4.7 3.8-.4 2-.4 4.5 0 7.6l-.7 1.3v3.8c-.1 2.4.1 5.2.7 8.2l-.7 5.7-.6 3.8c.4 1.3.6 2.9.6 5l.7 3.8c-.9 4.8-1.1 10.5-.7 17.2l.7 1.2-.7 2.6v5l.7 3.8.7 5.1-1.3 4.5c-6.9 3.2-14 3.4-21.5.6l-1.2-1.9v-43.1l.7-12.7-.7-6.3c.4-1.9.7-4.5.7-7.7v-11.4c-.1-3.1-.1-6.9 0-11.4.1-.4-.1-.9-.7-1.2l.7-1.3v-17.1c.2-3.6 0-8.2-.7-13.9v-1.9c2.5-1.8 5.9-2.8 9.9-3.3zm29.8-1.2c25 5.2 33.5 25 25.3 59.6-1.9.4-2.9 1.7-3.1 3.8-2.8.6-5.7 2.3-8.9 5l8.9 5.8 1.2.6c5.1 10.4 6.1 21.6 3.1 33.6-2 17-12.1 26.5-30.4 28.5-.5-2.9-.8-6.3-.7-10.1v-6.9l-.7-1.9-.4-2c9-3.4 12.5-10 10.7-19.7 2.1-8.9-1-15.2-9.5-19 .4-3.6.4-8.2 0-13.9v-4.5c8.2-2.1 11.6-8 10.1-17.7 2.2-8.7-.8-15.2-8.9-19.6.3-1.7.1-3.6-.6-5.7.9-4.8.7-9.6-.7-14.6 1.6.2 3.1-.2 4.6-1.3zM148 225.4l4.4 1.2c-.1 3 .3 6.3 1.2 10-.2 2.5.2 5.2 1.2 8.2v2.5l.6 1.2v2.6l.7 2.5 1.2 12.5c0 .6.2 1.3.7 1.9v1.9l.6 2.5c.2 3-.4 6.1-1.8 9.4v5l-.7 1.9v1.9l-.7 5.6-.6 1.2v2.5c-.9 3-1.3 6.8-1.2 11.3l-.7 1.2-.6 2.5c-3-.1-6.3.5-10.1 1.9l-8.1-.7h-3.8l-1.2-1.8c0-3 .6-6.2 1.9-9.4.2-3.8 1.3-8.4 3.1-13.8l1.2-8.8.7-3.7 1.2-4.4 1.8-8.8v-3.1l1.3-2.5c0-2.9.6-6.5 1.8-10.7l2.6-13.1 1.2-5v-2.5l2.1-3.1zm11.2-44.4c4.5 3 10 3.6 16.3 1.9.7 1.2 1.7 2.2 3.1 3.1 0 3.4.6 7.8 1.9 13.1v3.1l.6 2.5c0 .6.2 1.3.7 1.9l.6 5 .7 2.6v3.1c.5.1.9.6 1.2 1.3 0 .6.2 1.2.7 1.8-.2 2.5.2 5.4 1.2 8.8-.2 3.7.9 7.7 3.1 11.9-.1 3.5.5 7.2 1.8 11.3l.7 4.4c.4 2.9 1.2 6.4 2.5 10.6.2 2.8.9 6.2 1.9 10.1v1.8c0 .4.2.9.7 1.3l1.2 5v2.6l1.9 2.5.6 10 .7 1.2 2.5 10v4.4l-11.2-.6h-1.9c-1.8-.1-3.4 0-5 .6l-1.9-.6h-3.1c-2.2-5.1-3.6-11.8-4.4-20.1-2.8-.7-6.2-.9-10.1-.6-.1-.4-.5-.9-1.2-1.2l-.6-4.4c2.3-4.2 3.3-9.2 3.1-15l5-1.9c-.9-2.7-1.8-6-2.5-10l-.7-1.2c.1-.4-.1-.9-.6-1.2.2-2.3 0-5-.7-8.2-.4-1.8-.7-3.8-.7-6.3-.9-1.7-1.5-3.9-1.8-6.9l-.7-2.5-.6-3.1c-.9-2.4-1.3-5.5-1.3-9.4l-.6-1.2-1.2-3.1-.7-4.4-.7-3.1c-.4-1.1-.9-2.8-1.2-5 .2-1.3-.2-2.6-1.2-3.8l-.6-4.4-1.3-3.7v-4l-1.2-3.7.7-3.8c1.7.2 3.2-.7 4.3-2.5zM231.6 316.7c-4.7.7-9.1-.4-13-3.1v-7.4l.1-1.9v-14.8c.2-2.1 0-4.4-.6-6.9.6-2.2.6-4.9 0-8 .5-2.5.6-5.4.1-8.7.2-2.2 0-4.7-.6-7.4.3-1.2.3-2.5 0-3.7l.7-2.5c-.6-2.5-.9-5.4-.7-8.7-.4-3.3-.1-7.2.7-11.8v-1.9l2.5.7c.6 1.7 1.6 3.3 3.1 5 1 5.8 3.5 11.4 7.4 16.8l.6 2.5 2.5 4.3 3.1 7.4.7 1.2 1.8 1.9v2.5l2.5 3.1.6 3.1 1.2 2.5c.1 1 .5 2 1.2 3.1-2.1 7.3-2.1 15.5-.1 24.8l-.7 1.2-.7 5-12.4 1.7zm51.5-1.7c-3.7.6-7.4-.5-11.1-3.1-.9-4.2-3-9-6.2-14.3l-.6-2.5-1.2-1.2c-.7-3-2.2-6.1-4.3-9.3l-.6-1.9-1.2-1.8c-.6-2.8-2.1-5.7-4.3-8.7v-1.9l-1.2-2.5-1.8-1.9c-.5-2.9-2-5.5-4.3-8-.2-1.3-.7-2.5-1.2-3.7.1-.4-.1-.9-.7-1.2-.9-3.2-2.6-6.3-4.9-9.3v-1.8l-1.8-3.1-1.9-3.1-1.8-3.1c-.6-3.1-2.3-6.2-5-9.3v-1.8c-1.2-1.8-2.4-3.8-3.6-6.2l-1.2-1.2-.7-1.2c-.5-2.8-1.9-5.7-4.3-8.7L218 198c.3-2.1.3-4.4 0-6.9v-4.3c3.1-1 6.8-1 11.2 0l4.4-1.2h2.5l1.8.6c1 3.2 3.1 7.3 6.1 12.4-.1.4.1.9.7 1.2 0 .6.2 1.3.6 1.9.5 1.8 1.4 3.8 2.5 6.2l1.2 1.9c0 .6.2 1.2.6 1.8l1.2 3.1c.6 2.1 1.9 4.4 3.7 6.8v1.9l1.2 1.8c.4 1.2 1 2.4 1.8 3.7l1.2 3.7 1.2 3.1 1.9 3.7 1.8 3.7 1.2 2.5 1.8 3.7 1.2 3.7 1.8 3.7c1.2 3 3 6.5 5.5 10.6.5 2.6 1.8 5.1 3.7 7.4.1 1.3.7 3 1.8 5l2.5 3.7c.2 1.3.6 2.8 1.2 4.3l-.1 15.5.6 1.2-.6 1.8-.1 7.4c-.2.3-.6.7-1 1.4zm1.5-57.7l-5-1.9.1-5.5-2.5-5.5-2.5-6.3-1.2-1.2-.6-1.8-1.2-1.2c-.5-1.8-1.4-3.8-2.5-6.2l-1.2-1.9c-.2-.7-.6-1.3-1.2-1.8l-.6-2.5-.6-3.1-1.9-1.8-.6-2.5-1.8-1.9c0-1.5-.2-2.9-.7-4.3l.1-5c-.3-2.9-.1-6.4.7-10.6-.2-1.8-.2-3.8 0-6.2l3.7-.6c3.8.3 8.5.1 14.2-.6h1.9c.1.4.5.9 1.2 1.2 1.3 5.1 1.5 11.3.5 18.6l.7 1.9-.1 10.5c.2 1.8.2 3.8 0 6.2-.1 1.8.1 3.5.6 5v9.9l.6 8 .6 8.1-.7 3zM306.8 184.4c7.1-1.8 14.4-.7 22 3.1-1.2 5.3-1.6 11.8-1.2 19.5l.6 4.4c-.5 1.4-.5 3 0 5-1.1 4.8-1.1 10.5 0 16.9l-.6 2.6v5.6c-.6 3.9-.4 8.3.6 13.2-.5 1.4-.5 3 0 5l-1.2 2.5.7 3.1.6 3.8v3.1c-.7 4.4-.7 9.8 0 16.4V300c-.4 2.8-.4 6.2 0 10v1.9l-.6 1.9c-6.8 2.6-14.4 3.3-22.6 1.9l-1.2-2.6c.6-4.7.6-10.3 0-16.9v-1.9c.7-2.6.9-5.5.7-8.8V283c-.3-2.9-.1-6.5.6-10.7-.2-2.3-.2-5 0-8.2V251.5c-.2-3.7-.2-8.2 0-13.8v-45.9c-.2-1.3-.6-2.8-1.2-4.4l1.9-4.4.9 1.4zm33.3-1.2c24.2 4.9 34.4 27.7 30.7 68.5 2.8 41.8-7.8 63.5-32 65.3-1-3.9-1.2-8.7-.7-14.5l-.6-2.5-.7-1.9 1.9-5c3.7-.2 6.7-2.1 8.8-5.6l-1.2-3.8c1.3-4.5 1.7-10 1.2-16.4v-2.5l-.6-2.6.6-2.5c.1-2.3-.3-4.6-1.2-6.9l1.2-2.5-.5-4.3c.6-2.9.8-6.2.6-10.1v-21.4l-.6-4.4c-2-2-4.7-3-8.2-3.1.2-1.6 0-3.4-.7-5.6.6-4.2.4-9-.6-14.5l2.6-3.7zM404.6 225.4l4.4 1.2c-.1 3 .3 6.3 1.2 10-.2 2.5.2 5.2 1.2 8.2v2.5l.6 1.2v2.6l.7 2.5 1.2 12.5c0 .6.2 1.3.7 1.9v1.9l.6 2.5c.2 3-.4 6.1-1.8 9.4v5l-.7 1.9v1.9l-.7 5.6-.6 1.2v2.5c-.9 3-1.3 6.8-1.2 11.3l-.7 1.2-.6 2.5c-3-.1-6.3.5-10.1 1.9l-8.1-.7H387l-1.2-1.8c0-3 .6-6.2 1.9-9.4.2-3.8 1.3-8.4 3.1-13.8l1.2-8.8.7-3.7 1.2-4.4 1.8-8.8v-3.1l1.3-2.5c0-2.9.6-6.5 1.8-10.7l2.6-13.1 1.2-5v-2.5l2-3.1zm11.2-44.4c4.5 3 10 3.6 16.3 1.9.7 1.2 1.7 2.2 3.1 3.1 0 3.4.6 7.8 1.9 13.1v3.1l.6 2.5c0 .6.2 1.3.7 1.9l.6 5 .7 2.6v3.1c.5.1.9.6 1.2 1.3 0 .6.2 1.2.7 1.8-.2 2.5.2 5.4 1.2 8.8-.2 3.7.9 7.7 3.1 11.9-.1 3.5.5 7.2 1.8 11.3l.7 4.4c.4 2.9 1.2 6.4 2.5 10.6.2 2.8.9 6.2 1.9 10.1v1.8c0 .4.2.9.7 1.3l1.2 5v2.6l1.9 2.5.6 10 .7 1.2 2.5 10v4.4l-11.2-.6h-1.9c-1.8-.1-3.4 0-5 .6l-1.9-.6h-3.1c-2.2-5.1-3.6-11.8-4.4-20.1-2.8-.7-6.2-.9-10.1-.6-.1-.4-.5-.9-1.2-1.2l-.6-4.4c2.3-4.2 3.3-9.2 3.1-15l5-1.9c-.9-2.7-1.8-6-2.5-10l-.7-1.2c.1-.4-.1-.9-.6-1.2.2-2.3 0-5-.7-8.2-.4-1.8-.7-3.8-.7-6.3-.9-1.7-1.5-3.9-1.8-6.9l-.7-2.5-.6-3.1c-.9-2.4-1.3-5.5-1.3-9.4l-.6-1.2-1.2-3.1-.7-4.4-.7-3.1c-.4-1.1-.9-2.8-1.2-5 .2-1.3-.2-2.6-1.2-3.8l-.6-4.4-1.3-3.7v-4l-1.2-3.7.7-3.8c1.7.2 3.2-.7 4.3-2.5z"/><g><path class="st1" d="M54.6 90.4l2.9.4c.1 1.5-.1 3.2-.4 5.1.3 1.6.4 3.5.4 5.6v2.8c-2.3.6-4 2-5 4.4-.3 2.3-.1 5.2.4 8.7l-.4 1.2v1.6l.4 1.2c-.4 1.2-.4 2.5 0 3.9-.4 1.5-.6 3.2-.4 5.1v11.1l-.4 1.2.4 1.6-.4 1.2c.3 1.7.3 3.8 0 6.3l.8 6.8c2.3 1.9 3.7 4.5 4.1 7.9-.5 2.1-.5 4.5 0 7.1l-.4.8-3.7.8c-5.7-2-10.6-5.7-14.8-11.1-1.2-2.9-1.7-6.4-1.6-10.3v-4.4c-.3-1.6-.4-3.4-.4-5.6l.4-.8c-.2-1.5-.2-3.4 0-5.6v-9.1c-.3-1.3-.3-2.8 0-4.4l-.4-1.6.4-1.9v-9.9l.4-2.4.4-2.7c1-1.3 1.9-3.2 2.9-5.6l.4-.8 2.1-2 .4-1.2c1.5-.5 3.2-1.3 5-2.4l1.3-.4h1.3l2-1.6L54 91c.1.1.4-.1.6-.6zm15.3 53.5l7.4 2.4 2.9 1.2 1.2.8c.8 3.6.5 7.5-.8 11.5-2.5 10.4-8.6 15.1-18.1 14.3-.1-1.7.1-3.9.4-6.7v-1.6c-.2-.8-.3-1.9-.4-3.2l.8-1.2-.4-.8c2.5-.8 4.5-2.5 5.8-5.2.1-2.2 0-5.1-.4-8.7l1.6-2.8zM64.1 90c8.6 1.9 14.1 7.3 16.5 16.3 1 2.8 1.1 5.9.4 9.1-1.3.1-2.6.6-3.7 1.6-1.9.3-4 1.1-6.2 2.4l-.8.4-1.6-.4c-.5-2-.6-4.4-.4-7.1v-2.4c-1.1-1.7-2.7-3.2-5-4.4V91.2c.4-.2.7-.6.8-1.2zM102.3 90c1.1.2 2.5.6 4.1 1.2-.2 1.8 0 3.9.4 6.4l-.4.8v7.2l.4 1.2-.4 2v2.8l.4 1.6v4.4c.2 1.8.2 3.9 0 6.4v3.2l.4 1.2c-.5 3.2-.6 7.3-.4 12.4v2.8c.2 2.3.1 5.3-.4 8.8l.4 2.8.4 8.8v8l-1.3 2.8H92.2V156l-.4-1.2v-2c.2-1.6.2-3.5 0-5.6l.4-2c-.2-1.7-.2-3.9 0-6.4l-.4-1.2.4-1.2v-2c-.4-2.6-.5-6-.4-10v-2.8c.2-2.2.1-5.1-.4-8.8v-4.4l.4-1.6-.4-5.2c.1-2.3 0-5.2-.4-8.8v-1.2c1.3-.1 2.6-.5 3.8-1.2 2.2.2 4.7.1 7.5-.4zm16.6.4c11.8.9 17.8 7 17.9 18.4 2.6 9.6.1 17.2-7.5 22.8v1.6c1.7.5 3.3 1.6 5 3.2l.8.4 1.3 2.8c.1 1.1.4 2.2.8 3.2v30.4l-.4 1.2c-2 .3-4.5.3-7.5 0l-1.6.4h-1.3l-.9-.4-1.2.4h-2.1c-.5-2.7-.7-6-.4-10v-15.6c.2-1.6 0-3.3-.4-5.2v-1.2c-1.3-1.6-3.1-2.4-5.4-2.4l-.8-2.4c.2-2.2 0-4.8-.4-8v-1.2c.8-1.9 2.6-3.3 5.4-4 3.8-11.3 2-18.6-5.4-22 .8-2.5.6-5.1-.8-7.6-.1-2.9 1.5-4.5 4.9-4.8zM164.2 90.9c2.4.4 3.2 4.6 2.5 12.6-.5 1.5-1.6 2.7-3.3 3.6l-.4 1.6-.9 1.2v7.9c0 .4.1.8.4 1.2l-.4 1.6v1.2c.2 1.5.2 3.3 0 5.5l.4 5.1v8.6l.4 2-.4 2.7c.4 1.5.6 3.2.4 5.1-.1 1.7 0 3.8.4 6.3.7 1.4 2.1 2.4 4.1 3.2l.8 2.4c-.1 1.1-.1 2.4 0 3.9-.4 1.8-.4 4.1 0 6.7l-.4 1.2c-6.2.6-11.1-1.7-14.7-7.1l-.9.4c-.3-2-1.1-4.6-2.4-7.9l-.4-2.3c.1-1.1-.2-2.5-.8-4l-.4-5.5v-1.2c-.6-1.8-.9-3.9-.9-6.3.2-1.1 0-2.2-.4-3.2l.4-1.2c-.4-3.2-.4-7.1 0-11.8V115l.4-1.2.4-1.2v-2.7c.4-1.7.9-3.9 1.2-6.7l.4-1.2 1.2-2.7c3.4-3.7 7.8-6.5 13.3-8.4zm9.9.8c5 .9 9.7 3.6 13.9 7.9.3 1.2.9 2.4 2 3.5l.9 6.3.4.8.4 1.2c-.1 2 .2 4.2.9 6.7l.4 1.6v1.6c-.3 1.5-.1 3.4.4 5.5v3.2l.4 1.6-.4 1.6c.4 2.9.2 6.7-.4 11.4V152.2c-.8 2-1.3 4.4-1.3 7.1l-.8 2.3-.9 4c-3.1 4.7-7.7 8-13.9 9.8-2.1-3.9-2.7-8.5-2.1-13.8V160c1.6-1 2.9-2.4 4.1-4.3.2-3 .1-7.1-.4-12.2l.4-2-.8-1.2.8-2v-26.8c-.8-2.4-2.5-4.5-4.9-6.3 0-.9-.1-1.8-.4-2.7.5-2.4.5-5.1 0-8.3l1.3-2.5zM214.8 147.9h3.4c.7 6.2 3.4 10.7 8 13.4.8 3.8.8 8.7 0 14.6l-2.9-.8H222c-9.2-3.6-15.3-10.6-18.1-21.1-.5-4.1 3.1-6.1 10.9-6.1zm5.1-57.9c1.5 0 3.2.4 5.1 1.2-.2 1.8 0 4 .4 6.5-.4 1.4-.5 2.9-.4 4.5l-.4.8.4 1.2c-.4.9-.7 2-.9 3.2-.8.9-1.7 1.9-2.5 3.2-.3 1.2-.5 2.9-.4 4.9 3.6 3.8 8.2 6.8 13.9 8.9 1.5 1.6 3.5 2.9 5.9 4l1.7 1.6c1.6 1 3.3 2.5 5.1 4.5l.8.4 3.8 7.3.9 1.6c.1 1.2.5 2.5 1.3 3.7 1 9.8-2.8 18-11.4 24.7-2.7 1.7-5.9 2.6-9.7 2.9-.6-2.7-.7-6.1-.4-10.1l-.4-6.1c3.9-1.8 6-5.1 6.3-9.8-1-2.5-2.8-4.9-5.5-7.3l-2.9-.8c-1.1-1.1-2.5-2.1-4.2-3.2l-1.3-.4-.4-.8-1.3-.4-.4-.8c-13-5.3-18.8-15.6-17.3-30.8.9-.9 1.7-2.1 2.6-3.7.9-1.2 1.7-2.7 2.5-4.4.8-.5 1.5-1.1 2.1-2 2.1-.7 4.1-2 5.9-4 .2-.1.6-.2 1.1-.5zm10.5.4c10.2.8 17.2 6.2 21.1 16.2.8 2.1.8 4.4 0 6.9-1.9 0-4.3.3-7.2.8H243c-.4 0-.9.1-1.3.4H240l-1.7.4H237l-1.3-.8c-.3-1.3-.5-2.8-.4-4.4-.7-1.3-1.8-2.3-3.4-3.2l-1.7-2.5v-9.3c.1-1.1 0-2.2-.4-3.2l.6-1.3zM274.9 147.9h3.4c.7 6.2 3.4 10.7 8 13.4.8 3.8.8 8.7 0 14.6l-2.9-.8H282c-9.2-3.6-15.3-10.6-18.1-21.1-.5-4.1 3.2-6.1 11-6.1zm5-57.9c1.5 0 3.2.4 5.1 1.2-.2 1.8 0 4 .4 6.5-.4 1.4-.5 2.9-.4 4.5l-.4.8.4 1.2c-.4.9-.7 2-.9 3.2-.8.9-1.7 1.9-2.5 3.2-.3 1.2-.5 2.9-.4 4.9 3.6 3.8 8.2 6.8 13.9 8.9 1.5 1.6 3.5 2.9 5.9 4l1.7 1.6c1.6 1 3.3 2.5 5.1 4.5l.8.4 3.8 7.3.9 1.6c.1 1.2.5 2.5 1.3 3.7 1 9.8-2.8 18-11.4 24.7-2.7 1.7-5.9 2.6-9.7 2.9-.6-2.7-.7-6.1-.4-10.1l-.4-6.1c3.9-1.8 6-5.1 6.3-9.8-1-2.5-2.8-4.9-5.5-7.3l-2.9-.8c-1.1-1.1-2.5-2.1-4.2-3.2l-1.3-.4-.4-.8-1.3-.4-.4-.8c-13-5.3-18.8-15.6-17.3-30.8.9-.9 1.7-2.1 2.6-3.7.9-1.2 1.7-2.7 2.5-4.4.8-.5 1.5-1.1 2.1-2 2.1-.7 4.1-2 5.9-4 .2-.1.7-.2 1.1-.5zm10.5.4c10.2.8 17.2 6.2 21.1 16.2.8 2.1.8 4.4 0 6.9-1.9 0-4.3.3-7.2.8H303c-.4 0-.9.1-1.3.4H300l-1.7.4H297l-1.3-.8c-.3-1.3-.5-2.8-.4-4.4-.7-1.3-1.8-2.3-3.4-3.2l-1.7-2.5v-9.3c.1-1.1 0-2.2-.4-3.2l.6-1.3zM325.7 89.5h8.2l1.3.4h4.5c.9 0 2 .1 3.3.4h7.1l2.9-.4c1.2.2 2.9.2 4.9 0l.8.4H362.1l2.5-.4 2.5.8c.9 4.4.4 8.8-1.6 13.4-1.8.2-4 0-6.6-.4l-.8.4-.8-.4-1.3.4h-4.9c-1.3.1-2.8 0-4.5-.4l-2.1.4-1.6-.4c-1 .2-2.1.7-3.3 1.6l-.4 7.1v1.2l.4 3.1-.4 2 .4 1.2-.4 1.9c3.7 1.1 8.2 1.3 13.6.8l2.1.8c.3 2.2.3 4.5 0 7.1l.4.8v2.8l-1.6 2.7H339.8l-1.3-.4V173.8l-2.1.8c-2.9-.9-6.1-1.1-9.9-.4l-1.3.4-1.6-.8c-.4-2.3-.2-5.2.4-8.7l-.4-2 .4-1.2V91.5l1.7-2zM384.7 90.9c2.6-.7 5.5-.6 8.6.4l.8 6.3c-.3.8-.4 1.9-.4 3.1l.4.8V174.1c-2.2 0-5 .4-8.2 1.2-1.9-.7-4-1-6.5-.8l-.4-2.5v-22.5l-.4-1.2.4-2-.4-2.4.4-2-.4-2.4c-.2-1.4 0-3.1.4-5.1l-.4-.8v-19.9c-.4-3.2-.4-7.2 0-12.2l-.4-1.9.4-1.2-.4-2.4v-4l1.6-1.2c1.3.3 2.6.2 4.1-.4l.8.5zM447.4 90.4l2 .4c1.6 4.4 1.8 9.3.8 14.6h-10.6l-.8-.4-1.6.4-1.3-.4V132.2l.4 1.6-.4 2.4.4 1.6v2.4l-.4 1.5c.4 1.8.5 3.9.4 6.3v11.1c-.1 1.7 0 3.8.4 6.3v8.3c-2.8 1.3-6.2 1.6-10.2.8-1.2.5-2.7.8-4.5.8l-1.6-4.7c.6-1.8.7-3.8.4-5.9V158c.1-.3 0-.5-.4-.8.4-2.8.3-6.2-.4-10.2.4-1.5.4-3.2 0-5.1V140c.3-1.8.3-3.9 0-6.3V114l.4-2.7-.4-5.1-.8-.8c-1.3 0-2.8.3-4.5.8-1.5-.4-3.3-.5-5.3-.4h-2.5l-1.3-.4c-.7-1.9-.9-4.1-.8-6.7v-4.3l-.4-2 .4-.8c2.2-.4 5-.5 8.2-.4H427.4c2.2.2 4.8 0 7.8-.4h10.7l1.5-.4z"/></g></svg>